<?xml version="1.0" encoding="UTF-8" standalone="no"?>
<!DOCTYPE svg PUBLIC "-//W3C//DTD SVG 1.1//EN" "http://www.w3.org/Graphics/SVG/1.1/DTD/svg11.dtd">
<svg width="100%" height="100%" viewBox="0 0 368 45" version="1.1" xmlns="http://www.w3.org/2000/svg" xmlns:xlink="http://www.w3.org/1999/xlink" xml:space="preserve" xmlns:serif="http://www.serif.com/" style="fill-rule:evenodd;clip-rule:evenodd;stroke-linejoin:round;stroke-miterlimit:2;">
    <g id="ArtBoard1" transform="matrix(1.02507,0,0,0.737705,20.501393,7.377049)">
        <rect x="-20" y="-10" width="359" height="61" style="fill:none;"/>
        <g transform="matrix(0.975543,0,0,1.355556,-20,-108.955556)">
            <path d="M4.375,97.417C3.875,97 3.514,96.493 3.292,95.896C3.069,95.299 2.958,94.903 2.958,94.708C2.569,90.236 2.75,85.861 3.5,81.583C3.639,81 3.792,80.472 3.958,80C4.125,79.528 4.292,79.292 4.458,79.292C4.653,79.292 4.861,79.347 5.083,79.458C5.306,79.569 5.5,79.708 5.667,79.875C5.833,80.042 5.965,80.222 6.063,80.417C6.16,80.611 6.208,80.792 6.208,80.958C5.653,83.681 5.354,86.396 5.313,89.104C5.271,91.812 5.333,94.514 5.5,97.208C5.5,97.486 5.375,97.653 5.125,97.708C4.986,97.736 4.854,97.715 4.729,97.646C4.604,97.576 4.486,97.5 4.375,97.417Z" style="fill:rgb(228,228,228);fill-rule:nonzero;"/>
            <path d="M12.875,97.125C13.014,98.125 12.597,98.694 11.625,98.833C11.125,98.889 10.715,98.75 10.396,98.417C10.076,98.083 9.875,97.681 9.792,97.208C9.708,96.708 9.743,96.222 9.896,95.75C10.049,95.278 10.347,95.014 10.792,94.958C11.347,94.875 11.819,95.076 12.208,95.562C12.597,96.049 12.819,96.569 12.875,97.125Z" style="fill:rgb(228,228,228);fill-rule:nonzero;"/>
            <path d="M40.5,80.042C40.389,80.181 40.188,80.285 39.896,80.354C39.604,80.424 39.306,80.347 39,80.125C38.778,79.958 38.514,79.785 38.208,79.604C37.903,79.424 37.569,79.25 37.208,79.083C36.847,78.917 36.486,78.778 36.125,78.667C35.764,78.556 35.417,78.5 35.083,78.5C34.667,78.5 34.229,78.597 33.771,78.792C33.313,78.986 32.917,79.264 32.583,79.625C31.944,80.319 31.715,80.993 31.896,81.646C32.076,82.299 32.556,82.903 33.333,83.458C33.833,83.819 34.375,84.187 34.958,84.562C35.542,84.937 36.118,85.306 36.688,85.667C37.257,86.028 37.799,86.375 38.313,86.708C38.826,87.042 39.278,87.333 39.667,87.583C40.167,87.917 40.639,88.278 41.083,88.667C41.528,89.056 41.917,89.493 42.25,89.979C42.583,90.465 42.847,91.014 43.042,91.625C43.236,92.236 43.333,92.931 43.333,93.708C43.139,95.236 42.535,96.451 41.521,97.354C40.507,98.257 39.333,98.833 38,99.083C36.833,99.306 35.688,99.264 34.563,98.958C33.438,98.653 32.486,98.069 31.708,97.208C31.514,96.986 31.347,96.681 31.208,96.292C31.069,95.903 31.056,95.625 31.167,95.458C31.333,95.208 31.625,95.035 32.042,94.937C32.458,94.84 32.778,94.861 33,95C33.639,95.583 34.389,96.007 35.25,96.271C36.111,96.535 37.014,96.556 37.958,96.333C38.681,96.167 39.264,95.854 39.708,95.396C40.153,94.937 40.431,94.417 40.542,93.833C40.681,93.222 40.604,92.59 40.313,91.937C40.021,91.285 39.5,90.694 38.75,90.167C37.611,89.306 36.396,88.5 35.104,87.75C33.813,87 32.5,86.139 31.167,85.167C30.528,84.611 30.063,84 29.771,83.333C29.479,82.667 29.333,82.014 29.333,81.375C29.333,80.708 29.472,80.076 29.75,79.479C30.028,78.882 30.417,78.34 30.917,77.854C31.417,77.368 32,76.972 32.667,76.667C33.333,76.361 34.069,76.181 34.875,76.125C35.986,76.069 37.056,76.299 38.083,76.812C39.111,77.326 39.944,77.958 40.583,78.708C40.722,78.875 40.785,79.083 40.771,79.333C40.757,79.583 40.667,79.819 40.5,80.042Z" style="fill:rgb(228,228,228);fill-rule:nonzero;"/>
            <path d="M56.292,88C55.208,88.639 54.042,89.132 52.792,89.479C51.542,89.826 50.194,90 48.75,90C48.806,90.972 49.083,91.743 49.583,92.312C50.083,92.882 50.708,93.222 51.458,93.333C51.903,93.389 52.354,93.375 52.813,93.292C53.271,93.208 53.701,93.076 54.104,92.896C54.507,92.715 54.875,92.514 55.208,92.292C55.542,92.069 55.833,91.847 56.083,91.625C56.333,91.403 56.597,91.257 56.875,91.187C57.153,91.118 57.361,91.111 57.5,91.167C57.889,91.306 58.028,91.722 57.917,92.417C57.472,93.306 56.833,94.062 56,94.687C55.167,95.312 54.236,95.708 53.208,95.875C52.319,96.042 51.403,96 50.458,95.75C49.514,95.5 48.667,95.014 47.917,94.292C47.278,93.653 46.792,92.903 46.458,92.042C46.125,91.181 45.917,90.292 45.833,89.375C45.75,88.514 45.826,87.694 46.063,86.917C46.299,86.139 46.667,85.451 47.167,84.854C47.667,84.257 48.292,83.764 49.042,83.375C49.792,82.986 50.667,82.764 51.667,82.708C52.861,82.625 53.944,82.847 54.917,83.375C55.889,83.903 56.569,84.639 56.958,85.583C57.181,86.111 57.243,86.569 57.146,86.958C57.049,87.347 56.764,87.694 56.292,88ZM51.5,85.167C51.222,85.222 50.924,85.319 50.604,85.458C50.285,85.597 49.993,85.771 49.729,85.979C49.465,86.187 49.229,86.424 49.021,86.687C48.813,86.951 48.694,87.25 48.667,87.583C49.139,87.583 49.66,87.542 50.229,87.458C50.799,87.375 51.354,87.271 51.896,87.146C52.438,87.021 52.938,86.875 53.396,86.708C53.854,86.542 54.236,86.361 54.542,86.167C54.319,85.639 53.91,85.312 53.313,85.187C52.715,85.062 52.111,85.056 51.5,85.167Z" style="fill:rgb(228,228,228);fill-rule:nonzero;"/>
            <path d="M71.25,82.375C71.361,83.153 71.451,83.979 71.521,84.854C71.59,85.729 71.646,86.611 71.688,87.5C71.729,88.389 71.75,89.25 71.75,90.083C71.75,90.917 71.736,91.667 71.708,92.333C72.597,92.944 73.132,93.486 73.313,93.958C73.493,94.431 73.514,94.847 73.375,95.208C73.208,95.708 72.91,95.965 72.479,95.979C72.049,95.993 71.556,95.847 71,95.542C70.611,95.819 70.167,96.118 69.667,96.437C69.167,96.757 68.639,97.062 68.083,97.354C67.528,97.646 66.972,97.903 66.417,98.125C65.861,98.347 65.347,98.5 64.875,98.583C63.986,98.722 63.188,98.556 62.479,98.083C61.771,97.611 61.292,96.903 61.042,95.958C60.875,95.319 60.833,94.66 60.917,93.979C61,93.299 61.208,92.646 61.542,92.021C61.875,91.396 62.326,90.833 62.896,90.333C63.465,89.833 64.139,89.444 64.917,89.167C65.111,89.083 65.382,89.014 65.729,88.958C66.076,88.903 66.438,88.882 66.813,88.896C67.188,88.91 67.569,88.986 67.958,89.125C68.347,89.264 68.708,89.5 69.042,89.833C69.042,89.361 69.035,88.84 69.021,88.271C69.007,87.701 68.986,87.125 68.958,86.542C68.931,85.958 68.896,85.41 68.854,84.896C68.813,84.382 68.764,83.944 68.708,83.583C68.653,83.167 68.493,82.91 68.229,82.812C67.965,82.715 67.639,82.736 67.25,82.875C66.583,83.097 65.806,83.528 64.917,84.167C64.028,84.806 63.181,85.486 62.375,86.208C62.125,86.458 61.84,86.569 61.521,86.542C61.201,86.514 60.931,86.389 60.708,86.167C60.486,85.944 60.361,85.687 60.333,85.396C60.306,85.104 60.417,84.792 60.667,84.458C61.139,83.958 61.667,83.444 62.25,82.917C62.833,82.389 63.444,81.91 64.083,81.479C64.722,81.049 65.375,80.694 66.042,80.417C66.708,80.139 67.375,79.986 68.042,79.958C69.014,79.931 69.764,80.146 70.292,80.604C70.819,81.062 71.139,81.653 71.25,82.375ZM66.417,91.333C66.056,91.417 65.674,91.59 65.271,91.854C64.868,92.118 64.507,92.437 64.188,92.812C63.868,93.187 63.632,93.604 63.479,94.062C63.326,94.521 63.319,94.972 63.458,95.417C63.514,95.583 63.632,95.708 63.813,95.792C63.993,95.875 64.194,95.889 64.417,95.833C65.083,95.694 65.84,95.424 66.688,95.021C67.535,94.618 68.208,94.181 68.708,93.708C68.708,93.542 68.625,93.326 68.458,93.062C68.292,92.799 68.097,92.535 67.875,92.271C67.653,92.007 67.41,91.778 67.146,91.583C66.882,91.389 66.639,91.306 66.417,91.333Z" style="fill:rgb(228,228,228);fill-rule:nonzero;"/>
            <path d="M88.25,83.417C87.75,83.694 87.229,83.986 86.688,84.292C86.146,84.597 85.604,84.951 85.063,85.354C84.521,85.757 84.007,86.229 83.521,86.771C83.035,87.312 82.597,87.958 82.208,88.708C81.653,89.764 81.278,90.84 81.083,91.937C80.889,93.035 80.764,94.111 80.708,95.167C80.708,95.667 80.59,96.174 80.354,96.687C80.118,97.201 79.792,97.458 79.375,97.458C78.847,97.458 78.424,97.187 78.104,96.646C77.785,96.104 77.569,95.583 77.458,95.083C76.986,93.111 76.597,91.16 76.292,89.229C75.986,87.299 75.722,85.375 75.5,83.458C75.5,83.069 75.618,82.819 75.854,82.708C76.09,82.597 76.361,82.556 76.667,82.583C77,82.611 77.319,82.694 77.625,82.833C77.931,82.972 78.111,83.194 78.167,83.5C78.278,84.528 78.417,85.604 78.583,86.729C78.75,87.854 78.917,88.819 79.083,89.625C79.194,88.681 79.5,87.764 80,86.875C80.5,85.986 81.118,85.181 81.854,84.458C82.59,83.736 83.424,83.125 84.354,82.625C85.285,82.125 86.236,81.792 87.208,81.625C87.625,81.569 87.972,81.569 88.25,81.625C88.528,81.681 88.722,81.778 88.833,81.917C88.944,82.056 88.965,82.278 88.896,82.583C88.826,82.889 88.611,83.167 88.25,83.417Z" style="fill:rgb(228,228,228);fill-rule:nonzero;"/>
            <path d="M100.333,87.083C100.139,87.194 99.903,87.229 99.625,87.187C99.347,87.146 99.111,86.972 98.917,86.667C98.472,86.083 97.931,85.792 97.292,85.792C96.708,85.792 96.188,85.924 95.729,86.187C95.271,86.451 94.868,86.799 94.521,87.229C94.174,87.66 93.889,88.139 93.667,88.667C93.444,89.194 93.292,89.722 93.208,90.25C93.069,91.222 93.236,92.042 93.708,92.708C94.181,93.375 94.917,93.708 95.917,93.708C96.722,93.736 97.632,93.576 98.646,93.229C99.66,92.882 100.611,92.431 101.5,91.875C101.889,91.708 102.25,91.611 102.583,91.583C102.917,91.556 103.194,91.722 103.417,92.083C103.694,92.528 103.625,92.979 103.208,93.437C102.792,93.896 102.236,94.306 101.542,94.667C100.847,95.056 100.118,95.396 99.354,95.687C98.59,95.979 97.819,96.187 97.042,96.312C96.264,96.437 95.493,96.444 94.729,96.333C93.965,96.222 93.25,95.958 92.583,95.542C91.528,94.819 90.889,93.792 90.667,92.458C90.444,91.125 90.542,89.75 90.958,88.333C91.125,87.806 91.361,87.271 91.667,86.729C91.972,86.187 92.34,85.694 92.771,85.25C93.201,84.806 93.681,84.424 94.208,84.104C94.736,83.785 95.319,83.569 95.958,83.458C96.986,83.292 97.972,83.396 98.917,83.771C99.861,84.146 100.486,84.833 100.792,85.833C100.847,86.056 100.847,86.285 100.792,86.521C100.736,86.757 100.583,86.944 100.333,87.083Z" style="fill:rgb(228,228,228);fill-rule:nonzero;"/>
            <path d="M108.75,79.333C108.75,80 108.743,80.75 108.729,81.583C108.715,82.417 108.715,83.278 108.729,84.167C108.743,85.056 108.757,85.972 108.771,86.917C108.785,87.861 108.806,88.764 108.833,89.625C109.111,89.069 109.444,88.521 109.833,87.979C110.222,87.437 110.66,86.958 111.146,86.542C111.632,86.125 112.146,85.792 112.688,85.542C113.229,85.292 113.819,85.167 114.458,85.167C115.153,85.167 115.771,85.389 116.313,85.833C116.854,86.278 117.326,86.868 117.729,87.604C118.132,88.34 118.472,89.16 118.75,90.062C119.028,90.965 119.257,91.882 119.438,92.812C119.618,93.743 119.75,94.632 119.833,95.479C119.917,96.326 119.986,97.056 120.042,97.667C120.042,98.111 119.931,98.472 119.708,98.75C119.486,99.028 119.222,99.167 118.917,99.167C118.694,99.167 118.424,99.021 118.104,98.729C117.785,98.437 117.556,98.083 117.417,97.667C117.333,97.333 117.25,96.847 117.167,96.208C117.083,95.569 116.986,94.882 116.875,94.146C116.764,93.41 116.625,92.667 116.458,91.917C116.292,91.167 116.09,90.493 115.854,89.896C115.618,89.299 115.333,88.833 115,88.5C114.667,88.167 114.278,88.042 113.833,88.125C113.139,88.264 112.535,88.75 112.021,89.583C111.507,90.417 111.063,91.361 110.688,92.417C110.313,93.472 110.007,94.542 109.771,95.625C109.535,96.708 109.361,97.583 109.25,98.25C109.139,98.75 108.993,99.09 108.813,99.271C108.632,99.451 108.431,99.542 108.208,99.542C107.986,99.542 107.785,99.431 107.604,99.208C107.424,98.986 107.257,98.715 107.104,98.396C106.951,98.076 106.819,97.743 106.708,97.396C106.597,97.049 106.528,96.75 106.5,96.5C106.361,95 106.25,93.562 106.167,92.187C106.083,90.812 106.021,89.431 105.979,88.042C105.938,86.653 105.917,85.229 105.917,83.771C105.917,82.312 105.944,80.75 106,79.083C106,77.694 106.5,77.069 107.5,77.208C107.833,77.264 108.125,77.507 108.375,77.937C108.625,78.368 108.75,78.833 108.75,79.333Z" style="fill:rgb(228,228,228);fill-rule:nonzero;"/>
            <path d="M136.167,90.208C135.778,90.264 135.326,90.222 134.813,90.083C134.299,89.944 133.944,89.597 133.75,89.042C133.667,88.764 133.653,88.493 133.708,88.229C133.764,87.965 134.056,87.778 134.583,87.667C135.083,87.556 135.618,87.451 136.188,87.354C136.757,87.257 137.333,87.167 137.917,87.083L136.375,82.417C135.903,80.639 135.847,79.111 136.208,77.833C136.569,76.556 137.597,75.639 139.292,75.083C139.986,74.861 140.674,74.778 141.354,74.833C142.035,74.889 142.681,75.069 143.292,75.375C143.903,75.681 144.458,76.083 144.958,76.583C145.458,77.083 145.861,77.667 146.167,78.333C146.278,78.639 146.34,78.91 146.354,79.146C146.368,79.382 146.278,79.597 146.083,79.792C145.806,80.069 145.5,80.187 145.167,80.146C144.833,80.104 144.611,80.014 144.5,79.875C144.25,79.569 143.979,79.257 143.688,78.937C143.396,78.618 143.09,78.34 142.771,78.104C142.451,77.868 142.111,77.687 141.75,77.562C141.389,77.437 141,77.403 140.583,77.458C140.389,77.486 140.16,77.583 139.896,77.75C139.632,77.917 139.403,78.174 139.208,78.521C139.014,78.868 138.896,79.319 138.854,79.875C138.813,80.431 138.903,81.125 139.125,81.958C139.319,82.653 139.542,83.403 139.792,84.208C140.042,85.014 140.319,85.861 140.625,86.75C141.958,86.611 143.181,86.569 144.292,86.625C144.903,86.681 145.472,86.792 146,86.958C146.528,87.125 146.958,87.375 147.292,87.708C147.375,87.986 147.361,88.215 147.25,88.396C147.139,88.576 146.979,88.729 146.771,88.854C146.563,88.979 146.326,89.069 146.063,89.125C145.799,89.181 145.542,89.222 145.292,89.25C144.736,89.306 144.153,89.368 143.542,89.437C142.931,89.507 142.292,89.569 141.625,89.625C142.069,90.875 142.479,92.062 142.854,93.187C143.229,94.312 143.528,95.25 143.75,96C143.861,96.417 143.875,96.861 143.792,97.333C143.708,97.806 143.597,98.264 143.458,98.708C143.236,99.347 142.958,99.861 142.625,100.25C142.292,100.639 141.931,100.764 141.542,100.625C141.236,100.486 141.042,100.306 140.958,100.083C140.875,99.861 140.861,99.556 140.917,99.167C140.972,98.722 141,98.278 141,97.833C141,97.389 140.979,96.979 140.938,96.604C140.896,96.229 140.84,95.896 140.771,95.604C140.701,95.312 140.653,95.111 140.625,95L138.875,89.917C138.431,89.972 137.986,90.021 137.542,90.062C137.097,90.104 136.639,90.153 136.167,90.208Z" style="fill:rgb(228,228,228);fill-rule:nonzero;"/>
            <path d="M159.75,83.25C160.583,83.556 161.285,84.014 161.854,84.625C162.424,85.236 162.861,85.924 163.167,86.687C163.472,87.451 163.646,88.236 163.688,89.042C163.729,89.847 163.639,90.597 163.417,91.292C163.111,92.069 162.722,92.833 162.25,93.583C161.778,94.333 161.236,95 160.625,95.583C160.014,96.167 159.319,96.639 158.542,97C157.764,97.361 156.903,97.542 155.958,97.542C154.819,97.542 153.861,97.278 153.083,96.75C152.306,96.222 151.694,95.542 151.25,94.708C150.806,93.875 150.521,92.931 150.396,91.875C150.271,90.819 150.292,89.764 150.458,88.708C150.569,87.931 150.757,87.174 151.021,86.437C151.285,85.701 151.625,85.049 152.042,84.479C152.458,83.91 152.938,83.444 153.479,83.083C154.021,82.722 154.639,82.542 155.333,82.542C155.722,82.542 156.208,82.618 156.792,82.771C157.375,82.924 157.917,83.139 158.417,83.417C158.778,83.083 159.222,83.028 159.75,83.25ZM158.167,86.292C157.861,86.097 157.507,85.84 157.104,85.521C156.701,85.201 156.347,85.042 156.042,85.042C155.708,85.042 155.382,85.194 155.063,85.5C154.743,85.806 154.465,86.16 154.229,86.562C153.993,86.965 153.792,87.375 153.625,87.792C153.458,88.208 153.347,88.542 153.292,88.792C153.208,89.208 153.153,89.708 153.125,90.292C153.097,90.875 153.139,91.451 153.25,92.021C153.361,92.59 153.576,93.104 153.896,93.562C154.215,94.021 154.694,94.347 155.333,94.542C155.722,94.653 156.181,94.646 156.708,94.521C157.236,94.396 157.757,94.167 158.271,93.833C158.785,93.5 159.271,93.056 159.729,92.5C160.188,91.944 160.542,91.306 160.792,90.583C161.069,89.778 161.076,88.937 160.813,88.062C160.549,87.187 160.014,86.556 159.208,86.167C159.014,86.306 158.819,86.375 158.625,86.375C158.431,86.375 158.278,86.347 158.167,86.292Z" style="fill:rgb(228,228,228);fill-rule:nonzero;"/>
            <path d="M179.458,83.417C178.958,83.694 178.438,83.986 177.896,84.292C177.354,84.597 176.813,84.951 176.271,85.354C175.729,85.757 175.215,86.229 174.729,86.771C174.243,87.312 173.806,87.958 173.417,88.708C172.861,89.764 172.486,90.84 172.292,91.937C172.097,93.035 171.972,94.111 171.917,95.167C171.917,95.667 171.799,96.174 171.563,96.687C171.326,97.201 171,97.458 170.583,97.458C170.056,97.458 169.632,97.187 169.313,96.646C168.993,96.104 168.778,95.583 168.667,95.083C168.194,93.111 167.806,91.16 167.5,89.229C167.194,87.299 166.931,85.375 166.708,83.458C166.708,83.069 166.826,82.819 167.063,82.708C167.299,82.597 167.569,82.556 167.875,82.583C168.208,82.611 168.528,82.694 168.833,82.833C169.139,82.972 169.319,83.194 169.375,83.5C169.486,84.528 169.625,85.604 169.792,86.729C169.958,87.854 170.125,88.819 170.292,89.625C170.403,88.681 170.708,87.764 171.208,86.875C171.708,85.986 172.326,85.181 173.063,84.458C173.799,83.736 174.632,83.125 175.563,82.625C176.493,82.125 177.444,81.792 178.417,81.625C178.833,81.569 179.181,81.569 179.458,81.625C179.736,81.681 179.931,81.778 180.042,81.917C180.153,82.056 180.174,82.278 180.104,82.583C180.035,82.889 179.819,83.167 179.458,83.417Z" style="fill:rgb(228,228,228);fill-rule:nonzero;"/>
            <path d="M203.708,88C202.625,88.639 201.458,89.132 200.208,89.479C198.958,89.826 197.611,90 196.167,90C196.222,90.972 196.5,91.743 197,92.312C197.5,92.882 198.125,93.222 198.875,93.333C199.319,93.389 199.771,93.375 200.229,93.292C200.688,93.208 201.118,93.076 201.521,92.896C201.924,92.715 202.292,92.514 202.625,92.292C202.958,92.069 203.25,91.847 203.5,91.625C203.75,91.403 204.014,91.257 204.292,91.187C204.569,91.118 204.778,91.111 204.917,91.167C205.306,91.306 205.444,91.722 205.333,92.417C204.889,93.306 204.25,94.062 203.417,94.687C202.583,95.312 201.653,95.708 200.625,95.875C199.736,96.042 198.819,96 197.875,95.75C196.931,95.5 196.083,95.014 195.333,94.292C194.694,93.653 194.208,92.903 193.875,92.042C193.542,91.181 193.333,90.292 193.25,89.375C193.167,88.514 193.243,87.694 193.479,86.917C193.715,86.139 194.083,85.451 194.583,84.854C195.083,84.257 195.708,83.764 196.458,83.375C197.208,82.986 198.083,82.764 199.083,82.708C200.278,82.625 201.361,82.847 202.333,83.375C203.306,83.903 203.986,84.639 204.375,85.583C204.597,86.111 204.66,86.569 204.563,86.958C204.465,87.347 204.181,87.694 203.708,88ZM198.917,85.167C198.639,85.222 198.34,85.319 198.021,85.458C197.701,85.597 197.41,85.771 197.146,85.979C196.882,86.187 196.646,86.424 196.438,86.687C196.229,86.951 196.111,87.25 196.083,87.583C196.556,87.583 197.076,87.542 197.646,87.458C198.215,87.375 198.771,87.271 199.313,87.146C199.854,87.021 200.354,86.875 200.813,86.708C201.271,86.542 201.653,86.361 201.958,86.167C201.736,85.639 201.326,85.312 200.729,85.187C200.132,85.062 199.528,85.056 198.917,85.167Z" style="fill:rgb(228,228,228);fill-rule:nonzero;"/>
            <path d="M222.292,82.667C221.847,83.417 221.403,84.153 220.958,84.875C220.514,85.597 220.035,86.424 219.521,87.354C219.007,88.285 218.417,89.361 217.75,90.583C217.083,91.806 216.306,93.292 215.417,95.042C215.194,95.458 214.972,95.792 214.75,96.042C214.528,96.292 214.264,96.417 213.958,96.417C213.542,96.417 213.215,96.299 212.979,96.062C212.743,95.826 212.542,95.569 212.375,95.292C211.458,93.764 210.556,92.069 209.667,90.208C208.778,88.347 208.056,86.528 207.5,84.75C207.444,84.611 207.451,84.451 207.521,84.271C207.59,84.09 207.694,83.972 207.833,83.917C208.111,83.778 208.472,83.764 208.917,83.875C209.25,84.014 209.583,84.264 209.917,84.625C210.25,84.986 210.514,85.361 210.708,85.75C210.875,86.139 211.069,86.583 211.292,87.083C211.514,87.583 211.757,88.118 212.021,88.687C212.285,89.257 212.556,89.819 212.833,90.375C213.111,90.931 213.389,91.431 213.667,91.875C214.139,91.042 214.646,90.146 215.188,89.187C215.729,88.229 216.278,87.257 216.833,86.271C217.389,85.285 217.951,84.333 218.521,83.417C219.09,82.5 219.653,81.681 220.208,80.958C220.347,80.764 220.542,80.653 220.792,80.625C221.042,80.597 221.319,80.694 221.625,80.917C222.319,81.444 222.542,82.028 222.292,82.667Z" style="fill:rgb(228,228,228);fill-rule:nonzero;"/>
            <path d="M235.167,88C234.083,88.639 232.917,89.132 231.667,89.479C230.417,89.826 229.069,90 227.625,90C227.681,90.972 227.958,91.743 228.458,92.312C228.958,92.882 229.583,93.222 230.333,93.333C230.778,93.389 231.229,93.375 231.688,93.292C232.146,93.208 232.576,93.076 232.979,92.896C233.382,92.715 233.75,92.514 234.083,92.292C234.417,92.069 234.708,91.847 234.958,91.625C235.208,91.403 235.472,91.257 235.75,91.187C236.028,91.118 236.236,91.111 236.375,91.167C236.764,91.306 236.903,91.722 236.792,92.417C236.347,93.306 235.708,94.062 234.875,94.687C234.042,95.312 233.111,95.708 232.083,95.875C231.194,96.042 230.278,96 229.333,95.75C228.389,95.5 227.542,95.014 226.792,94.292C226.153,93.653 225.667,92.903 225.333,92.042C225,91.181 224.792,90.292 224.708,89.375C224.625,88.514 224.701,87.694 224.938,86.917C225.174,86.139 225.542,85.451 226.042,84.854C226.542,84.257 227.167,83.764 227.917,83.375C228.667,82.986 229.542,82.764 230.542,82.708C231.736,82.625 232.819,82.847 233.792,83.375C234.764,83.903 235.444,84.639 235.833,85.583C236.056,86.111 236.118,86.569 236.021,86.958C235.924,87.347 235.639,87.694 235.167,88ZM230.375,85.167C230.097,85.222 229.799,85.319 229.479,85.458C229.16,85.597 228.868,85.771 228.604,85.979C228.34,86.187 228.104,86.424 227.896,86.687C227.688,86.951 227.569,87.25 227.542,87.583C228.014,87.583 228.535,87.542 229.104,87.458C229.674,87.375 230.229,87.271 230.771,87.146C231.313,87.021 231.813,86.875 232.271,86.708C232.729,86.542 233.111,86.361 233.417,86.167C233.194,85.639 232.785,85.312 232.188,85.187C231.59,85.062 230.986,85.056 230.375,85.167Z" style="fill:rgb(228,228,228);fill-rule:nonzero;"/>
            <path d="M242.375,84.042C242.458,84.458 242.549,84.924 242.646,85.437C242.743,85.951 242.847,86.479 242.958,87.021C243.069,87.562 243.167,88.111 243.25,88.667C243.333,89.222 243.403,89.75 243.458,90.25C243.792,89.528 244.153,88.764 244.542,87.958C244.931,87.153 245.354,86.41 245.813,85.729C246.271,85.049 246.757,84.486 247.271,84.042C247.785,83.597 248.347,83.375 248.958,83.375C249.875,83.375 250.646,83.708 251.271,84.375C251.896,85.042 252.424,85.868 252.854,86.854C253.285,87.84 253.625,88.875 253.875,89.958C254.125,91.042 254.333,92 254.5,92.833C254.667,93.583 254.333,94.139 253.5,94.5C253.111,94.694 252.819,94.722 252.625,94.583C252.431,94.444 252.319,94.306 252.292,94.167C252.153,93.833 251.979,93.25 251.771,92.417C251.563,91.583 251.326,90.736 251.063,89.875C250.799,89.014 250.5,88.264 250.167,87.625C249.833,86.986 249.458,86.694 249.042,86.75C248.542,86.778 248.097,87.153 247.708,87.875C247.375,88.458 247.035,89.104 246.688,89.812C246.34,90.521 246,91.243 245.667,91.979C245.333,92.715 245.007,93.451 244.688,94.187C244.368,94.924 244.069,95.597 243.792,96.208C243.597,96.403 243.354,96.535 243.063,96.604C242.771,96.674 242.472,96.653 242.167,96.542C241.889,96.458 241.667,96.319 241.5,96.125C241.333,95.931 241.25,95.736 241.25,95.542C241,93.375 240.743,91.403 240.479,89.625C240.215,87.847 239.875,86.028 239.458,84.167C239.264,83.528 239.229,83.021 239.354,82.646C239.479,82.271 239.889,82.125 240.583,82.208C241.556,82.375 242.153,82.986 242.375,84.042Z" style="fill:rgb(228,228,228);fill-rule:nonzero;"/>
            <path d="M266.833,86.625C267.361,86.597 267.889,86.722 268.417,87C268.944,87.278 269.208,87.708 269.208,88.292C269.153,88.764 268.896,89.062 268.438,89.187C267.979,89.312 267.611,89.375 267.333,89.375C266.778,89.375 266.181,89.389 265.542,89.417C264.903,89.444 264.25,89.486 263.583,89.542C263.528,90.458 263.479,91.319 263.438,92.125C263.396,92.931 263.361,93.646 263.333,94.271C263.306,94.896 263.292,95.403 263.292,95.792C263.292,96.181 263.306,96.389 263.333,96.417C263.944,96.306 264.604,96.118 265.313,95.854C266.021,95.59 266.729,95.299 267.438,94.979C268.146,94.66 268.84,94.326 269.521,93.979C270.201,93.632 270.847,93.306 271.458,93C271.736,92.861 271.993,92.819 272.229,92.875C272.465,92.931 272.611,93.056 272.667,93.25C272.722,93.556 272.681,93.931 272.542,94.375C272.403,94.819 272.153,95.222 271.792,95.583C271.375,95.917 270.826,96.299 270.146,96.729C269.465,97.16 268.736,97.569 267.958,97.958C267.181,98.347 266.396,98.687 265.604,98.979C264.813,99.271 264.111,99.444 263.5,99.5C262.583,99.583 261.889,99.333 261.417,98.75C260.944,98.167 260.681,97.431 260.625,96.542C260.569,95.653 260.563,94.625 260.604,93.458C260.646,92.292 260.694,91.056 260.75,89.75C260.222,89.806 259.715,89.854 259.229,89.896C258.743,89.937 258.278,89.986 257.833,90.042C257.472,90.042 257.076,89.958 256.646,89.792C256.215,89.625 256,89.306 256,88.833C256,88.667 256.069,88.444 256.208,88.167C256.347,87.889 256.653,87.681 257.125,87.542C258.264,87.347 259.528,87.181 260.917,87.042C261,85.736 261.097,84.472 261.208,83.25C261.319,82.028 261.417,80.917 261.5,79.917C261.528,79.583 261.625,79.292 261.792,79.042C261.958,78.792 262.139,78.667 262.333,78.667C262.806,78.639 263.257,78.757 263.688,79.021C264.118,79.285 264.333,79.583 264.333,79.917C264.222,80.861 264.118,81.931 264.021,83.125C263.924,84.319 263.833,85.542 263.75,86.792C264.306,86.736 264.84,86.701 265.354,86.687C265.868,86.674 266.361,86.653 266.833,86.625Z" style="fill:rgb(228,228,228);fill-rule:nonzero;"/>
            <path d="M282.167,85.333C282.111,85.028 282.056,84.736 282,84.458C281.944,84.181 281.806,84 281.583,83.917C281.111,83.778 280.611,83.764 280.083,83.875C279.556,83.986 279.069,84.16 278.625,84.396C278.181,84.632 277.806,84.896 277.5,85.187C277.194,85.479 277.028,85.736 277,85.958C276.917,86.375 277.028,86.778 277.333,87.167C277.639,87.556 278.083,87.944 278.667,88.333C279.639,88.917 280.653,89.514 281.708,90.125C282.764,90.736 283.653,91.361 284.375,92C285.097,92.639 285.59,93.34 285.854,94.104C286.118,94.868 286.056,95.736 285.667,96.708C285.361,97.458 284.792,98.069 283.958,98.542C283.125,99.014 282.208,99.382 281.208,99.646C280.208,99.91 279.208,100.09 278.208,100.187C277.208,100.285 276.361,100.333 275.667,100.333C275.5,100.333 275.299,100.271 275.063,100.146C274.826,100.021 274.604,99.875 274.396,99.708C274.188,99.542 274.007,99.368 273.854,99.187C273.701,99.007 273.625,98.847 273.625,98.708C273.625,98.208 273.847,97.861 274.292,97.667C274.736,97.472 275.194,97.375 275.667,97.375C276.333,97.375 277.049,97.34 277.813,97.271C278.576,97.201 279.306,97.09 280,96.937C280.694,96.785 281.319,96.583 281.875,96.333C282.431,96.083 282.819,95.764 283.042,95.375C283.236,95.042 283.118,94.646 282.688,94.187C282.257,93.729 281.688,93.25 280.979,92.75C280.271,92.25 279.507,91.764 278.688,91.292C277.868,90.819 277.167,90.389 276.583,90C276,89.611 275.5,89.146 275.083,88.604C274.667,88.062 274.403,87.389 274.292,86.583C274.264,85.861 274.417,85.167 274.75,84.5C275.083,83.833 275.521,83.243 276.063,82.729C276.604,82.215 277.222,81.806 277.917,81.5C278.611,81.194 279.306,81.042 280,81.042C281.194,81.097 282.181,81.424 282.958,82.021C283.736,82.618 284.194,83.5 284.333,84.667C284.333,85.056 284.271,85.375 284.146,85.625C284.021,85.875 283.806,86.028 283.5,86.083C283.111,86.139 282.799,86.09 282.563,85.937C282.326,85.785 282.194,85.583 282.167,85.333Z" style="fill:rgb(228,228,228);fill-rule:nonzero;"/>
        </g>
        <g transform="matrix(0.907609,0,0,1,30.345109,0)">
            <g transform="matrix(0.238222,0.808845,-0.814249,0.381428,301.209828,-9.31555)">
                <path d="M0,30.406C-0.007,30.256 0.086,30.244 0.173,30.258C0.158,30.321 0.144,30.397 0.136,30.5L0.178,30.534C0.108,30.492 0.043,30.451 0,30.406M3.387,29.845C3.333,29.932 3.281,30.047 3.232,30.172C3.086,30.143 2.96,30.056 3,29.982C3.072,30.061 3.226,29.912 3.387,29.845M3.071,30.615L3.079,30.618C3.055,30.7 3.035,30.771 3.021,30.815C3.032,30.774 3.046,30.716 3.071,30.615M1.181,40.328C1.299,39.928 0.707,40 0.422,39.833C0.398,39.305 0.875,39.714 1.192,39.623C1.13,39.284 0.698,38.914 0.782,38.695C0.875,38.702 0.92,38.668 1.015,38.75C0.687,38.311 1.277,37.804 0.859,37.274C0.915,37.26 0.963,37.26 1.005,37.265C0.721,37.244 0.449,37.173 0.26,37.102C0.306,36.916 0.028,36.659 0.395,36.697C0.351,36.805 0.488,36.858 0.58,36.943L0.487,36.705C1.037,36.687 0.581,37.02 0.95,37.132C0.9,36.713 0.616,36.147 0.848,35.906C1.346,36.001 0.809,36.624 1.354,36.382L1.036,36.763C1.904,36.666 0.902,37.012 1.816,36.96C2.126,36.431 1.761,36.239 2.097,35.719C1.872,35.503 1.685,35.631 1.459,35.414C1.254,34.436 2.889,35.189 2.448,34.376C2.181,34.112 1.591,33.834 2.061,33.525L2.552,33.863C2.805,33.337 1.89,33.268 2.47,32.828C2.643,33.01 2.486,33.323 2.582,33.265C3.148,33.053 2.374,32.89 2.483,32.604L2.982,32.725C3.134,32.121 3.011,31.339 3.201,30.669C3.327,30.761 3.429,30.93 3.636,30.841C3.743,29.948 4.394,29.15 5.024,28.524L4.757,28.053C4.792,27.988 4.996,28.011 5.04,28.119C5.328,27.894 4.792,27.988 4.701,27.774C4.751,27.593 5.033,27.657 5.104,27.819C5.005,27.146 5.06,25.98 5.769,25.653L5.833,25.816C6.205,25.476 5.267,24.936 5.833,24.727L5.864,24.838C6.481,24.003 6.691,22.819 7.647,22.455C7.167,22.013 8.378,21.707 7.654,21.214C8.334,20.93 8.385,21.154 9.059,20.6C9.206,20.434 8.753,20.035 8.814,19.752L9.212,19.988L8.989,19.416L9.56,19.539L9.598,19.263C9.52,19.334 9.304,19.334 9.199,19.251C9.24,18.803 10,18.606 10.204,18.727L10.387,17.724C10.531,17.844 10.499,18.011 10.53,18.181C10.408,17.501 10.986,18.372 10.874,17.749C10.753,17.743 10.663,17.569 10.591,17.509C10.943,17.467 11.243,17.043 11.368,16.66L11.588,16.902C12.056,16.383 12.292,15.607 12.762,14.983C12.474,15.119 12.065,14.743 12.162,14.527L12.611,14.742C12.458,14.445 12.317,14.825 12.204,14.363C12.427,14.16 12.769,14.535 12.796,14.763L12.874,14.378C13.004,14.449 13.016,14.561 13.152,14.689C12.997,14.391 13.911,14.496 13.616,14.012L13.744,14.084C14.211,13.464 14.293,13.079 14.679,12.575C14.357,12.302 14.587,12.167 14.442,11.804C14.845,11.524 15.424,11.329 15.756,10.872C15.854,10.435 15.559,10.553 15.484,10.255C15.796,10.481 16.135,10.028 16.154,10.43C16.551,9.879 16.659,9.727 17.001,8.881C16.822,8.844 16.701,8.877 16.64,8.749C16.698,8.59 16.998,8.592 17.119,8.733L17.121,8.79C17.352,7.676 19.446,7.939 19.404,6.845L19.402,6.903L19.669,6.048C19.976,5.839 19.716,6.407 20.075,6.387C20.24,5.333 21.106,5.523 21.331,4.737C22.485,5.208 22.715,3.394 23.748,3.479L23.544,3.301C23.522,2.98 23.818,3.274 23.963,3.234C23.816,3.086 23.653,3.178 23.651,2.992C24.685,1.715 26.487,1.264 27.953,0.566C28.485,0.299 27.47,-0.774 28.453,-0.658L28.543,-0.125C29.24,-1.279 30.637,-1.418 31.422,-2.432C31.417,-2.297 31.488,-2.167 31.387,-2.112C31.782,-1.921 32.199,-2.554 32.065,-2.811C32.245,-2.869 32.231,-2.598 32.403,-2.521C32.725,-2.453 32.742,-3.225 33.029,-2.973C33.077,-2.932 33.022,-2.837 32.995,-2.79C33.056,-3.024 33.689,-3.11 33.358,-3.404C33.847,-3.432 34.037,-3.96 34.467,-3.904C34.469,-4.424 35.255,-4.042 35.033,-4.664C35.303,-4.041 35.977,-4.518 36.102,-4.925C36.103,-4.698 36.416,-4.837 36.436,-4.532C36.725,-4.678 36.94,-4.918 36.743,-5.211C37.621,-4.723 37.575,-6.303 38.306,-5.492C39.042,-6.214 39.775,-6.793 40.524,-7.273C40.753,-6.635 39.657,-6.839 39.967,-6.198C40.619,-6.774 40.844,-7.494 41.672,-7.648C41.904,-7.642 41.668,-7.331 41.645,-7.197C42.31,-7.766 43.157,-7.727 43.715,-8.335C43.736,-8.276 43.686,-8.183 43.634,-8.108C43.762,-8.181 43.986,-8.135 43.861,-8.417L43.758,-8.289C43.38,-8.623 43.97,-9.366 43.912,-9.596C43.991,-8.683 44.677,-9.649 44.699,-8.466C44.768,-8.555 44.83,-8.733 44.737,-8.918C44.892,-8.911 44.977,-8.814 44.923,-8.545C45.354,-8.883 45.067,-9.125 45.515,-9.283C45.564,-9.143 45.495,-9.056 45.509,-8.874C45.634,-9.229 45.76,-9.588 46.181,-9.605C46.189,-9.513 46.273,-9.419 46.16,-9.381C46.792,-9.655 47.003,-10.508 47.812,-10.497C47.817,-9.814 48.126,-10.382 48.35,-9.866L48.678,-10.158L48.434,-10.361C48.773,-10.469 48.937,-10.959 49.287,-10.886L49.112,-10.581L49.708,-10.9L49.282,-10.978C49.529,-11.37 49.013,-11.636 49.515,-11.642C49.442,-11.557 49.856,-11.751 50.139,-11.499L50.138,-11.497C50.248,-11.722 50.36,-11.959 50.655,-11.912C50.777,-11.765 50.801,-11.308 50.881,-11.209C50.896,-11.71 51.631,-11.599 51.684,-12.14C51.65,-12.006 51.74,-11.726 51.781,-11.677L51.801,-12.083C51.996,-12.02 52.038,-11.971 52.085,-11.74C52.579,-11.83 51.713,-12.365 52.37,-12.26C52.335,-12.216 52.374,-12.169 52.3,-12.084C52.912,-12.119 53.314,-12.67 53.892,-12.657C54.216,-12.169 53.481,-12.381 53.801,-11.984C54.515,-12.322 55.145,-13.122 55.911,-13.218L55.758,-13.236C55.624,-14.027 56.414,-13.029 56.671,-13.5C56.598,-13.416 56.682,-13.041 56.681,-13.134C57.215,-13.161 57.641,-13.626 58.326,-14.094L58.291,-13.869C58.636,-13.783 59.095,-13.995 59.439,-13.999C59.477,-14.222 59.668,-14.243 59.475,-14.496C60.774,-13.665 61.182,-15.63 62.317,-14.941C62.213,-14.91 62.115,-14.701 62.199,-14.722L62.893,-15.106C62.743,-15.425 62.741,-15.282 62.513,-15.5C62.553,-15.724 62.722,-15.935 62.908,-15.985C62.631,-15.673 63.056,-15.449 63.251,-15.302C63.199,-15.397 63.218,-15.524 63.178,-15.625C63.728,-15.135 63.062,-16.316 63.703,-16.059L63.722,-15.876C63.897,-16.02 64.02,-16.3 64.249,-16.306C64.44,-15.942 64.083,-16.07 64.155,-15.747C64.45,-15.848 64.559,-16.638 64.934,-16.323C64.833,-16.181 64.649,-16.131 64.549,-15.99C64.966,-15.613 64.97,-15.738 65.21,-15.723L65.186,-15.728L65.75,-15.655L65.588,-15.744C65.706,-16.857 66.311,-16.125 66.654,-16.919C66.315,-16.165 66.664,-16.534 66.737,-16.084C66.898,-15.995 67.13,-15.907 67.104,-15.769C67.257,-16.185 67.575,-15.592 67.787,-16.195C67.837,-16.057 68.048,-16.244 68.082,-15.874C68.368,-16.062 67.947,-16.103 67.929,-16.288C68.296,-16.89 69.208,-15.977 69.745,-16.808C70.282,-17.222 70.281,-17.729 70.787,-18.099C71.029,-17.915 70.752,-17.544 70.752,-17.544C71.105,-17.406 71.325,-17.497 71.576,-17.724C71.545,-17.587 71.629,-17.495 71.753,-17.354C71.975,-17.443 71.791,-17.908 72.142,-17.766C72.125,-17.595 72.116,-17.325 72.041,-17.141C72.282,-17.333 72.491,-17.66 72.744,-17.852C72.874,-17.619 72.658,-17.436 72.595,-17.252C72.886,-17.435 73.363,-17.659 73.376,-18.073L73.142,-18.171C73.253,-18.215 73.275,-17.845 73.206,-17.755C73.002,-17.386 72.785,-17.804 72.738,-17.945L72.918,-18.081C72.527,-18.872 72.141,-17.766 71.728,-17.724L71.759,-18.371L71.458,-17.773C71.334,-17.911 71.196,-18.238 71.375,-18.374C71.017,-18.609 71.168,-18.1 70.842,-18.377C70.803,-18.423 70.808,-18.455 70.828,-18.485L70.586,-18.238C70.613,-18.379 70.44,-18.657 70.635,-18.609C70.044,-18.841 69.92,-17.962 69.621,-18.378L69.655,-18.425C68.997,-18.055 69.691,-17.963 69.287,-17.316L68.669,-18.329L68.707,-17.867C68.63,-17.865 68.479,-17.864 68.462,-18.048C68.265,-17.678 68.555,-17.866 68.467,-17.54C68.02,-17.861 67.551,-17.117 67.297,-17.806C67.256,-17.438 67.696,-17.627 67.381,-17.301C67.086,-18.036 66.983,-17.062 66.578,-17.331C66.577,-17.748 66.932,-17.617 66.524,-17.887C66.499,-17.175 65.866,-17.876 65.628,-17.68C65.75,-17.151 65.099,-17.311 64.694,-17.016C64.677,-17.2 63.771,-17.086 63.3,-17.163L63.289,-17.255C63.35,-16.7 62.892,-16.684 62.608,-16.489C62.534,-16.81 62.556,-16.951 62.688,-17.139L62.393,-17.057C62.369,-16.867 62.302,-16.753 62.126,-16.64L62.092,-17.057C61.703,-16.93 61.429,-16.373 60.85,-16.495C60.926,-16.117 61.538,-15.578 61.076,-15.181C61,-15.376 60.884,-15.712 61.001,-15.833C60.963,-15.794 60.885,-15.621 60.769,-15.681L60.887,-16.077C60.616,-16.16 60.846,-15.762 60.654,-15.742C60.577,-16.029 60.46,-15.907 60.423,-16.141C60.462,-16.182 60.617,-16.068 60.655,-16.2C60.434,-16.193 60.135,-16.292 59.991,-16.484C60.055,-16.327 60.1,-16.1 59.958,-16.021C59.573,-15.888 59.727,-16.325 59.456,-16.405C59.417,-16.18 59.108,-16.312 59.225,-15.885C59.11,-15.853 59.031,-16.046 58.953,-16.148C58.805,-15.902 58.021,-15.819 58.383,-15.433L58.443,-15.419C58.436,-15.407 58.425,-15.404 58.416,-15.391L58.417,-15.391L58.416,-15.391C57.878,-14.776 56.969,-15.22 56.366,-14.843L56.324,-14.985C55.981,-14.704 55.482,-14.62 55.298,-14.229C55.183,-14.194 54.945,-14.404 54.942,-14.587C54.676,-14.387 54.692,-14.22 54.188,-14.317C54.41,-14.658 54.015,-14.503 54.438,-14.594C54.012,-14.594 53.852,-14.791 53.558,-14.272C53.585,-14.679 53.121,-14.634 52.971,-14.467L53.326,-14.295C53.135,-14.176 52.944,-14.15 52.75,-14.122L52.696,-14.629C51.71,-14.951 51.588,-13.178 50.666,-13.946C50.566,-13.545 51.174,-13.854 51.115,-13.405C50.73,-13.35 50.124,-13.9 50.009,-13.863C49.421,-13.955 49.778,-13.014 49.197,-13.016C49.321,-12.871 49.537,-12.442 49.205,-12.152C48.821,-12.091 48.516,-12.703 48.698,-12.919C48.78,-12.963 48.84,-12.924 48.856,-12.865C48.953,-12.967 49.082,-13.091 48.875,-13.225L48.886,-13.04C48.646,-13.152 48.154,-12.957 48.175,-13.275C47.957,-13.018 48.154,-12.958 48.387,-12.942C47.837,-13.022 47.658,-12.695 47.122,-12.691C47.23,-12.625 47.37,-12.452 47.294,-12.427C46.519,-12.389 47.098,-12 46.651,-11.758C46.291,-11.916 46.529,-12.402 46.129,-12.016C45.775,-12.084 45.907,-12.438 45.974,-12.617C45.655,-12.137 45.083,-12.536 44.812,-12.505L44.992,-12.723C44.884,-12.594 44.771,-12.554 44.656,-12.513L44.909,-12.227C44.753,-12.235 44.639,-12.195 44.59,-12.335C44.532,-12.065 44.9,-11.818 44.736,-11.417C44.494,-11.521 44.259,-11.034 44.033,-11.454C44.652,-11.512 43.805,-11.876 44.256,-12.124C44.184,-12.037 44.071,-11.998 43.914,-12.007C43.875,-12.049 43.899,-12.105 43.926,-12.144C43.238,-12.34 43.864,-11.553 43.302,-11.352C43.28,-11.629 42.995,-11.776 42.923,-11.688C43.151,-11.768 43.188,-11.313 43.054,-11.045C42.624,-11.103 42.721,-10.754 42.525,-10.705L42.774,-10.695C42.796,-10.419 42.605,-10.386 42.388,-10.21C42.292,-10.395 42.562,-10.43 42.441,-10.482C42.335,-9.938 41.644,-10.691 41.374,-10.247C41.129,-10.346 41.173,-10.706 40.971,-10.759C40.667,-10.267 40.369,-10.91 40.021,-10.464C40.286,-10.184 40.275,-10.275 40.088,-9.823L40.737,-10.355L40.454,-9.681C40.679,-9.766 40.842,-10.08 40.999,-10.077C40.88,-9.715 40.871,-9.807 41.087,-9.573C40.583,-9.949 40.599,-9.04 40.111,-9.235L39.788,-10.06C39.104,-10.207 39.016,-9.25 38.242,-9.167L38.523,-9.119C38.568,-8.758 38.119,-8.892 37.954,-8.666C37.857,-8.947 37.676,-8.986 37.507,-9.114C37.606,-8.917 36.995,-8.914 37.171,-8.346L36.709,-8.567C36.091,-8.463 36.426,-7.517 35.86,-7.369C35.884,-7.734 35.556,-7.816 35.815,-8.186C35.636,-8.111 35.456,-8.083 35.539,-7.896C35.358,-8.016 35.22,-7.306 34.94,-7.486C34.921,-7.333 35.03,-7.042 34.823,-6.972C34.776,-7.016 34.761,-7.105 34.761,-7.105C34.823,-6.972 34.54,-6.781 34.853,-6.566C33.916,-7.137 33.394,-5.782 32.578,-6.247C32.245,-5.967 31.837,-5.649 31.511,-5.446C31.491,-5.535 31.443,-5.576 31.521,-5.583C30.923,-5.574 31.638,-4.681 30.965,-4.668C30.464,-4.94 31.12,-5.047 30.865,-5.114C30.318,-5.931 30.294,-4.641 29.661,-4.937L29.718,-5.036C29.28,-5.171 29.239,-4.34 28.771,-4.137C28.771,-4.137 28.748,-4.224 28.698,-4.265C28.651,-3.662 28.178,-3.185 27.844,-2.805C27.769,-3.209 27.924,-3.094 27.64,-3.373C27.484,-3.21 28.023,-2.88 27.715,-2.557C27.484,-2.659 27.12,-2.646 26.86,-2.969L27.198,-3.209C26.729,-3.548 26.754,-2.907 26.524,-2.863L26.419,-3.073C25.93,-2.654 26.248,-2.167 25.666,-1.818L25.823,-1.712C25.854,-1.02 25.382,-1.803 25.329,-1.235L24.895,-1.654C24.773,-1.398 24.529,-0.691 24.248,-0.341C24.185,-0.838 24.464,-1.331 24.577,-1.724C24.372,-1.59 23.928,-1.198 24,-0.889C24.045,-0.993 24.059,-1.184 24.191,-1.168C24.225,-0.615 24.05,-0.203 23.665,0.083C23.029,-0.881 22.495,0.626 21.664,0.162C21.263,1.034 20.229,1.126 19.516,1.853C20.376,2.278 19.315,2.07 19.976,2.709C19.844,2.907 19.768,2.956 19.713,2.926L18.823,3.004C18.518,2.924 18.848,2.703 18.692,2.568C18.268,2.869 18.269,2.431 17.851,2.489C18.127,2.68 18.042,2.952 17.745,3.068L18.335,3.087C18.158,3.935 17.35,2.962 17.169,3.82L17.13,3.451C16.983,3.834 16.147,4.426 16.427,5.2C16.305,5.174 16.063,5.062 16.13,4.899C15.429,5.468 15.349,6.866 14.56,7.074L14.438,6.875C14.375,7.042 14.56,7.368 14.254,7.373C14.192,7.304 14.131,7.175 14.07,7.224C14.07,7.342 14.077,7.813 13.834,7.891L13.768,7.585C12.976,8.047 13.367,8.988 13.038,9.642C12.531,9.219 11.937,9.612 11.639,9.809L11.573,9.741C10.863,10.469 10.94,11.425 10.593,12.319C9.66,12.342 9.19,13.708 8.338,14.246C8.519,14.198 8.748,14.558 8.708,14.73C8.474,14.833 8.744,15.479 8.263,15.111L8.317,15.054C7.729,14.852 7.606,15.314 7.407,15.601L8.036,16.087C6.576,16.228 7.093,18.307 5.977,18.198C6.033,18.491 5.891,18.724 5.949,19.012L5.59,18.785C5.188,19.257 4.97,19.487 4.689,20.198L4.5,19.913C4.269,20.276 5.306,20.988 5.141,21.34L4.529,21.135C4.186,21.789 3.313,22.184 3.502,23.111C3.425,23.057 3.272,22.953 3.304,22.834C3.131,23.137 2.308,23.853 3.144,24.128C2.635,23.883 2.743,24.786 2.799,25.253L2.449,25.015C2.788,25.553 2.916,25.625 2.853,26.113C2.757,26.191 2.509,26.06 2.668,25.971C2.314,26.215 2.906,26.4 2.516,26.713L2.344,26.449C2.154,26.782 2.297,26.815 2.493,27.134C2.546,27.419 2.094,27.743 1.726,27.643C1.917,27.784 2.118,28.099 1.932,28.261C1.789,28.233 1.739,28.122 1.715,28.067C1.206,28.544 1.796,29.129 1.248,29.374C1.117,29.329 1.042,29.329 0.989,29.347C1.194,28.883 1.374,28.515 1.387,28.562C1.033,28.41 0.811,28.765 0.448,28.255C0.585,28.677 0.951,29.437 0.628,29.737C0.586,29.741 0.545,29.745 0.484,29.736L0.46,29.681C0.389,29.752 0.39,29.843 0.42,29.938C0.31,30.032 0.24,30.092 0.19,30.205C-0.123,30.132 -0.138,30.584 -0.225,30.771C0.174,30.907 0.016,31.133 0.43,31.024C0.39,31.044 0.396,30.97 0.428,30.837C0.428,30.803 0.435,30.767 0.418,30.739L0.448,30.766C0.489,30.637 0.542,30.47 0.602,30.281C0.744,30.511 0.852,30.733 0.554,30.859C0.77,31.055 0.989,31.262 1.088,31.37C0.441,31.416 -0.048,31.809 -0.415,31.754C-0.424,32.418 -0.777,33.197 -0.15,33.826C-0.111,34.026 -0.43,33.944 -0.569,33.967C-0.612,33.844 -0.561,33.733 -0.651,33.643C-0.573,34.045 -0.914,34.664 -0.416,34.917C-0.796,35.26 -0.819,34.521 -0.93,35.129L-1.064,34.998C-2.281,35.893 -0.291,37.28 -1.755,38.235C-1.665,38.164 -1.622,38.128 -1.528,38.135C-2.406,39.48 -1.872,41.267 -2.953,42.558C-3.204,42.942 -2.868,43.061 -2.662,43.368L-3.125,43.367L-2.695,43.908C-2.435,44.594 -3.989,44.775 -3.424,45.694L-3.105,45.645C-3.221,45.915 -3.083,46.567 -3.419,46.463C-3.368,46.501 -3.12,46.607 -3.293,46.692L-3.528,46.663L-3.231,47.421C-3.482,47.935 -4.149,47.196 -4.314,47.983C-4.268,48.293 -3.756,48.915 -3.582,48.824C-3.553,48.708 -3.391,48.543 -3.154,48.566L-3.072,48.848C-2.387,48.99 -1.707,49.278 -1.128,48.709L-1.484,48.205L-1.127,48.111L-1.163,48.487C-0.815,48.32 -1.074,48.147 -1.243,47.968C-1.06,47.959 -0.925,47.915 -0.846,47.838L-1.44,47.301C-1.162,47.291 -0.934,47.579 -0.741,47.312C-1.016,47.059 -1.375,47.412 -1.526,47.041C-1.18,46.878 -0.935,46.983 -1.165,46.69C-0.982,46.684 -0.876,46.756 -0.813,46.866C-0.998,46.61 -0.808,46.268 -1.15,46.091C-0.723,45.938 -1.111,45.326 -0.465,45.467C-0.607,45.37 -0.902,44.985 -0.891,44.776C-0.183,45.296 -0.703,44.026 0.11,44.291C-0.545,43.875 0.015,43.251 -0.267,42.684C-0.218,42.724 -0.118,42.802 -0.163,42.836C-0.044,42.578 0.183,42.547 0.353,42.404C-0.212,42.239 -0.249,41.786 -0.55,41.472C0.077,41.271 0.076,41.835 0.629,41.856C0.161,41.763 0.297,41.171 -0.112,41.189C0.295,41.021 0.111,41.012 0.617,41.001C-0.084,40.779 0.558,40.738 0.175,40.417C0.622,40.143 0.867,40.496 0.755,40.041C1.022,39.909 1.181,40.328 1.181,40.328" style="fill:rgb(255,76,148);fill-rule:nonzero;"/>
            </g>
            <g transform="matrix(0.252871,0.853511,-0.676768,0.31891,319.262292,43.253075)">
                <path d="M0,-27.641C0.075,-27.668 0.05,-27.587 0.013,-27.509C-0.012,-27.514 -0.044,-27.516 -0.092,-27.509L-0.122,-27.467C-0.078,-27.535 -0.036,-27.598 0,-27.641M-0.863,-24.766C-0.888,-24.799 -0.928,-24.826 -0.973,-24.849C-0.909,-24.98 -0.824,-25.104 -0.8,-25.081C-0.864,-25.006 -0.842,-24.895 -0.863,-24.766M-1.138,-24.917L-1.142,-24.91C-1.174,-24.918 -1.203,-24.924 -1.22,-24.928C-1.203,-24.926 -1.18,-24.923 -1.138,-24.917M-4.929,-25.456C-4.802,-25.389 -4.643,-25.923 -4.483,-26.201C-4.252,-26.269 -4.577,-25.794 -4.64,-25.512C-4.478,-25.597 -4.183,-26.019 -4.115,-25.962C-4.148,-25.877 -4.147,-25.84 -4.214,-25.745C-3.915,-26.09 -3.883,-25.61 -3.51,-26.045C-3.522,-25.996 -3.538,-25.953 -3.554,-25.914C-3.452,-26.173 -3.33,-26.427 -3.236,-26.605C-3.168,-26.582 -2.96,-26.861 -3.099,-26.524C-3.133,-26.554 -3.202,-26.424 -3.271,-26.332L-3.133,-26.439C-3.308,-25.943 -3.305,-26.325 -3.477,-25.978C-3.274,-26.067 -2.928,-26.37 -2.895,-26.188C-3.107,-25.724 -3.203,-26.155 -3.278,-25.683L-3.341,-25.936C-3.588,-25.159 -3.407,-26.034 -3.689,-25.211C-3.561,-24.978 -3.352,-25.328 -3.224,-25.094C-3.049,-25.322 -3.045,-25.474 -2.87,-25.702C-2.348,-26.003 -3.247,-24.454 -2.724,-24.947C-2.511,-25.217 -2.183,-25.772 -2.198,-25.391L-2.522,-24.912C-2.36,-24.757 -2.017,-25.578 -2.002,-25.128C-2.147,-24.949 -2.245,-25.043 -2.249,-24.968C-2.338,-24.497 -2,-25.203 -1.899,-25.148L-2.126,-24.69C-1.885,-24.648 -1.479,-24.848 -1.208,-24.795C-1.296,-24.671 -1.414,-24.555 -1.439,-24.389C-1.03,-24.446 -0.867,-23.987 -0.753,-23.567L-0.425,-23.883C-0.403,-23.864 -0.482,-23.685 -0.552,-23.628C-0.533,-23.421 -0.403,-23.864 -0.264,-23.982C-0.188,-23.972 -0.315,-23.717 -0.421,-23.627C-0.044,-23.835 0.527,-23.993 0.477,-23.473L0.37,-23.384C0.428,-23.14 1.016,-24.045 0.941,-23.608L0.873,-23.559C1.1,-23.19 1.683,-23.304 1.575,-22.582C1.964,-23.085 1.744,-22.136 2.245,-22.865C2.193,-22.376 2.054,-22.279 2.154,-21.862C2.201,-21.783 2.561,-22.257 2.698,-22.277L2.446,-21.89L2.83,-22.217L2.587,-21.714L2.733,-21.76C2.716,-21.804 2.779,-21.978 2.858,-22.086C3.1,-22.176 2.986,-21.613 2.857,-21.414L3.373,-21.541C3.262,-21.391 3.177,-21.371 3.071,-21.299C3.493,-21.585 2.828,-20.876 3.214,-21.138C3.253,-21.238 3.379,-21.359 3.435,-21.434C3.352,-21.155 3.512,-21.04 3.699,-21.055L3.496,-20.808C3.667,-20.592 4.042,-20.62 4.282,-20.446C4.28,-20.629 4.615,-21.069 4.717,-21.062L4.466,-20.641C4.686,-20.856 4.498,-20.846 4.804,-21.081C4.862,-20.971 4.546,-20.583 4.404,-20.489L4.611,-20.551C4.533,-20.427 4.463,-20.382 4.35,-20.234C4.57,-20.451 4.257,-19.7 4.625,-20.085L4.547,-19.961C4.785,-19.788 4.994,-19.849 5.202,-19.728C5.452,-20.068 5.474,-19.937 5.731,-20.171C5.797,-19.957 5.76,-19.574 5.953,-19.478C6.199,-19.558 6.2,-19.74 6.404,-19.901C6.192,-19.58 6.314,-19.526 6.091,-19.352C6.256,-19.302 6.287,-19.295 6.664,-19.357C6.762,-19.484 6.79,-19.555 6.894,-19.635C6.971,-19.643 6.847,-19.448 6.706,-19.328L6.669,-19.309C6.972,-19.412 6.863,-19.098 6.725,-18.854C6.595,-18.604 6.437,-18.418 6.836,-18.533L6.797,-18.523C6.945,-18.533 7.099,-18.536 7.257,-18.53C7.232,-18.418 6.972,-18.462 6.781,-18.305C7.449,-18.355 6.804,-17.995 7.248,-17.955C6.717,-17.758 6.745,-17.684 6.835,-17.587C6.915,-17.495 7.048,-17.37 6.684,-17.294L6.95,-17.305C7.212,-17.262 6.802,-17.254 6.737,-17.23C6.946,-17.227 6.978,-17.269 7.124,-17.241C7.276,-17.048 7.156,-16.837 6.949,-16.694C6.717,-16.462 6.401,-16.208 6.211,-15.958C6.086,-15.767 7.513,-15.468 6.823,-15.369L6.369,-15.58C6.808,-14.984 6.088,-14.708 6.436,-14.134C6.335,-14.194 6.194,-14.24 6.209,-14.281C5.837,-14.301 6.083,-13.956 6.362,-13.863C6.309,-13.808 6.104,-13.93 5.949,-13.936C5.718,-13.913 6.311,-13.567 5.955,-13.632C5.897,-13.642 5.853,-13.694 5.832,-13.719C5.978,-13.606 5.7,-13.462 6.112,-13.385C5.871,-13.289 6.188,-13.02 5.909,-12.973C6.318,-12.737 5.601,-12.774 6.211,-12.53C5.575,-12.766 5.596,-12.433 5.86,-12.224C5.679,-12.328 5.629,-12.209 5.375,-12.344C5.344,-12.227 5.425,-12.079 5.76,-11.98C4.924,-12.047 6.216,-11.327 5.196,-11.568C5.409,-11.1 5.522,-10.695 5.553,-10.329C4.927,-10.582 5.619,-10.694 4.95,-10.933C5.103,-10.543 5.577,-10.165 5.312,-9.933C5.196,-9.891 5.055,-10.081 4.957,-10.149C5.103,-9.755 4.679,-9.606 4.921,-9.211C4.863,-9.235 4.81,-9.288 4.772,-9.334C4.773,-9.274 4.632,-9.251 4.921,-9.144L4.863,-9.224C5.311,-9.143 5.649,-8.678 5.865,-8.581C5.08,-8.993 5.556,-8.405 4.576,-8.954C4.616,-8.898 4.735,-8.802 4.929,-8.734C4.853,-8.706 4.735,-8.734 4.538,-8.871C4.62,-8.626 4.95,-8.571 4.877,-8.406C4.739,-8.462 4.699,-8.516 4.543,-8.599C4.78,-8.407 5.016,-8.214 4.842,-8.12C4.762,-8.161 4.647,-8.188 4.666,-8.229C4.612,-7.971 5.219,-7.529 4.852,-7.366C4.283,-7.685 4.618,-7.354 4.092,-7.548L4.189,-7.343L4.465,-7.299C4.406,-7.177 4.74,-6.914 4.526,-6.874L4.35,-7.054L4.354,-6.779L4.604,-6.833C4.821,-6.599 5.268,-6.583 5.056,-6.474C5.016,-6.529 4.999,-6.35 4.666,-6.408L4.665,-6.409C4.806,-6.28 4.955,-6.146 4.788,-6.104C4.612,-6.147 4.221,-6.354 4.104,-6.383C4.514,-6.147 4.106,-6.039 4.539,-5.776C4.44,-5.846 4.167,-5.955 4.109,-5.969L4.441,-5.777C4.305,-5.764 4.247,-5.777 4.033,-5.873C3.898,-5.723 4.715,-5.666 4.348,-5.571C4.326,-5.599 4.27,-5.611 4.229,-5.667C3.998,-5.516 4.292,-5.174 4.042,-5.049C3.496,-5.199 3.98,-5.269 3.513,-5.378C3.498,-5.06 3.915,-4.552 3.686,-4.33L3.763,-4.358C4.49,-4.033 3.318,-4.299 3.614,-4.027C3.572,-4.081 3.219,-4.23 3.298,-4.189C3.107,-4.049 3.336,-3.736 3.463,-3.366L3.285,-3.474C3.073,-3.428 3.077,-3.221 2.945,-3.134C3.123,-3.028 3.066,-2.972 3.36,-2.909C2.129,-2.943 3.693,-1.995 2.663,-1.996C2.674,-2.036 2.527,-2.149 2.515,-2.118L2.593,-1.775C2.928,-1.683 2.804,-1.743 3.08,-1.712C3.261,-1.609 3.383,-1.478 3.359,-1.41C3.187,-1.61 2.833,-1.592 2.631,-1.6C2.734,-1.575 2.839,-1.518 2.942,-1.487C2.311,-1.541 3.594,-1.236 3.135,-1.171L2.966,-1.241C3.029,-1.136 3.234,-0.99 3.158,-0.927C2.767,-1.02 3.007,-1.065 2.696,-1.176C2.68,-1.053 3.343,-0.712 2.929,-0.735C2.839,-0.818 2.86,-0.888 2.771,-0.971C2.287,-1.007 2.396,-0.956 2.297,-0.895L2.31,-0.9L2.043,-0.771L2.181,-0.782C3.129,-0.319 2.264,-0.432 2.861,-0.033C2.298,-0.413 2.513,-0.176 2.083,-0.325C1.948,-0.312 1.79,-0.276 1.674,-0.336C1.997,-0.135 1.351,-0.262 1.824,0.025C1.682,-0.012 1.781,0.12 1.435,-0.005C1.509,0.15 1.687,0.038 1.86,0.101C2.288,0.426 1.141,0.372 1.732,0.833C1.943,1.142 2.41,1.309 2.594,1.58C2.349,1.595 2.093,1.391 2.093,1.391C1.854,1.455 1.87,1.554 2.004,1.704C1.886,1.651 1.775,1.649 1.606,1.645C1.621,1.744 2.109,1.828 1.87,1.895C1.716,1.838 1.468,1.753 1.32,1.671C1.422,1.809 1.669,1.978 1.774,2.116C1.52,2.091 1.411,1.965 1.257,1.889C1.342,2.042 1.415,2.267 1.802,2.387L1.959,2.338C1.969,2.386 1.615,2.289 1.55,2.24C1.263,2.066 1.719,2.115 1.863,2.141L1.939,2.239C2.794,2.344 1.864,1.899 1.958,1.752L2.548,1.96L2.085,1.682C2.251,1.687 2.596,1.748 2.667,1.844C2.994,1.809 2.477,1.695 2.834,1.685C2.889,1.688 2.917,1.7 2.938,1.715L2.785,1.565C2.906,1.617 3.216,1.656 3.112,1.698C3.508,1.602 2.737,1.277 3.212,1.328L3.245,1.353C3.108,1.038 2.809,1.21 2.342,0.868L3.468,1.041L3.035,0.891C3.059,0.869 3.107,0.825 3.281,0.885C3.009,0.699 3.084,0.847 2.817,0.708C3.256,0.695 2.737,0.294 3.445,0.474C3.125,0.327 3.15,0.521 2.959,0.313C3.723,0.5 2.879,0.114 3.258,0.101C3.634,0.256 3.397,0.303 3.777,0.293C3.145,0.02 3.985,0.111 3.895,-0.024C3.377,-0.195 3.749,-0.307 3.631,-0.527C3.801,-0.46 4.018,-0.744 4.254,-0.831L4.34,-0.797C3.829,-1.004 3.977,-1.129 3.912,-1.281C4.222,-1.168 4.337,-1.104 4.455,-0.995L4.49,-1.102C4.333,-1.185 4.257,-1.25 4.222,-1.34L4.601,-1.177C4.63,-1.326 4.247,-1.625 4.571,-1.716C4.214,-1.857 3.512,-1.93 3.341,-2.214C3.539,-2.151 3.875,-2.037 3.938,-1.957C3.917,-1.983 3.796,-2.076 3.892,-2.079L4.193,-1.883C4.367,-1.914 3.934,-2.026 3.989,-2.082C4.267,-1.98 4.205,-2.06 4.423,-1.97C4.443,-1.943 4.287,-1.954 4.387,-1.888C4.464,-1.946 4.662,-1.976 4.883,-1.93C4.722,-1.981 4.508,-2.066 4.492,-2.135C4.522,-2.285 4.844,-2.061 5.016,-2.091C4.836,-2.197 5.07,-2.213 4.656,-2.37C4.674,-2.41 4.871,-2.346 4.989,-2.32C4.833,-2.462 5.066,-2.683 4.594,-2.766L4.558,-2.757C4.552,-2.765 4.55,-2.768 4.544,-2.776C4.224,-3.174 4.969,-3.19 4.882,-3.497L5.021,-3.444C4.918,-3.648 5.051,-3.798 4.794,-4.016C4.812,-4.058 5.086,-4.017 5.243,-3.935C5.182,-4.085 5.032,-4.158 5.321,-4.226C5.519,-4.022 5.549,-4.181 5.454,-4.045C5.628,-4.141 5.861,-4.085 5.544,-4.386C5.877,-4.195 6.03,-4.317 5.951,-4.426L5.66,-4.427C5.638,-4.522 5.695,-4.577 5.752,-4.632L6.202,-4.412C6.881,-4.477 5.45,-5.317 6.482,-5.162C6.189,-5.368 6.191,-5.095 5.839,-5.315C5.956,-5.424 6.676,-5.297 6.694,-5.338C7.023,-5.418 6.085,-5.779 6.337,-5.901C6.163,-5.942 5.712,-6.096 5.614,-6.302C5.729,-6.412 6.374,-6.189 6.472,-6.051C6.473,-6.014 6.415,-6.019 6.359,-6.043C6.402,-5.975 6.45,-5.89 6.65,-5.871L6.492,-5.955C6.687,-5.954 6.743,-6.145 6.997,-5.994C6.88,-6.158 6.743,-6.145 6.627,-6.105C6.936,-6.181 6.742,-6.37 6.974,-6.483C6.872,-6.492 6.667,-6.543 6.68,-6.571C6.989,-6.748 6.413,-6.81 6.411,-7.016C6.703,-7.015 6.998,-6.739 6.858,-7C7.072,-7.041 7.306,-6.848 7.423,-6.751C7.169,-7.041 7.753,-6.971 7.849,-7.04L7.948,-6.902C7.889,-6.985 7.908,-7.026 7.926,-7.068L7.576,-7.151C7.653,-7.178 7.672,-7.22 7.809,-7.164C7.613,-7.303 7.243,-7.344 6.987,-7.564C7.182,-7.564 6.888,-7.84 7.336,-7.688C7.104,-7.537 7.787,-7.537 7.787,-7.33C7.748,-7.386 7.767,-7.427 7.845,-7.454C7.897,-7.442 7.933,-7.411 7.953,-7.387C8.425,-7.433 7.493,-7.677 7.586,-7.881C7.823,-7.757 8.075,-7.744 8.036,-7.799C7.997,-7.717 7.606,-7.922 7.447,-8.074C7.694,-8.132 7.362,-8.277 7.412,-8.338L7.29,-8.293C7.053,-8.418 7.111,-8.473 7.069,-8.597C7.266,-8.529 7.169,-8.46 7.267,-8.46C6.872,-8.734 7.81,-8.518 7.573,-8.779C7.768,-8.781 8.042,-8.603 8.179,-8.619C7.92,-8.907 8.588,-8.664 8.389,-8.939C8.036,-9.018 8.114,-8.978 7.835,-9.224L7.96,-8.852L7.545,-9.221C7.508,-9.138 7.686,-8.96 7.609,-8.932C7.371,-9.123 7.45,-9.082 7.157,-9.149C7.703,-9.071 6.955,-9.491 7.345,-9.494L8.171,-9.172C8.619,-9.233 7.884,-9.696 8.191,-9.881L8.016,-9.85C7.7,-10.011 8.031,-10.031 7.93,-10.167C8.204,-10.055 8.325,-10.071 8.511,-10.043C8.304,-10.115 8.603,-10.23 8.058,-10.46L8.468,-10.443C8.698,-10.602 7.768,-10.978 7.936,-11.149C8.216,-10.977 8.447,-11 8.613,-10.782C8.641,-10.85 8.714,-10.894 8.521,-10.965C8.71,-10.943 8.215,-11.293 8.502,-11.261C8.39,-11.334 8.102,-11.448 8.152,-11.517C8.211,-11.506 8.29,-11.468 8.29,-11.468C8.152,-11.517 8.146,-11.656 7.812,-11.698C8.758,-11.603 7.962,-12.308 8.772,-12.238C8.729,-12.423 8.7,-12.637 8.725,-12.782C8.806,-12.745 8.865,-12.735 8.827,-12.719C9.152,-12.824 8.059,-13.102 8.422,-13.222C8.914,-13.184 8.63,-13.026 8.825,-13.039C9.762,-12.769 8.785,-13.343 9.375,-13.316L9.418,-13.263C9.771,-13.277 9.151,-13.652 9.273,-13.816C9.273,-13.816 9.353,-13.782 9.414,-13.772C8.977,-14.045 8.891,-14.328 8.811,-14.543C9.161,-14.382 8.98,-14.406 9.363,-14.331C9.334,-14.426 8.759,-14.483 8.702,-14.671C8.917,-14.663 9.127,-14.727 9.529,-14.63L9.505,-14.473C10.042,-14.403 9.548,-14.673 9.658,-14.728L9.88,-14.655C9.87,-14.912 9.302,-15.071 9.409,-15.31L9.231,-15.329C8.703,-15.614 9.579,-15.36 9.194,-15.606L9.779,-15.499C9.664,-15.628 9.309,-15.954 9.241,-16.145C9.645,-15.946 9.812,-15.704 10.033,-15.52C10.061,-15.61 10.072,-15.84 9.801,-15.955C9.847,-15.906 9.975,-15.825 9.877,-15.811C9.457,-16.028 9.267,-16.245 9.315,-16.434C10.449,-16.207 9.68,-16.926 10.564,-17.046C10.152,-17.472 10.744,-17.91 10.576,-18.435C9.727,-18.098 10.527,-18.576 9.631,-18.36C9.551,-18.448 9.556,-18.488 9.612,-18.511C9.765,-18.654 9.918,-18.808 10.056,-18.969C10.287,-19.126 10.283,-18.922 10.478,-18.987C10.465,-19.263 10.817,-19.205 10.991,-19.461C10.688,-19.322 10.521,-19.405 10.579,-19.593C10.476,-19.474 10.367,-19.359 10.253,-19.247C9.677,-19.407 10.864,-19.83 10.259,-19.999L10.575,-20.008C10.345,-20.12 10.229,-20.704 9.503,-20.464C9.575,-20.546 9.76,-20.721 9.864,-20.685C9.683,-21.176 8.65,-21.011 8.751,-21.551L8.934,-21.684C8.826,-21.702 8.534,-21.484 8.614,-21.718C8.681,-21.783 8.792,-21.858 8.771,-21.895C8.682,-21.871 8.347,-21.758 8.346,-21.922L8.583,-22.054C8.383,-22.598 7.72,-21.946 7.413,-21.981C7.803,-22.514 7.72,-22.839 7.678,-23.001L7.736,-23.075C7.474,-23.368 6.89,-23.004 6.457,-22.995C6.691,-23.709 6.024,-23.662 5.963,-24.19C5.94,-24.061 5.666,-23.771 5.577,-23.751C5.585,-23.908 5.133,-23.5 5.484,-23.994L5.501,-23.968C5.785,-24.494 5.556,-24.459 5.455,-24.545L4.994,-23.9C5.349,-25.048 4.013,-24.046 4.426,-25.011C4.248,-24.89 4.163,-24.948 3.985,-24.827L4.221,-25.18C4.087,-25.396 4.019,-25.504 3.724,-25.574L3.938,-25.798C3.816,-25.909 3.105,-24.878 2.969,-24.936L3.272,-25.495C3.031,-25.635 3.085,-26.258 2.545,-25.918C2.598,-25.994 2.703,-26.145 2.754,-26.143C2.652,-26.227 2.546,-26.78 2.13,-26.014C2.426,-26.499 1.911,-26.212 1.652,-26.077L1.89,-26.421C1.503,-26.032 1.424,-25.909 1.196,-25.873C1.188,-25.942 1.337,-26.179 1.33,-26.058C1.323,-26.319 1.032,-25.776 1.002,-26.055L1.193,-26.251C1.086,-26.353 1.022,-26.224 0.795,-25.998C0.633,-25.902 0.616,-26.229 0.789,-26.565C0.654,-26.376 0.43,-26.15 0.412,-26.287C0.474,-26.416 0.545,-26.476 0.581,-26.506C0.515,-26.873 0.026,-26.266 0.088,-26.705C0.155,-26.827 0.18,-26.892 0.189,-26.935C0.351,-26.829 0.473,-26.732 0.445,-26.713C0.64,-27.045 0.538,-27.183 0.914,-27.58C0.657,-27.393 0.157,-26.954 0.116,-27.187C0.128,-27.223 0.14,-27.259 0.165,-27.313L0.2,-27.343C0.188,-27.393 0.143,-27.378 0.085,-27.337C0.075,-27.416 0.071,-27.473 0.033,-27.501C0.175,-27.787 -0.041,-27.738 -0.102,-27.79C-0.303,-27.419 -0.359,-27.528 -0.445,-27.178C-0.441,-27.21 -0.408,-27.215 -0.354,-27.205C-0.337,-27.21 -0.322,-27.209 -0.303,-27.226L-0.326,-27.197C-0.275,-27.183 -0.212,-27.16 -0.143,-27.127C-0.302,-26.972 -0.447,-26.845 -0.407,-27.091C-0.577,-26.876 -0.751,-26.655 -0.834,-26.55C-0.639,-27.113 -0.665,-27.491 -0.515,-27.823C-0.839,-27.73 -1.083,-27.962 -1.591,-27.33C-1.698,-27.271 -1.553,-27.566 -1.517,-27.688C-1.445,-27.74 -1.409,-27.708 -1.337,-27.799C-1.553,-27.682 -1.732,-27.915 -2.016,-27.439C-2.051,-27.739 -1.696,-27.847 -1.945,-27.874L-1.84,-28.01C-1.857,-29.02 -3.138,-27.085 -3.102,-28.326C-3.099,-28.247 -3.097,-28.21 -3.129,-28.123C-3.461,-28.834 -4.398,-28.192 -4.676,-29.133C-4.784,-29.343 -4.922,-29.017 -5.104,-28.798L-4.993,-29.239L-5.324,-28.804C-5.663,-28.501 -5.457,-29.995 -5.97,-29.385L-5.997,-29.077C-6.095,-29.171 -6.411,-28.966 -6.331,-29.312C-6.354,-29.26 -6.42,-29.005 -6.444,-29.17L-6.415,-29.405C-6.54,-29.287 -6.657,-29.167 -6.764,-29.046C-7.021,-29.224 -6.63,-29.995 -7.142,-30.028C-7.358,-29.927 -7.566,-29.305 -7.463,-29.157C-7.4,-29.151 -7.29,-29.023 -7.257,-28.787L-7.349,-28.659C-7.268,-27.968 -7.082,-27.278 -6.989,-26.776C-6.999,-26.915 -6.996,-27.058 -6.98,-27.202L-6.968,-26.866L-6.986,-26.841C-6.963,-26.521 -6.981,-26.807 -6.957,-27.004C-6.956,-26.824 -6.976,-26.706 -6.96,-26.634C-6.915,-26.849 -6.86,-27.065 -6.796,-27.279C-6.816,-27.005 -6.898,-26.748 -6.854,-26.587C-6.768,-26.886 -6.831,-27.203 -6.715,-27.391C-6.7,-27.067 -6.764,-26.815 -6.656,-27.073C-6.679,-26.895 -6.712,-26.784 -6.746,-26.708C-6.658,-26.911 -6.606,-26.788 -6.483,-27.135C-6.506,-26.734 -6.226,-27.167 -6.401,-26.53C-6.342,-26.678 -6.149,-26.998 -6.076,-27.007C-6.414,-26.279 -5.86,-26.902 -6.148,-26.095C-5.837,-26.738 -5.738,-26.28 -5.444,-26.594C-5.473,-26.544 -5.531,-26.443 -5.532,-26.482C-5.464,-26.394 -5.517,-26.185 -5.512,-26.041C-5.287,-26.587 -5.094,-26.65 -4.877,-26.951C-4.981,-26.379 -5.208,-26.343 -5.379,-25.824C-5.205,-26.267 -5.007,-26.181 -4.891,-26.562C-4.941,-26.203 -4.883,-26.374 -5.031,-25.907C-4.726,-26.576 -4.904,-25.988 -4.653,-26.371C-4.675,-25.987 -4.9,-25.728 -4.675,-25.875C-4.706,-25.643 -4.929,-25.456 -4.929,-25.456" style="fill:rgb(255,76,148);fill-rule:nonzero;"/>
            </g>
        </g>
    </g>
</svg>
