<?xml version="1.0" encoding="UTF-8" standalone="no"?>
<!DOCTYPE svg PUBLIC "-//W3C//DTD SVG 1.1//EN" "http://www.w3.org/Graphics/SVG/1.1/DTD/svg11.dtd">
<svg width="100%" height="100%" viewBox="0 0 440 99" version="1.1" xmlns="http://www.w3.org/2000/svg" xmlns:xlink="http://www.w3.org/1999/xlink" xml:space="preserve" xmlns:serif="http://www.serif.com/" style="fill-rule:evenodd;clip-rule:evenodd;stroke-linejoin:round;stroke-miterlimit:2;">
    <g transform="matrix(1,0,0,1,-3.041449,-203.616015)">
        <g transform="matrix(1.247911,0,0,1.704918,24.958217,220.04918)">
            <g transform="matrix(0.946429,0,0,0.836538,12.551339,-1.634615)">
                <g transform="matrix(0.471172,0.264327,-0.319197,0.390177,325.527513,4.037141)">
                    <path d="M0,-27.641C0.075,-27.668 0.05,-27.587 0.013,-27.509C-0.012,-27.514 -0.044,-27.516 -0.092,-27.509L-0.122,-27.467C-0.078,-27.535 -0.036,-27.598 0,-27.641M-0.863,-24.766C-0.888,-24.799 -0.928,-24.826 -0.973,-24.849C-0.909,-24.98 -0.824,-25.104 -0.8,-25.081C-0.864,-25.006 -0.842,-24.895 -0.863,-24.766M-1.138,-24.917L-1.142,-24.91C-1.174,-24.918 -1.203,-24.924 -1.22,-24.928C-1.203,-24.926 -1.18,-24.923 -1.138,-24.917M-4.929,-25.456C-4.802,-25.389 -4.643,-25.923 -4.483,-26.201C-4.252,-26.269 -4.577,-25.794 -4.64,-25.512C-4.478,-25.597 -4.183,-26.019 -4.115,-25.962C-4.148,-25.877 -4.147,-25.84 -4.214,-25.745C-3.915,-26.09 -3.883,-25.61 -3.51,-26.045C-3.522,-25.996 -3.538,-25.953 -3.554,-25.914C-3.452,-26.173 -3.33,-26.427 -3.236,-26.605C-3.168,-26.582 -2.96,-26.861 -3.099,-26.524C-3.133,-26.554 -3.202,-26.424 -3.271,-26.332L-3.133,-26.439C-3.308,-25.943 -3.305,-26.325 -3.477,-25.978C-3.274,-26.067 -2.928,-26.37 -2.895,-26.188C-3.107,-25.724 -3.203,-26.155 -3.278,-25.683L-3.341,-25.936C-3.588,-25.159 -3.407,-26.034 -3.689,-25.211C-3.561,-24.978 -3.352,-25.328 -3.224,-25.094C-3.049,-25.322 -3.045,-25.474 -2.87,-25.702C-2.348,-26.003 -3.247,-24.454 -2.724,-24.947C-2.511,-25.217 -2.183,-25.772 -2.198,-25.391L-2.522,-24.912C-2.36,-24.757 -2.017,-25.578 -2.002,-25.128C-2.147,-24.949 -2.245,-25.043 -2.249,-24.968C-2.338,-24.497 -2,-25.203 -1.899,-25.148L-2.126,-24.69C-1.885,-24.648 -1.479,-24.848 -1.208,-24.795C-1.296,-24.671 -1.414,-24.555 -1.439,-24.389C-1.03,-24.446 -0.867,-23.987 -0.753,-23.567L-0.425,-23.883C-0.403,-23.864 -0.482,-23.685 -0.552,-23.628C-0.533,-23.421 -0.403,-23.864 -0.264,-23.982C-0.188,-23.972 -0.315,-23.717 -0.421,-23.627C-0.044,-23.835 0.527,-23.993 0.477,-23.473L0.37,-23.384C0.428,-23.14 1.016,-24.045 0.941,-23.608L0.873,-23.559C1.1,-23.19 1.683,-23.304 1.575,-22.582C1.964,-23.085 1.744,-22.136 2.245,-22.865C2.193,-22.376 2.054,-22.279 2.154,-21.862C2.201,-21.783 2.561,-22.257 2.698,-22.277L2.446,-21.89L2.83,-22.217L2.587,-21.714L2.733,-21.76C2.716,-21.804 2.779,-21.978 2.858,-22.086C3.1,-22.176 2.986,-21.613 2.857,-21.414L3.373,-21.541C3.262,-21.391 3.177,-21.371 3.071,-21.299C3.493,-21.585 2.828,-20.876 3.214,-21.138C3.253,-21.238 3.379,-21.359 3.435,-21.434C3.352,-21.155 3.512,-21.04 3.699,-21.055L3.496,-20.808C3.667,-20.592 4.042,-20.62 4.282,-20.446C4.28,-20.629 4.615,-21.069 4.717,-21.062L4.466,-20.641C4.686,-20.856 4.498,-20.846 4.804,-21.081C4.862,-20.971 4.546,-20.583 4.404,-20.489L4.611,-20.551C4.533,-20.427 4.463,-20.382 4.35,-20.234C4.57,-20.451 4.257,-19.7 4.625,-20.085L4.547,-19.961C4.785,-19.788 4.994,-19.849 5.202,-19.728C5.452,-20.068 5.474,-19.937 5.731,-20.171C5.797,-19.957 5.76,-19.574 5.953,-19.478C6.199,-19.558 6.2,-19.74 6.404,-19.901C6.192,-19.58 6.314,-19.526 6.091,-19.352C6.256,-19.302 6.287,-19.295 6.664,-19.357C6.762,-19.484 6.79,-19.555 6.894,-19.635C6.971,-19.643 6.847,-19.448 6.706,-19.328L6.669,-19.309C6.972,-19.412 6.863,-19.098 6.725,-18.854C6.595,-18.604 6.437,-18.418 6.836,-18.533L6.797,-18.523C6.945,-18.533 7.099,-18.536 7.257,-18.53C7.232,-18.418 6.972,-18.462 6.781,-18.305C7.449,-18.355 6.804,-17.995 7.248,-17.955C6.717,-17.758 6.745,-17.684 6.835,-17.587C6.915,-17.495 7.048,-17.37 6.684,-17.294L6.95,-17.305C7.212,-17.262 6.802,-17.254 6.737,-17.23C6.946,-17.227 6.978,-17.269 7.124,-17.241C7.276,-17.048 7.156,-16.837 6.949,-16.694C6.717,-16.462 6.401,-16.208 6.211,-15.958C6.086,-15.767 7.513,-15.468 6.823,-15.369L6.369,-15.58C6.808,-14.984 6.088,-14.708 6.436,-14.134C6.335,-14.194 6.194,-14.24 6.209,-14.281C5.837,-14.301 6.083,-13.956 6.362,-13.863C6.309,-13.808 6.104,-13.93 5.949,-13.936C5.718,-13.913 6.311,-13.567 5.955,-13.632C5.897,-13.642 5.853,-13.694 5.832,-13.719C5.978,-13.606 5.7,-13.462 6.112,-13.385C5.871,-13.289 6.188,-13.02 5.909,-12.973C6.318,-12.737 5.601,-12.774 6.211,-12.53C5.575,-12.766 5.596,-12.433 5.86,-12.224C5.679,-12.328 5.629,-12.209 5.375,-12.344C5.344,-12.227 5.425,-12.079 5.76,-11.98C4.924,-12.047 6.216,-11.327 5.196,-11.568C5.409,-11.1 5.522,-10.695 5.553,-10.329C4.927,-10.582 5.619,-10.694 4.95,-10.933C5.103,-10.543 5.577,-10.165 5.312,-9.933C5.196,-9.891 5.055,-10.081 4.957,-10.149C5.103,-9.755 4.679,-9.606 4.921,-9.211C4.863,-9.235 4.81,-9.288 4.772,-9.334C4.773,-9.274 4.632,-9.251 4.921,-9.144L4.863,-9.224C5.311,-9.143 5.649,-8.678 5.865,-8.581C5.08,-8.993 5.556,-8.405 4.576,-8.954C4.616,-8.898 4.735,-8.802 4.929,-8.734C4.853,-8.706 4.735,-8.734 4.538,-8.871C4.62,-8.626 4.95,-8.571 4.877,-8.406C4.739,-8.462 4.699,-8.516 4.543,-8.599C4.78,-8.407 5.016,-8.214 4.842,-8.12C4.762,-8.161 4.647,-8.188 4.666,-8.229C4.612,-7.971 5.219,-7.529 4.852,-7.366C4.283,-7.685 4.618,-7.354 4.092,-7.548L4.189,-7.343L4.465,-7.299C4.406,-7.177 4.74,-6.914 4.526,-6.874L4.35,-7.054L4.354,-6.779L4.604,-6.833C4.821,-6.599 5.268,-6.583 5.056,-6.474C5.016,-6.529 4.999,-6.35 4.666,-6.408L4.665,-6.409C4.806,-6.28 4.955,-6.146 4.788,-6.104C4.612,-6.147 4.221,-6.354 4.104,-6.383C4.514,-6.147 4.106,-6.039 4.539,-5.776C4.44,-5.846 4.167,-5.955 4.109,-5.969L4.441,-5.777C4.305,-5.764 4.247,-5.777 4.033,-5.873C3.898,-5.723 4.715,-5.666 4.348,-5.571C4.326,-5.599 4.27,-5.611 4.229,-5.667C3.998,-5.516 4.292,-5.174 4.042,-5.049C3.496,-5.199 3.98,-5.269 3.513,-5.378C3.498,-5.06 3.915,-4.552 3.686,-4.33L3.763,-4.358C4.49,-4.033 3.318,-4.299 3.614,-4.027C3.572,-4.081 3.219,-4.23 3.298,-4.189C3.107,-4.049 3.336,-3.736 3.463,-3.366L3.285,-3.474C3.073,-3.428 3.077,-3.221 2.945,-3.134C3.123,-3.028 3.066,-2.972 3.36,-2.909C2.129,-2.943 3.693,-1.995 2.663,-1.996C2.674,-2.036 2.527,-2.149 2.515,-2.118L2.593,-1.775C2.928,-1.683 2.804,-1.743 3.08,-1.712C3.261,-1.609 3.383,-1.478 3.359,-1.41C3.187,-1.61 2.833,-1.592 2.631,-1.6C2.734,-1.575 2.839,-1.518 2.942,-1.487C2.311,-1.541 3.594,-1.236 3.135,-1.171L2.966,-1.241C3.029,-1.136 3.234,-0.99 3.158,-0.927C2.767,-1.02 3.007,-1.065 2.696,-1.176C2.68,-1.053 3.343,-0.712 2.929,-0.735C2.839,-0.818 2.86,-0.888 2.771,-0.971C2.287,-1.007 2.396,-0.956 2.297,-0.895L2.31,-0.9L2.043,-0.771L2.181,-0.782C3.129,-0.319 2.264,-0.432 2.861,-0.033C2.298,-0.413 2.513,-0.176 2.083,-0.325C1.948,-0.312 1.79,-0.276 1.674,-0.336C1.997,-0.135 1.351,-0.262 1.824,0.025C1.682,-0.012 1.781,0.12 1.435,-0.005C1.509,0.15 1.687,0.038 1.86,0.101C2.288,0.426 1.141,0.372 1.732,0.833C1.943,1.142 2.41,1.309 2.594,1.58C2.349,1.595 2.093,1.391 2.093,1.391C1.854,1.455 1.87,1.554 2.004,1.704C1.886,1.651 1.775,1.649 1.606,1.645C1.621,1.744 2.109,1.828 1.87,1.895C1.716,1.838 1.468,1.753 1.32,1.671C1.422,1.809 1.669,1.978 1.774,2.116C1.52,2.091 1.411,1.965 1.257,1.889C1.342,2.042 1.415,2.267 1.802,2.387L1.959,2.338C1.969,2.386 1.615,2.289 1.55,2.24C1.263,2.066 1.719,2.115 1.863,2.141L1.939,2.239C2.794,2.344 1.864,1.899 1.958,1.752L2.548,1.96L2.085,1.682C2.251,1.687 2.596,1.748 2.667,1.844C2.994,1.809 2.477,1.695 2.834,1.685C2.889,1.688 2.917,1.7 2.938,1.715L2.785,1.565C2.906,1.617 3.216,1.656 3.112,1.698C3.508,1.602 2.737,1.277 3.212,1.328L3.245,1.353C3.108,1.038 2.809,1.21 2.342,0.868L3.468,1.041L3.035,0.891C3.059,0.869 3.107,0.825 3.281,0.885C3.009,0.699 3.084,0.847 2.817,0.708C3.256,0.695 2.737,0.294 3.445,0.474C3.125,0.327 3.15,0.521 2.959,0.313C3.723,0.5 2.879,0.114 3.258,0.101C3.634,0.256 3.397,0.303 3.777,0.293C3.145,0.02 3.985,0.111 3.895,-0.024C3.377,-0.195 3.749,-0.307 3.631,-0.527C3.801,-0.46 4.018,-0.744 4.254,-0.831L4.34,-0.797C3.829,-1.004 3.977,-1.129 3.912,-1.281C4.222,-1.168 4.337,-1.104 4.455,-0.995L4.49,-1.102C4.333,-1.185 4.257,-1.25 4.222,-1.34L4.601,-1.177C4.63,-1.326 4.247,-1.625 4.571,-1.716C4.214,-1.857 3.512,-1.93 3.341,-2.214C3.539,-2.151 3.875,-2.037 3.938,-1.957C3.917,-1.983 3.796,-2.076 3.892,-2.079L4.193,-1.883C4.367,-1.914 3.934,-2.026 3.989,-2.082C4.267,-1.98 4.205,-2.06 4.423,-1.97C4.443,-1.943 4.287,-1.954 4.387,-1.888C4.464,-1.946 4.662,-1.976 4.883,-1.93C4.722,-1.981 4.508,-2.066 4.492,-2.135C4.522,-2.285 4.844,-2.061 5.016,-2.091C4.836,-2.197 5.07,-2.213 4.656,-2.37C4.674,-2.41 4.871,-2.346 4.989,-2.32C4.833,-2.462 5.066,-2.683 4.594,-2.766L4.558,-2.757C4.552,-2.765 4.55,-2.768 4.544,-2.776C4.224,-3.174 4.969,-3.19 4.882,-3.497L5.021,-3.444C4.918,-3.648 5.051,-3.798 4.794,-4.016C4.812,-4.058 5.086,-4.017 5.243,-3.935C5.182,-4.085 5.032,-4.158 5.321,-4.226C5.519,-4.022 5.549,-4.181 5.454,-4.045C5.628,-4.141 5.861,-4.085 5.544,-4.386C5.877,-4.195 6.03,-4.317 5.951,-4.426L5.66,-4.427C5.638,-4.522 5.695,-4.577 5.752,-4.632L6.202,-4.412C6.881,-4.477 5.45,-5.317 6.482,-5.162C6.189,-5.368 6.191,-5.095 5.839,-5.315C5.956,-5.424 6.676,-5.297 6.694,-5.338C7.023,-5.418 6.085,-5.779 6.337,-5.901C6.163,-5.942 5.712,-6.096 5.614,-6.302C5.729,-6.412 6.374,-6.189 6.472,-6.051C6.473,-6.014 6.415,-6.019 6.359,-6.043C6.402,-5.975 6.45,-5.89 6.65,-5.871L6.492,-5.955C6.687,-5.954 6.743,-6.145 6.997,-5.994C6.88,-6.158 6.743,-6.145 6.627,-6.105C6.936,-6.181 6.742,-6.37 6.974,-6.483C6.872,-6.492 6.667,-6.543 6.68,-6.571C6.989,-6.748 6.413,-6.81 6.411,-7.016C6.703,-7.015 6.998,-6.739 6.858,-7C7.072,-7.041 7.306,-6.848 7.423,-6.751C7.169,-7.041 7.753,-6.971 7.849,-7.04L7.948,-6.902C7.889,-6.985 7.908,-7.026 7.926,-7.068L7.576,-7.151C7.653,-7.178 7.672,-7.22 7.809,-7.164C7.613,-7.303 7.243,-7.344 6.987,-7.564C7.182,-7.564 6.888,-7.84 7.336,-7.688C7.104,-7.537 7.787,-7.537 7.787,-7.33C7.748,-7.386 7.767,-7.427 7.845,-7.454C7.897,-7.442 7.933,-7.411 7.953,-7.387C8.425,-7.433 7.493,-7.677 7.586,-7.881C7.823,-7.757 8.075,-7.744 8.036,-7.799C7.997,-7.717 7.606,-7.922 7.447,-8.074C7.694,-8.132 7.362,-8.277 7.412,-8.338L7.29,-8.293C7.053,-8.418 7.111,-8.473 7.069,-8.597C7.266,-8.529 7.169,-8.46 7.267,-8.46C6.872,-8.734 7.81,-8.518 7.573,-8.779C7.768,-8.781 8.042,-8.603 8.179,-8.619C7.92,-8.907 8.588,-8.664 8.389,-8.939C8.036,-9.018 8.114,-8.978 7.835,-9.224L7.96,-8.852L7.545,-9.221C7.508,-9.138 7.686,-8.96 7.609,-8.932C7.371,-9.123 7.45,-9.082 7.157,-9.149C7.703,-9.071 6.955,-9.491 7.345,-9.494L8.171,-9.172C8.619,-9.233 7.884,-9.696 8.191,-9.881L8.016,-9.85C7.7,-10.011 8.031,-10.031 7.93,-10.167C8.204,-10.055 8.325,-10.071 8.511,-10.043C8.304,-10.115 8.603,-10.23 8.058,-10.46L8.468,-10.443C8.698,-10.602 7.768,-10.978 7.936,-11.149C8.216,-10.977 8.447,-11 8.613,-10.782C8.641,-10.85 8.714,-10.894 8.521,-10.965C8.71,-10.943 8.215,-11.293 8.502,-11.261C8.39,-11.334 8.102,-11.448 8.152,-11.517C8.211,-11.506 8.29,-11.468 8.29,-11.468C8.152,-11.517 8.146,-11.656 7.812,-11.698C8.758,-11.603 7.962,-12.308 8.772,-12.238C8.729,-12.423 8.7,-12.637 8.725,-12.782C8.806,-12.745 8.865,-12.735 8.827,-12.719C9.152,-12.824 8.059,-13.102 8.422,-13.222C8.914,-13.184 8.63,-13.026 8.825,-13.039C9.762,-12.769 8.785,-13.343 9.375,-13.316L9.418,-13.263C9.771,-13.277 9.151,-13.652 9.273,-13.816C9.273,-13.816 9.353,-13.782 9.414,-13.772C8.977,-14.045 8.891,-14.328 8.811,-14.543C9.161,-14.382 8.98,-14.406 9.363,-14.331C9.334,-14.426 8.759,-14.483 8.702,-14.671C8.917,-14.663 9.127,-14.727 9.529,-14.63L9.505,-14.473C10.042,-14.403 9.548,-14.673 9.658,-14.728L9.88,-14.655C9.87,-14.912 9.302,-15.071 9.409,-15.31L9.231,-15.329C8.703,-15.614 9.579,-15.36 9.194,-15.606L9.779,-15.499C9.664,-15.628 9.309,-15.954 9.241,-16.145C9.645,-15.946 9.812,-15.704 10.033,-15.52C10.061,-15.61 10.072,-15.84 9.801,-15.955C9.847,-15.906 9.975,-15.825 9.877,-15.811C9.457,-16.028 9.267,-16.245 9.315,-16.434C10.449,-16.207 9.68,-16.926 10.564,-17.046C10.152,-17.472 10.744,-17.91 10.576,-18.435C9.727,-18.098 10.527,-18.576 9.631,-18.36C9.551,-18.448 9.556,-18.488 9.612,-18.511C9.765,-18.654 9.918,-18.808 10.056,-18.969C10.287,-19.126 10.283,-18.922 10.478,-18.987C10.465,-19.263 10.817,-19.205 10.991,-19.461C10.688,-19.322 10.521,-19.405 10.579,-19.593C10.476,-19.474 10.367,-19.359 10.253,-19.247C9.677,-19.407 10.864,-19.83 10.259,-19.999L10.575,-20.008C10.345,-20.12 10.229,-20.704 9.503,-20.464C9.575,-20.546 9.76,-20.721 9.864,-20.685C9.683,-21.176 8.65,-21.011 8.751,-21.551L8.934,-21.684C8.826,-21.702 8.534,-21.484 8.614,-21.718C8.681,-21.783 8.792,-21.858 8.771,-21.895C8.682,-21.871 8.347,-21.758 8.346,-21.922L8.583,-22.054C8.383,-22.598 7.72,-21.946 7.413,-21.981C7.803,-22.514 7.72,-22.839 7.678,-23.001L7.736,-23.075C7.474,-23.368 6.89,-23.004 6.457,-22.995C6.691,-23.709 6.024,-23.662 5.963,-24.19C5.94,-24.061 5.666,-23.771 5.577,-23.751C5.585,-23.908 5.133,-23.5 5.484,-23.994L5.501,-23.968C5.785,-24.494 5.556,-24.459 5.455,-24.545L4.994,-23.9C5.349,-25.048 4.013,-24.046 4.426,-25.011C4.248,-24.89 4.163,-24.948 3.985,-24.827L4.221,-25.18C4.087,-25.396 4.019,-25.504 3.724,-25.574L3.938,-25.798C3.816,-25.909 3.105,-24.878 2.969,-24.936L3.272,-25.495C3.031,-25.635 3.085,-26.258 2.545,-25.918C2.598,-25.994 2.703,-26.145 2.754,-26.143C2.652,-26.227 2.546,-26.78 2.13,-26.014C2.426,-26.499 1.911,-26.212 1.652,-26.077L1.89,-26.421C1.503,-26.032 1.424,-25.909 1.196,-25.873C1.188,-25.942 1.337,-26.179 1.33,-26.058C1.323,-26.319 1.032,-25.776 1.002,-26.055L1.193,-26.251C1.086,-26.353 1.022,-26.224 0.795,-25.998C0.633,-25.902 0.616,-26.229 0.789,-26.565C0.654,-26.376 0.43,-26.15 0.412,-26.287C0.474,-26.416 0.545,-26.476 0.581,-26.506C0.515,-26.873 0.026,-26.266 0.088,-26.705C0.155,-26.827 0.18,-26.892 0.189,-26.935C0.351,-26.829 0.473,-26.732 0.445,-26.713C0.64,-27.045 0.538,-27.183 0.914,-27.58C0.657,-27.393 0.157,-26.954 0.116,-27.187C0.128,-27.223 0.14,-27.259 0.165,-27.313L0.2,-27.343C0.188,-27.393 0.143,-27.378 0.085,-27.337C0.075,-27.416 0.071,-27.473 0.033,-27.501C0.175,-27.787 -0.041,-27.738 -0.102,-27.79C-0.303,-27.419 -0.359,-27.528 -0.445,-27.178C-0.441,-27.21 -0.408,-27.215 -0.354,-27.205C-0.337,-27.21 -0.322,-27.209 -0.303,-27.226L-0.326,-27.197C-0.275,-27.183 -0.212,-27.16 -0.143,-27.127C-0.302,-26.972 -0.447,-26.845 -0.407,-27.091C-0.577,-26.876 -0.751,-26.655 -0.834,-26.55C-0.639,-27.113 -0.665,-27.491 -0.515,-27.823C-0.839,-27.73 -1.083,-27.962 -1.591,-27.33C-1.698,-27.271 -1.553,-27.566 -1.517,-27.688C-1.445,-27.74 -1.409,-27.708 -1.337,-27.799C-1.553,-27.682 -1.732,-27.915 -2.016,-27.439C-2.051,-27.739 -1.696,-27.847 -1.945,-27.874L-1.84,-28.01C-1.857,-29.02 -3.138,-27.085 -3.102,-28.326C-3.099,-28.247 -3.097,-28.21 -3.129,-28.123C-3.461,-28.834 -4.398,-28.192 -4.676,-29.133C-4.784,-29.343 -4.922,-29.017 -5.104,-28.798L-4.993,-29.239L-5.324,-28.804C-5.663,-28.501 -5.457,-29.995 -5.97,-29.385L-5.997,-29.077C-6.095,-29.171 -6.411,-28.966 -6.331,-29.312C-6.354,-29.26 -6.42,-29.005 -6.444,-29.17L-6.415,-29.405C-6.54,-29.287 -6.657,-29.167 -6.764,-29.046C-7.021,-29.224 -6.63,-29.995 -7.142,-30.028C-7.358,-29.927 -7.566,-29.305 -7.463,-29.157C-7.4,-29.151 -7.29,-29.023 -7.257,-28.787L-7.349,-28.659C-7.268,-27.968 -7.082,-27.278 -6.989,-26.776C-6.999,-26.915 -6.996,-27.058 -6.98,-27.202L-6.968,-26.866L-6.986,-26.841C-6.963,-26.521 -6.981,-26.807 -6.957,-27.004C-6.956,-26.824 -6.976,-26.706 -6.96,-26.634C-6.915,-26.849 -6.86,-27.065 -6.796,-27.279C-6.816,-27.005 -6.898,-26.748 -6.854,-26.587C-6.768,-26.886 -6.831,-27.203 -6.715,-27.391C-6.7,-27.067 -6.764,-26.815 -6.656,-27.073C-6.679,-26.895 -6.712,-26.784 -6.746,-26.708C-6.658,-26.911 -6.606,-26.788 -6.483,-27.135C-6.506,-26.734 -6.226,-27.167 -6.401,-26.53C-6.342,-26.678 -6.149,-26.998 -6.076,-27.007C-6.414,-26.279 -5.86,-26.902 -6.148,-26.095C-5.837,-26.738 -5.738,-26.28 -5.444,-26.594C-5.473,-26.544 -5.531,-26.443 -5.532,-26.482C-5.464,-26.394 -5.517,-26.185 -5.512,-26.041C-5.287,-26.587 -5.094,-26.65 -4.877,-26.951C-4.981,-26.379 -5.208,-26.343 -5.379,-25.824C-5.205,-26.267 -5.007,-26.181 -4.891,-26.562C-4.941,-26.203 -4.883,-26.374 -5.031,-25.907C-4.726,-26.576 -4.904,-25.988 -4.653,-26.371C-4.675,-25.987 -4.9,-25.728 -4.675,-25.875C-4.706,-25.643 -4.929,-25.456 -4.929,-25.456" style="fill:rgb(255,76,148);fill-rule:nonzero;"/>
                </g>
            </g>
        </g>
        <g transform="matrix(1.247911,0,0,1.704918,24.958217,220.04918)">
            <g transform="matrix(0.801339,0,0,0.586538,24.327101,-44.605769)">
                <text x="0px" y="103px" style="font-family:'NanumPen', 'Nanum Pen Script', cursive;font-size:41.667px;fill:rgb(228,228,228);">2. Play all the music</text>
                <g transform="matrix(41.666667,0,0,41.666667,400.125,140.5)">
                </g>
                <text x="35px" y="140.5px" style="font-family:'NanumPen', 'Nanum Pen Script', cursive;font-size:41.667px;fill:rgb(228,228,228);">Or check out the events</text>
            </g>
        </g>
        <g transform="matrix(1.247911,0,0,1.704918,24.958217,220.04918)">
            <g transform="matrix(-0.745536,0,0,0.432692,234.546605,27.173077)">
                <g transform="matrix(0.238222,0.808845,-0.814249,0.381428,301.209828,-9.31555)">
                    <path d="M0,30.406C-0.007,30.256 0.086,30.244 0.173,30.258C0.158,30.321 0.144,30.397 0.136,30.5L0.178,30.534C0.108,30.492 0.043,30.451 0,30.406M3.387,29.845C3.333,29.932 3.281,30.047 3.232,30.172C3.086,30.143 2.96,30.056 3,29.982C3.072,30.061 3.226,29.912 3.387,29.845M3.071,30.615L3.079,30.618C3.055,30.7 3.035,30.771 3.021,30.815C3.032,30.774 3.046,30.716 3.071,30.615M1.181,40.328C1.299,39.928 0.707,40 0.422,39.833C0.398,39.305 0.875,39.714 1.192,39.623C1.13,39.284 0.698,38.914 0.782,38.695C0.875,38.702 0.92,38.668 1.015,38.75C0.687,38.311 1.277,37.804 0.859,37.274C0.915,37.26 0.963,37.26 1.005,37.265C0.721,37.244 0.449,37.173 0.26,37.102C0.306,36.916 0.028,36.659 0.395,36.697C0.351,36.805 0.488,36.858 0.58,36.943L0.487,36.705C1.037,36.687 0.581,37.02 0.95,37.132C0.9,36.713 0.616,36.147 0.848,35.906C1.346,36.001 0.809,36.624 1.354,36.382L1.036,36.763C1.904,36.666 0.902,37.012 1.816,36.96C2.126,36.431 1.761,36.239 2.097,35.719C1.872,35.503 1.685,35.631 1.459,35.414C1.254,34.436 2.889,35.189 2.448,34.376C2.181,34.112 1.591,33.834 2.061,33.525L2.552,33.863C2.805,33.337 1.89,33.268 2.47,32.828C2.643,33.01 2.486,33.323 2.582,33.265C3.148,33.053 2.374,32.89 2.483,32.604L2.982,32.725C3.134,32.121 3.011,31.339 3.201,30.669C3.327,30.761 3.429,30.93 3.636,30.841C3.743,29.948 4.394,29.15 5.024,28.524L4.757,28.053C4.792,27.988 4.996,28.011 5.04,28.119C5.328,27.894 4.792,27.988 4.701,27.774C4.751,27.593 5.033,27.657 5.104,27.819C5.005,27.146 5.06,25.98 5.769,25.653L5.833,25.816C6.205,25.476 5.267,24.936 5.833,24.727L5.864,24.838C6.481,24.003 6.691,22.819 7.647,22.455C7.167,22.013 8.378,21.707 7.654,21.214C8.334,20.93 8.385,21.154 9.059,20.6C9.206,20.434 8.753,20.035 8.814,19.752L9.212,19.988L8.989,19.416L9.56,19.539L9.598,19.263C9.52,19.334 9.304,19.334 9.199,19.251C9.24,18.803 10,18.606 10.204,18.727L10.387,17.724C10.531,17.844 10.499,18.011 10.53,18.181C10.408,17.501 10.986,18.372 10.874,17.749C10.753,17.743 10.663,17.569 10.591,17.509C10.943,17.467 11.243,17.043 11.368,16.66L11.588,16.902C12.056,16.383 12.292,15.607 12.762,14.983C12.474,15.119 12.065,14.743 12.162,14.527L12.611,14.742C12.458,14.445 12.317,14.825 12.204,14.363C12.427,14.16 12.769,14.535 12.796,14.763L12.874,14.378C13.004,14.449 13.016,14.561 13.152,14.689C12.997,14.391 13.911,14.496 13.616,14.012L13.744,14.084C14.211,13.464 14.293,13.079 14.679,12.575C14.357,12.302 14.587,12.167 14.442,11.804C14.845,11.524 15.424,11.329 15.756,10.872C15.854,10.435 15.559,10.553 15.484,10.255C15.796,10.481 16.135,10.028 16.154,10.43C16.551,9.879 16.659,9.727 17.001,8.881C16.822,8.844 16.701,8.877 16.64,8.749C16.698,8.59 16.998,8.592 17.119,8.733L17.121,8.79C17.352,7.676 19.446,7.939 19.404,6.845L19.402,6.903L19.669,6.048C19.976,5.839 19.716,6.407 20.075,6.387C20.24,5.333 21.106,5.523 21.331,4.737C22.485,5.208 22.715,3.394 23.748,3.479L23.544,3.301C23.522,2.98 23.818,3.274 23.963,3.234C23.816,3.086 23.653,3.178 23.651,2.992C24.685,1.715 26.487,1.264 27.953,0.566C28.485,0.299 27.47,-0.774 28.453,-0.658L28.543,-0.125C29.24,-1.279 30.637,-1.418 31.422,-2.432C31.417,-2.297 31.488,-2.167 31.387,-2.112C31.782,-1.921 32.199,-2.554 32.065,-2.811C32.245,-2.869 32.231,-2.598 32.403,-2.521C32.725,-2.453 32.742,-3.225 33.029,-2.973C33.077,-2.932 33.022,-2.837 32.995,-2.79C33.056,-3.024 33.689,-3.11 33.358,-3.404C33.847,-3.432 34.037,-3.96 34.467,-3.904C34.469,-4.424 35.255,-4.042 35.033,-4.664C35.303,-4.041 35.977,-4.518 36.102,-4.925C36.103,-4.698 36.416,-4.837 36.436,-4.532C36.725,-4.678 36.94,-4.918 36.743,-5.211C37.621,-4.723 37.575,-6.303 38.306,-5.492C39.042,-6.214 39.775,-6.793 40.524,-7.273C40.753,-6.635 39.657,-6.839 39.967,-6.198C40.619,-6.774 40.844,-7.494 41.672,-7.648C41.904,-7.642 41.668,-7.331 41.645,-7.197C42.31,-7.766 43.157,-7.727 43.715,-8.335C43.736,-8.276 43.686,-8.183 43.634,-8.108C43.762,-8.181 43.986,-8.135 43.861,-8.417L43.758,-8.289C43.38,-8.623 43.97,-9.366 43.912,-9.596C43.991,-8.683 44.677,-9.649 44.699,-8.466C44.768,-8.555 44.83,-8.733 44.737,-8.918C44.892,-8.911 44.977,-8.814 44.923,-8.545C45.354,-8.883 45.067,-9.125 45.515,-9.283C45.564,-9.143 45.495,-9.056 45.509,-8.874C45.634,-9.229 45.76,-9.588 46.181,-9.605C46.189,-9.513 46.273,-9.419 46.16,-9.381C46.792,-9.655 47.003,-10.508 47.812,-10.497C47.817,-9.814 48.126,-10.382 48.35,-9.866L48.678,-10.158L48.434,-10.361C48.773,-10.469 48.937,-10.959 49.287,-10.886L49.112,-10.581L49.708,-10.9L49.282,-10.978C49.529,-11.37 49.013,-11.636 49.515,-11.642C49.442,-11.557 49.856,-11.751 50.139,-11.499L50.138,-11.497C50.248,-11.722 50.36,-11.959 50.655,-11.912C50.777,-11.765 50.801,-11.308 50.881,-11.209C50.896,-11.71 51.631,-11.599 51.684,-12.14C51.65,-12.006 51.74,-11.726 51.781,-11.677L51.801,-12.083C51.996,-12.02 52.038,-11.971 52.085,-11.74C52.579,-11.83 51.713,-12.365 52.37,-12.26C52.335,-12.216 52.374,-12.169 52.3,-12.084C52.912,-12.119 53.314,-12.67 53.892,-12.657C54.216,-12.169 53.481,-12.381 53.801,-11.984C54.515,-12.322 55.145,-13.122 55.911,-13.218L55.758,-13.236C55.624,-14.027 56.414,-13.029 56.671,-13.5C56.598,-13.416 56.682,-13.041 56.681,-13.134C57.215,-13.161 57.641,-13.626 58.326,-14.094L58.291,-13.869C58.636,-13.783 59.095,-13.995 59.439,-13.999C59.477,-14.222 59.668,-14.243 59.475,-14.496C60.774,-13.665 61.182,-15.63 62.317,-14.941C62.213,-14.91 62.115,-14.701 62.199,-14.722L62.893,-15.106C62.743,-15.425 62.741,-15.282 62.513,-15.5C62.553,-15.724 62.722,-15.935 62.908,-15.985C62.631,-15.673 63.056,-15.449 63.251,-15.302C63.199,-15.397 63.218,-15.524 63.178,-15.625C63.728,-15.135 63.062,-16.316 63.703,-16.059L63.722,-15.876C63.897,-16.02 64.02,-16.3 64.249,-16.306C64.44,-15.942 64.083,-16.07 64.155,-15.747C64.45,-15.848 64.559,-16.638 64.934,-16.323C64.833,-16.181 64.649,-16.131 64.549,-15.99C64.966,-15.613 64.97,-15.738 65.21,-15.723L65.186,-15.728L65.75,-15.655L65.588,-15.744C65.706,-16.857 66.311,-16.125 66.654,-16.919C66.315,-16.165 66.664,-16.534 66.737,-16.084C66.898,-15.995 67.13,-15.907 67.104,-15.769C67.257,-16.185 67.575,-15.592 67.787,-16.195C67.837,-16.057 68.048,-16.244 68.082,-15.874C68.368,-16.062 67.947,-16.103 67.929,-16.288C68.296,-16.89 69.208,-15.977 69.745,-16.808C70.282,-17.222 70.281,-17.729 70.787,-18.099C71.029,-17.915 70.752,-17.544 70.752,-17.544C71.105,-17.406 71.325,-17.497 71.576,-17.724C71.545,-17.587 71.629,-17.495 71.753,-17.354C71.975,-17.443 71.791,-17.908 72.142,-17.766C72.125,-17.595 72.116,-17.325 72.041,-17.141C72.282,-17.333 72.491,-17.66 72.744,-17.852C72.874,-17.619 72.658,-17.436 72.595,-17.252C72.886,-17.435 73.363,-17.659 73.376,-18.073L73.142,-18.171C73.253,-18.215 73.275,-17.845 73.206,-17.755C73.002,-17.386 72.785,-17.804 72.738,-17.945L72.918,-18.081C72.527,-18.872 72.141,-17.766 71.728,-17.724L71.759,-18.371L71.458,-17.773C71.334,-17.911 71.196,-18.238 71.375,-18.374C71.017,-18.609 71.168,-18.1 70.842,-18.377C70.803,-18.423 70.808,-18.455 70.828,-18.485L70.586,-18.238C70.613,-18.379 70.44,-18.657 70.635,-18.609C70.044,-18.841 69.92,-17.962 69.621,-18.378L69.655,-18.425C68.997,-18.055 69.691,-17.963 69.287,-17.316L68.669,-18.329L68.707,-17.867C68.63,-17.865 68.479,-17.864 68.462,-18.048C68.265,-17.678 68.555,-17.866 68.467,-17.54C68.02,-17.861 67.551,-17.117 67.297,-17.806C67.256,-17.438 67.696,-17.627 67.381,-17.301C67.086,-18.036 66.983,-17.062 66.578,-17.331C66.577,-17.748 66.932,-17.617 66.524,-17.887C66.499,-17.175 65.866,-17.876 65.628,-17.68C65.75,-17.151 65.099,-17.311 64.694,-17.016C64.677,-17.2 63.771,-17.086 63.3,-17.163L63.289,-17.255C63.35,-16.7 62.892,-16.684 62.608,-16.489C62.534,-16.81 62.556,-16.951 62.688,-17.139L62.393,-17.057C62.369,-16.867 62.302,-16.753 62.126,-16.64L62.092,-17.057C61.703,-16.93 61.429,-16.373 60.85,-16.495C60.926,-16.117 61.538,-15.578 61.076,-15.181C61,-15.376 60.884,-15.712 61.001,-15.833C60.963,-15.794 60.885,-15.621 60.769,-15.681L60.887,-16.077C60.616,-16.16 60.846,-15.762 60.654,-15.742C60.577,-16.029 60.46,-15.907 60.423,-16.141C60.462,-16.182 60.617,-16.068 60.655,-16.2C60.434,-16.193 60.135,-16.292 59.991,-16.484C60.055,-16.327 60.1,-16.1 59.958,-16.021C59.573,-15.888 59.727,-16.325 59.456,-16.405C59.417,-16.18 59.108,-16.312 59.225,-15.885C59.11,-15.853 59.031,-16.046 58.953,-16.148C58.805,-15.902 58.021,-15.819 58.383,-15.433L58.443,-15.419C58.436,-15.407 58.425,-15.404 58.416,-15.391L58.417,-15.391L58.416,-15.391C57.878,-14.776 56.969,-15.22 56.366,-14.843L56.324,-14.985C55.981,-14.704 55.482,-14.62 55.298,-14.229C55.183,-14.194 54.945,-14.404 54.942,-14.587C54.676,-14.387 54.692,-14.22 54.188,-14.317C54.41,-14.658 54.015,-14.503 54.438,-14.594C54.012,-14.594 53.852,-14.791 53.558,-14.272C53.585,-14.679 53.121,-14.634 52.971,-14.467L53.326,-14.295C53.135,-14.176 52.944,-14.15 52.75,-14.122L52.696,-14.629C51.71,-14.951 51.588,-13.178 50.666,-13.946C50.566,-13.545 51.174,-13.854 51.115,-13.405C50.73,-13.35 50.124,-13.9 50.009,-13.863C49.421,-13.955 49.778,-13.014 49.197,-13.016C49.321,-12.871 49.537,-12.442 49.205,-12.152C48.821,-12.091 48.516,-12.703 48.698,-12.919C48.78,-12.963 48.84,-12.924 48.856,-12.865C48.953,-12.967 49.082,-13.091 48.875,-13.225L48.886,-13.04C48.646,-13.152 48.154,-12.957 48.175,-13.275C47.957,-13.018 48.154,-12.958 48.387,-12.942C47.837,-13.022 47.658,-12.695 47.122,-12.691C47.23,-12.625 47.37,-12.452 47.294,-12.427C46.519,-12.389 47.098,-12 46.651,-11.758C46.291,-11.916 46.529,-12.402 46.129,-12.016C45.775,-12.084 45.907,-12.438 45.974,-12.617C45.655,-12.137 45.083,-12.536 44.812,-12.505L44.992,-12.723C44.884,-12.594 44.771,-12.554 44.656,-12.513L44.909,-12.227C44.753,-12.235 44.639,-12.195 44.59,-12.335C44.532,-12.065 44.9,-11.818 44.736,-11.417C44.494,-11.521 44.259,-11.034 44.033,-11.454C44.652,-11.512 43.805,-11.876 44.256,-12.124C44.184,-12.037 44.071,-11.998 43.914,-12.007C43.875,-12.049 43.899,-12.105 43.926,-12.144C43.238,-12.34 43.864,-11.553 43.302,-11.352C43.28,-11.629 42.995,-11.776 42.923,-11.688C43.151,-11.768 43.188,-11.313 43.054,-11.045C42.624,-11.103 42.721,-10.754 42.525,-10.705L42.774,-10.695C42.796,-10.419 42.605,-10.386 42.388,-10.21C42.292,-10.395 42.562,-10.43 42.441,-10.482C42.335,-9.938 41.644,-10.691 41.374,-10.247C41.129,-10.346 41.173,-10.706 40.971,-10.759C40.667,-10.267 40.369,-10.91 40.021,-10.464C40.286,-10.184 40.275,-10.275 40.088,-9.823L40.737,-10.355L40.454,-9.681C40.679,-9.766 40.842,-10.08 40.999,-10.077C40.88,-9.715 40.871,-9.807 41.087,-9.573C40.583,-9.949 40.599,-9.04 40.111,-9.235L39.788,-10.06C39.104,-10.207 39.016,-9.25 38.242,-9.167L38.523,-9.119C38.568,-8.758 38.119,-8.892 37.954,-8.666C37.857,-8.947 37.676,-8.986 37.507,-9.114C37.606,-8.917 36.995,-8.914 37.171,-8.346L36.709,-8.567C36.091,-8.463 36.426,-7.517 35.86,-7.369C35.884,-7.734 35.556,-7.816 35.815,-8.186C35.636,-8.111 35.456,-8.083 35.539,-7.896C35.358,-8.016 35.22,-7.306 34.94,-7.486C34.921,-7.333 35.03,-7.042 34.823,-6.972C34.776,-7.016 34.761,-7.105 34.761,-7.105C34.823,-6.972 34.54,-6.781 34.853,-6.566C33.916,-7.137 33.394,-5.782 32.578,-6.247C32.245,-5.967 31.837,-5.649 31.511,-5.446C31.491,-5.535 31.443,-5.576 31.521,-5.583C30.923,-5.574 31.638,-4.681 30.965,-4.668C30.464,-4.94 31.12,-5.047 30.865,-5.114C30.318,-5.931 30.294,-4.641 29.661,-4.937L29.718,-5.036C29.28,-5.171 29.239,-4.34 28.771,-4.137C28.771,-4.137 28.748,-4.224 28.698,-4.265C28.651,-3.662 28.178,-3.185 27.844,-2.805C27.769,-3.209 27.924,-3.094 27.64,-3.373C27.484,-3.21 28.023,-2.88 27.715,-2.557C27.484,-2.659 27.12,-2.646 26.86,-2.969L27.198,-3.209C26.729,-3.548 26.754,-2.907 26.524,-2.863L26.419,-3.073C25.93,-2.654 26.248,-2.167 25.666,-1.818L25.823,-1.712C25.854,-1.02 25.382,-1.803 25.329,-1.235L24.895,-1.654C24.773,-1.398 24.529,-0.691 24.248,-0.341C24.185,-0.838 24.464,-1.331 24.577,-1.724C24.372,-1.59 23.928,-1.198 24,-0.889C24.045,-0.993 24.059,-1.184 24.191,-1.168C24.225,-0.615 24.05,-0.203 23.665,0.083C23.029,-0.881 22.495,0.626 21.664,0.162C21.263,1.034 20.229,1.126 19.516,1.853C20.376,2.278 19.315,2.07 19.976,2.709C19.844,2.907 19.768,2.956 19.713,2.926L18.823,3.004C18.518,2.924 18.848,2.703 18.692,2.568C18.268,2.869 18.269,2.431 17.851,2.489C18.127,2.68 18.042,2.952 17.745,3.068L18.335,3.087C18.158,3.935 17.35,2.962 17.169,3.82L17.13,3.451C16.983,3.834 16.147,4.426 16.427,5.2C16.305,5.174 16.063,5.062 16.13,4.899C15.429,5.468 15.349,6.866 14.56,7.074L14.438,6.875C14.375,7.042 14.56,7.368 14.254,7.373C14.192,7.304 14.131,7.175 14.07,7.224C14.07,7.342 14.077,7.813 13.834,7.891L13.768,7.585C12.976,8.047 13.367,8.988 13.038,9.642C12.531,9.219 11.937,9.612 11.639,9.809L11.573,9.741C10.863,10.469 10.94,11.425 10.593,12.319C9.66,12.342 9.19,13.708 8.338,14.246C8.519,14.198 8.748,14.558 8.708,14.73C8.474,14.833 8.744,15.479 8.263,15.111L8.317,15.054C7.729,14.852 7.606,15.314 7.407,15.601L8.036,16.087C6.576,16.228 7.093,18.307 5.977,18.198C6.033,18.491 5.891,18.724 5.949,19.012L5.59,18.785C5.188,19.257 4.97,19.487 4.689,20.198L4.5,19.913C4.269,20.276 5.306,20.988 5.141,21.34L4.529,21.135C4.186,21.789 3.313,22.184 3.502,23.111C3.425,23.057 3.272,22.953 3.304,22.834C3.131,23.137 2.308,23.853 3.144,24.128C2.635,23.883 2.743,24.786 2.799,25.253L2.449,25.015C2.788,25.553 2.916,25.625 2.853,26.113C2.757,26.191 2.509,26.06 2.668,25.971C2.314,26.215 2.906,26.4 2.516,26.713L2.344,26.449C2.154,26.782 2.297,26.815 2.493,27.134C2.546,27.419 2.094,27.743 1.726,27.643C1.917,27.784 2.118,28.099 1.932,28.261C1.789,28.233 1.739,28.122 1.715,28.067C1.206,28.544 1.796,29.129 1.248,29.374C1.117,29.329 1.042,29.329 0.989,29.347C1.194,28.883 1.374,28.515 1.387,28.562C1.033,28.41 0.811,28.765 0.448,28.255C0.585,28.677 0.951,29.437 0.628,29.737C0.586,29.741 0.545,29.745 0.484,29.736L0.46,29.681C0.389,29.752 0.39,29.843 0.42,29.938C0.31,30.032 0.24,30.092 0.19,30.205C-0.123,30.132 -0.138,30.584 -0.225,30.771C0.174,30.907 0.016,31.133 0.43,31.024C0.39,31.044 0.396,30.97 0.428,30.837C0.428,30.803 0.435,30.767 0.418,30.739L0.448,30.766C0.489,30.637 0.542,30.47 0.602,30.281C0.744,30.511 0.852,30.733 0.554,30.859C0.77,31.055 0.989,31.262 1.088,31.37C0.441,31.416 -0.048,31.809 -0.415,31.754C-0.424,32.418 -0.777,33.197 -0.15,33.826C-0.111,34.026 -0.43,33.944 -0.569,33.967C-0.612,33.844 -0.561,33.733 -0.651,33.643C-0.573,34.045 -0.914,34.664 -0.416,34.917C-0.796,35.26 -0.819,34.521 -0.93,35.129L-1.064,34.998C-2.281,35.893 -0.291,37.28 -1.755,38.235C-1.665,38.164 -1.622,38.128 -1.528,38.135C-2.406,39.48 -1.872,41.267 -2.953,42.558C-3.204,42.942 -2.868,43.061 -2.662,43.368L-3.125,43.367L-2.695,43.908C-2.435,44.594 -3.989,44.775 -3.424,45.694L-3.105,45.645C-3.221,45.915 -3.083,46.567 -3.419,46.463C-3.368,46.501 -3.12,46.607 -3.293,46.692L-3.528,46.663L-3.231,47.421C-3.482,47.935 -4.149,47.196 -4.314,47.983C-4.268,48.293 -3.756,48.915 -3.582,48.824C-3.553,48.708 -3.391,48.543 -3.154,48.566L-3.072,48.848C-2.387,48.99 -1.707,49.278 -1.128,48.709L-1.484,48.205L-1.127,48.111L-1.163,48.487C-0.815,48.32 -1.074,48.147 -1.243,47.968C-1.06,47.959 -0.925,47.915 -0.846,47.838L-1.44,47.301C-1.162,47.291 -0.934,47.579 -0.741,47.312C-1.016,47.059 -1.375,47.412 -1.526,47.041C-1.18,46.878 -0.935,46.983 -1.165,46.69C-0.982,46.684 -0.876,46.756 -0.813,46.866C-0.998,46.61 -0.808,46.268 -1.15,46.091C-0.723,45.938 -1.111,45.326 -0.465,45.467C-0.607,45.37 -0.902,44.985 -0.891,44.776C-0.183,45.296 -0.703,44.026 0.11,44.291C-0.545,43.875 0.015,43.251 -0.267,42.684C-0.218,42.724 -0.118,42.802 -0.163,42.836C-0.044,42.578 0.183,42.547 0.353,42.404C-0.212,42.239 -0.249,41.786 -0.55,41.472C0.077,41.271 0.076,41.835 0.629,41.856C0.161,41.763 0.297,41.171 -0.112,41.189C0.295,41.021 0.111,41.012 0.617,41.001C-0.084,40.779 0.558,40.738 0.175,40.417C0.622,40.143 0.867,40.496 0.755,40.041C1.022,39.909 1.181,40.328 1.181,40.328" style="fill:rgb(255,76,148);fill-rule:nonzero;"/>
                </g>
                <g transform="matrix(0.252871,0.853511,-0.676768,0.31891,319.262292,43.253075)">
                    <path d="M0,-27.641C0.075,-27.668 0.05,-27.587 0.013,-27.509C-0.012,-27.514 -0.044,-27.516 -0.092,-27.509L-0.122,-27.467C-0.078,-27.535 -0.036,-27.598 0,-27.641M-0.863,-24.766C-0.888,-24.799 -0.928,-24.826 -0.973,-24.849C-0.909,-24.98 -0.824,-25.104 -0.8,-25.081C-0.864,-25.006 -0.842,-24.895 -0.863,-24.766M-1.138,-24.917L-1.142,-24.91C-1.174,-24.918 -1.203,-24.924 -1.22,-24.928C-1.203,-24.926 -1.18,-24.923 -1.138,-24.917M-4.929,-25.456C-4.802,-25.389 -4.643,-25.923 -4.483,-26.201C-4.252,-26.269 -4.577,-25.794 -4.64,-25.512C-4.478,-25.597 -4.183,-26.019 -4.115,-25.962C-4.148,-25.877 -4.147,-25.84 -4.214,-25.745C-3.915,-26.09 -3.883,-25.61 -3.51,-26.045C-3.522,-25.996 -3.538,-25.953 -3.554,-25.914C-3.452,-26.173 -3.33,-26.427 -3.236,-26.605C-3.168,-26.582 -2.96,-26.861 -3.099,-26.524C-3.133,-26.554 -3.202,-26.424 -3.271,-26.332L-3.133,-26.439C-3.308,-25.943 -3.305,-26.325 -3.477,-25.978C-3.274,-26.067 -2.928,-26.37 -2.895,-26.188C-3.107,-25.724 -3.203,-26.155 -3.278,-25.683L-3.341,-25.936C-3.588,-25.159 -3.407,-26.034 -3.689,-25.211C-3.561,-24.978 -3.352,-25.328 -3.224,-25.094C-3.049,-25.322 -3.045,-25.474 -2.87,-25.702C-2.348,-26.003 -3.247,-24.454 -2.724,-24.947C-2.511,-25.217 -2.183,-25.772 -2.198,-25.391L-2.522,-24.912C-2.36,-24.757 -2.017,-25.578 -2.002,-25.128C-2.147,-24.949 -2.245,-25.043 -2.249,-24.968C-2.338,-24.497 -2,-25.203 -1.899,-25.148L-2.126,-24.69C-1.885,-24.648 -1.479,-24.848 -1.208,-24.795C-1.296,-24.671 -1.414,-24.555 -1.439,-24.389C-1.03,-24.446 -0.867,-23.987 -0.753,-23.567L-0.425,-23.883C-0.403,-23.864 -0.482,-23.685 -0.552,-23.628C-0.533,-23.421 -0.403,-23.864 -0.264,-23.982C-0.188,-23.972 -0.315,-23.717 -0.421,-23.627C-0.044,-23.835 0.527,-23.993 0.477,-23.473L0.37,-23.384C0.428,-23.14 1.016,-24.045 0.941,-23.608L0.873,-23.559C1.1,-23.19 1.683,-23.304 1.575,-22.582C1.964,-23.085 1.744,-22.136 2.245,-22.865C2.193,-22.376 2.054,-22.279 2.154,-21.862C2.201,-21.783 2.561,-22.257 2.698,-22.277L2.446,-21.89L2.83,-22.217L2.587,-21.714L2.733,-21.76C2.716,-21.804 2.779,-21.978 2.858,-22.086C3.1,-22.176 2.986,-21.613 2.857,-21.414L3.373,-21.541C3.262,-21.391 3.177,-21.371 3.071,-21.299C3.493,-21.585 2.828,-20.876 3.214,-21.138C3.253,-21.238 3.379,-21.359 3.435,-21.434C3.352,-21.155 3.512,-21.04 3.699,-21.055L3.496,-20.808C3.667,-20.592 4.042,-20.62 4.282,-20.446C4.28,-20.629 4.615,-21.069 4.717,-21.062L4.466,-20.641C4.686,-20.856 4.498,-20.846 4.804,-21.081C4.862,-20.971 4.546,-20.583 4.404,-20.489L4.611,-20.551C4.533,-20.427 4.463,-20.382 4.35,-20.234C4.57,-20.451 4.257,-19.7 4.625,-20.085L4.547,-19.961C4.785,-19.788 4.994,-19.849 5.202,-19.728C5.452,-20.068 5.474,-19.937 5.731,-20.171C5.797,-19.957 5.76,-19.574 5.953,-19.478C6.199,-19.558 6.2,-19.74 6.404,-19.901C6.192,-19.58 6.314,-19.526 6.091,-19.352C6.256,-19.302 6.287,-19.295 6.664,-19.357C6.762,-19.484 6.79,-19.555 6.894,-19.635C6.971,-19.643 6.847,-19.448 6.706,-19.328L6.669,-19.309C6.972,-19.412 6.863,-19.098 6.725,-18.854C6.595,-18.604 6.437,-18.418 6.836,-18.533L6.797,-18.523C6.945,-18.533 7.099,-18.536 7.257,-18.53C7.232,-18.418 6.972,-18.462 6.781,-18.305C7.449,-18.355 6.804,-17.995 7.248,-17.955C6.717,-17.758 6.745,-17.684 6.835,-17.587C6.915,-17.495 7.048,-17.37 6.684,-17.294L6.95,-17.305C7.212,-17.262 6.802,-17.254 6.737,-17.23C6.946,-17.227 6.978,-17.269 7.124,-17.241C7.276,-17.048 7.156,-16.837 6.949,-16.694C6.717,-16.462 6.401,-16.208 6.211,-15.958C6.086,-15.767 7.513,-15.468 6.823,-15.369L6.369,-15.58C6.808,-14.984 6.088,-14.708 6.436,-14.134C6.335,-14.194 6.194,-14.24 6.209,-14.281C5.837,-14.301 6.083,-13.956 6.362,-13.863C6.309,-13.808 6.104,-13.93 5.949,-13.936C5.718,-13.913 6.311,-13.567 5.955,-13.632C5.897,-13.642 5.853,-13.694 5.832,-13.719C5.978,-13.606 5.7,-13.462 6.112,-13.385C5.871,-13.289 6.188,-13.02 5.909,-12.973C6.318,-12.737 5.601,-12.774 6.211,-12.53C5.575,-12.766 5.596,-12.433 5.86,-12.224C5.679,-12.328 5.629,-12.209 5.375,-12.344C5.344,-12.227 5.425,-12.079 5.76,-11.98C4.924,-12.047 6.216,-11.327 5.196,-11.568C5.409,-11.1 5.522,-10.695 5.553,-10.329C4.927,-10.582 5.619,-10.694 4.95,-10.933C5.103,-10.543 5.577,-10.165 5.312,-9.933C5.196,-9.891 5.055,-10.081 4.957,-10.149C5.103,-9.755 4.679,-9.606 4.921,-9.211C4.863,-9.235 4.81,-9.288 4.772,-9.334C4.773,-9.274 4.632,-9.251 4.921,-9.144L4.863,-9.224C5.311,-9.143 5.649,-8.678 5.865,-8.581C5.08,-8.993 5.556,-8.405 4.576,-8.954C4.616,-8.898 4.735,-8.802 4.929,-8.734C4.853,-8.706 4.735,-8.734 4.538,-8.871C4.62,-8.626 4.95,-8.571 4.877,-8.406C4.739,-8.462 4.699,-8.516 4.543,-8.599C4.78,-8.407 5.016,-8.214 4.842,-8.12C4.762,-8.161 4.647,-8.188 4.666,-8.229C4.612,-7.971 5.219,-7.529 4.852,-7.366C4.283,-7.685 4.618,-7.354 4.092,-7.548L4.189,-7.343L4.465,-7.299C4.406,-7.177 4.74,-6.914 4.526,-6.874L4.35,-7.054L4.354,-6.779L4.604,-6.833C4.821,-6.599 5.268,-6.583 5.056,-6.474C5.016,-6.529 4.999,-6.35 4.666,-6.408L4.665,-6.409C4.806,-6.28 4.955,-6.146 4.788,-6.104C4.612,-6.147 4.221,-6.354 4.104,-6.383C4.514,-6.147 4.106,-6.039 4.539,-5.776C4.44,-5.846 4.167,-5.955 4.109,-5.969L4.441,-5.777C4.305,-5.764 4.247,-5.777 4.033,-5.873C3.898,-5.723 4.715,-5.666 4.348,-5.571C4.326,-5.599 4.27,-5.611 4.229,-5.667C3.998,-5.516 4.292,-5.174 4.042,-5.049C3.496,-5.199 3.98,-5.269 3.513,-5.378C3.498,-5.06 3.915,-4.552 3.686,-4.33L3.763,-4.358C4.49,-4.033 3.318,-4.299 3.614,-4.027C3.572,-4.081 3.219,-4.23 3.298,-4.189C3.107,-4.049 3.336,-3.736 3.463,-3.366L3.285,-3.474C3.073,-3.428 3.077,-3.221 2.945,-3.134C3.123,-3.028 3.066,-2.972 3.36,-2.909C2.129,-2.943 3.693,-1.995 2.663,-1.996C2.674,-2.036 2.527,-2.149 2.515,-2.118L2.593,-1.775C2.928,-1.683 2.804,-1.743 3.08,-1.712C3.261,-1.609 3.383,-1.478 3.359,-1.41C3.187,-1.61 2.833,-1.592 2.631,-1.6C2.734,-1.575 2.839,-1.518 2.942,-1.487C2.311,-1.541 3.594,-1.236 3.135,-1.171L2.966,-1.241C3.029,-1.136 3.234,-0.99 3.158,-0.927C2.767,-1.02 3.007,-1.065 2.696,-1.176C2.68,-1.053 3.343,-0.712 2.929,-0.735C2.839,-0.818 2.86,-0.888 2.771,-0.971C2.287,-1.007 2.396,-0.956 2.297,-0.895L2.31,-0.9L2.043,-0.771L2.181,-0.782C3.129,-0.319 2.264,-0.432 2.861,-0.033C2.298,-0.413 2.513,-0.176 2.083,-0.325C1.948,-0.312 1.79,-0.276 1.674,-0.336C1.997,-0.135 1.351,-0.262 1.824,0.025C1.682,-0.012 1.781,0.12 1.435,-0.005C1.509,0.15 1.687,0.038 1.86,0.101C2.288,0.426 1.141,0.372 1.732,0.833C1.943,1.142 2.41,1.309 2.594,1.58C2.349,1.595 2.093,1.391 2.093,1.391C1.854,1.455 1.87,1.554 2.004,1.704C1.886,1.651 1.775,1.649 1.606,1.645C1.621,1.744 2.109,1.828 1.87,1.895C1.716,1.838 1.468,1.753 1.32,1.671C1.422,1.809 1.669,1.978 1.774,2.116C1.52,2.091 1.411,1.965 1.257,1.889C1.342,2.042 1.415,2.267 1.802,2.387L1.959,2.338C1.969,2.386 1.615,2.289 1.55,2.24C1.263,2.066 1.719,2.115 1.863,2.141L1.939,2.239C2.794,2.344 1.864,1.899 1.958,1.752L2.548,1.96L2.085,1.682C2.251,1.687 2.596,1.748 2.667,1.844C2.994,1.809 2.477,1.695 2.834,1.685C2.889,1.688 2.917,1.7 2.938,1.715L2.785,1.565C2.906,1.617 3.216,1.656 3.112,1.698C3.508,1.602 2.737,1.277 3.212,1.328L3.245,1.353C3.108,1.038 2.809,1.21 2.342,0.868L3.468,1.041L3.035,0.891C3.059,0.869 3.107,0.825 3.281,0.885C3.009,0.699 3.084,0.847 2.817,0.708C3.256,0.695 2.737,0.294 3.445,0.474C3.125,0.327 3.15,0.521 2.959,0.313C3.723,0.5 2.879,0.114 3.258,0.101C3.634,0.256 3.397,0.303 3.777,0.293C3.145,0.02 3.985,0.111 3.895,-0.024C3.377,-0.195 3.749,-0.307 3.631,-0.527C3.801,-0.46 4.018,-0.744 4.254,-0.831L4.34,-0.797C3.829,-1.004 3.977,-1.129 3.912,-1.281C4.222,-1.168 4.337,-1.104 4.455,-0.995L4.49,-1.102C4.333,-1.185 4.257,-1.25 4.222,-1.34L4.601,-1.177C4.63,-1.326 4.247,-1.625 4.571,-1.716C4.214,-1.857 3.512,-1.93 3.341,-2.214C3.539,-2.151 3.875,-2.037 3.938,-1.957C3.917,-1.983 3.796,-2.076 3.892,-2.079L4.193,-1.883C4.367,-1.914 3.934,-2.026 3.989,-2.082C4.267,-1.98 4.205,-2.06 4.423,-1.97C4.443,-1.943 4.287,-1.954 4.387,-1.888C4.464,-1.946 4.662,-1.976 4.883,-1.93C4.722,-1.981 4.508,-2.066 4.492,-2.135C4.522,-2.285 4.844,-2.061 5.016,-2.091C4.836,-2.197 5.07,-2.213 4.656,-2.37C4.674,-2.41 4.871,-2.346 4.989,-2.32C4.833,-2.462 5.066,-2.683 4.594,-2.766L4.558,-2.757C4.552,-2.765 4.55,-2.768 4.544,-2.776C4.224,-3.174 4.969,-3.19 4.882,-3.497L5.021,-3.444C4.918,-3.648 5.051,-3.798 4.794,-4.016C4.812,-4.058 5.086,-4.017 5.243,-3.935C5.182,-4.085 5.032,-4.158 5.321,-4.226C5.519,-4.022 5.549,-4.181 5.454,-4.045C5.628,-4.141 5.861,-4.085 5.544,-4.386C5.877,-4.195 6.03,-4.317 5.951,-4.426L5.66,-4.427C5.638,-4.522 5.695,-4.577 5.752,-4.632L6.202,-4.412C6.881,-4.477 5.45,-5.317 6.482,-5.162C6.189,-5.368 6.191,-5.095 5.839,-5.315C5.956,-5.424 6.676,-5.297 6.694,-5.338C7.023,-5.418 6.085,-5.779 6.337,-5.901C6.163,-5.942 5.712,-6.096 5.614,-6.302C5.729,-6.412 6.374,-6.189 6.472,-6.051C6.473,-6.014 6.415,-6.019 6.359,-6.043C6.402,-5.975 6.45,-5.89 6.65,-5.871L6.492,-5.955C6.687,-5.954 6.743,-6.145 6.997,-5.994C6.88,-6.158 6.743,-6.145 6.627,-6.105C6.936,-6.181 6.742,-6.37 6.974,-6.483C6.872,-6.492 6.667,-6.543 6.68,-6.571C6.989,-6.748 6.413,-6.81 6.411,-7.016C6.703,-7.015 6.998,-6.739 6.858,-7C7.072,-7.041 7.306,-6.848 7.423,-6.751C7.169,-7.041 7.753,-6.971 7.849,-7.04L7.948,-6.902C7.889,-6.985 7.908,-7.026 7.926,-7.068L7.576,-7.151C7.653,-7.178 7.672,-7.22 7.809,-7.164C7.613,-7.303 7.243,-7.344 6.987,-7.564C7.182,-7.564 6.888,-7.84 7.336,-7.688C7.104,-7.537 7.787,-7.537 7.787,-7.33C7.748,-7.386 7.767,-7.427 7.845,-7.454C7.897,-7.442 7.933,-7.411 7.953,-7.387C8.425,-7.433 7.493,-7.677 7.586,-7.881C7.823,-7.757 8.075,-7.744 8.036,-7.799C7.997,-7.717 7.606,-7.922 7.447,-8.074C7.694,-8.132 7.362,-8.277 7.412,-8.338L7.29,-8.293C7.053,-8.418 7.111,-8.473 7.069,-8.597C7.266,-8.529 7.169,-8.46 7.267,-8.46C6.872,-8.734 7.81,-8.518 7.573,-8.779C7.768,-8.781 8.042,-8.603 8.179,-8.619C7.92,-8.907 8.588,-8.664 8.389,-8.939C8.036,-9.018 8.114,-8.978 7.835,-9.224L7.96,-8.852L7.545,-9.221C7.508,-9.138 7.686,-8.96 7.609,-8.932C7.371,-9.123 7.45,-9.082 7.157,-9.149C7.703,-9.071 6.955,-9.491 7.345,-9.494L8.171,-9.172C8.619,-9.233 7.884,-9.696 8.191,-9.881L8.016,-9.85C7.7,-10.011 8.031,-10.031 7.93,-10.167C8.204,-10.055 8.325,-10.071 8.511,-10.043C8.304,-10.115 8.603,-10.23 8.058,-10.46L8.468,-10.443C8.698,-10.602 7.768,-10.978 7.936,-11.149C8.216,-10.977 8.447,-11 8.613,-10.782C8.641,-10.85 8.714,-10.894 8.521,-10.965C8.71,-10.943 8.215,-11.293 8.502,-11.261C8.39,-11.334 8.102,-11.448 8.152,-11.517C8.211,-11.506 8.29,-11.468 8.29,-11.468C8.152,-11.517 8.146,-11.656 7.812,-11.698C8.758,-11.603 7.962,-12.308 8.772,-12.238C8.729,-12.423 8.7,-12.637 8.725,-12.782C8.806,-12.745 8.865,-12.735 8.827,-12.719C9.152,-12.824 8.059,-13.102 8.422,-13.222C8.914,-13.184 8.63,-13.026 8.825,-13.039C9.762,-12.769 8.785,-13.343 9.375,-13.316L9.418,-13.263C9.771,-13.277 9.151,-13.652 9.273,-13.816C9.273,-13.816 9.353,-13.782 9.414,-13.772C8.977,-14.045 8.891,-14.328 8.811,-14.543C9.161,-14.382 8.98,-14.406 9.363,-14.331C9.334,-14.426 8.759,-14.483 8.702,-14.671C8.917,-14.663 9.127,-14.727 9.529,-14.63L9.505,-14.473C10.042,-14.403 9.548,-14.673 9.658,-14.728L9.88,-14.655C9.87,-14.912 9.302,-15.071 9.409,-15.31L9.231,-15.329C8.703,-15.614 9.579,-15.36 9.194,-15.606L9.779,-15.499C9.664,-15.628 9.309,-15.954 9.241,-16.145C9.645,-15.946 9.812,-15.704 10.033,-15.52C10.061,-15.61 10.072,-15.84 9.801,-15.955C9.847,-15.906 9.975,-15.825 9.877,-15.811C9.457,-16.028 9.267,-16.245 9.315,-16.434C10.449,-16.207 9.68,-16.926 10.564,-17.046C10.152,-17.472 10.744,-17.91 10.576,-18.435C9.727,-18.098 10.527,-18.576 9.631,-18.36C9.551,-18.448 9.556,-18.488 9.612,-18.511C9.765,-18.654 9.918,-18.808 10.056,-18.969C10.287,-19.126 10.283,-18.922 10.478,-18.987C10.465,-19.263 10.817,-19.205 10.991,-19.461C10.688,-19.322 10.521,-19.405 10.579,-19.593C10.476,-19.474 10.367,-19.359 10.253,-19.247C9.677,-19.407 10.864,-19.83 10.259,-19.999L10.575,-20.008C10.345,-20.12 10.229,-20.704 9.503,-20.464C9.575,-20.546 9.76,-20.721 9.864,-20.685C9.683,-21.176 8.65,-21.011 8.751,-21.551L8.934,-21.684C8.826,-21.702 8.534,-21.484 8.614,-21.718C8.681,-21.783 8.792,-21.858 8.771,-21.895C8.682,-21.871 8.347,-21.758 8.346,-21.922L8.583,-22.054C8.383,-22.598 7.72,-21.946 7.413,-21.981C7.803,-22.514 7.72,-22.839 7.678,-23.001L7.736,-23.075C7.474,-23.368 6.89,-23.004 6.457,-22.995C6.691,-23.709 6.024,-23.662 5.963,-24.19C5.94,-24.061 5.666,-23.771 5.577,-23.751C5.585,-23.908 5.133,-23.5 5.484,-23.994L5.501,-23.968C5.785,-24.494 5.556,-24.459 5.455,-24.545L4.994,-23.9C5.349,-25.048 4.013,-24.046 4.426,-25.011C4.248,-24.89 4.163,-24.948 3.985,-24.827L4.221,-25.18C4.087,-25.396 4.019,-25.504 3.724,-25.574L3.938,-25.798C3.816,-25.909 3.105,-24.878 2.969,-24.936L3.272,-25.495C3.031,-25.635 3.085,-26.258 2.545,-25.918C2.598,-25.994 2.703,-26.145 2.754,-26.143C2.652,-26.227 2.546,-26.78 2.13,-26.014C2.426,-26.499 1.911,-26.212 1.652,-26.077L1.89,-26.421C1.503,-26.032 1.424,-25.909 1.196,-25.873C1.188,-25.942 1.337,-26.179 1.33,-26.058C1.323,-26.319 1.032,-25.776 1.002,-26.055L1.193,-26.251C1.086,-26.353 1.022,-26.224 0.795,-25.998C0.633,-25.902 0.616,-26.229 0.789,-26.565C0.654,-26.376 0.43,-26.15 0.412,-26.287C0.474,-26.416 0.545,-26.476 0.581,-26.506C0.515,-26.873 0.026,-26.266 0.088,-26.705C0.155,-26.827 0.18,-26.892 0.189,-26.935C0.351,-26.829 0.473,-26.732 0.445,-26.713C0.64,-27.045 0.538,-27.183 0.914,-27.58C0.657,-27.393 0.157,-26.954 0.116,-27.187C0.128,-27.223 0.14,-27.259 0.165,-27.313L0.2,-27.343C0.188,-27.393 0.143,-27.378 0.085,-27.337C0.075,-27.416 0.071,-27.473 0.033,-27.501C0.175,-27.787 -0.041,-27.738 -0.102,-27.79C-0.303,-27.419 -0.359,-27.528 -0.445,-27.178C-0.441,-27.21 -0.408,-27.215 -0.354,-27.205C-0.337,-27.21 -0.322,-27.209 -0.303,-27.226L-0.326,-27.197C-0.275,-27.183 -0.212,-27.16 -0.143,-27.127C-0.302,-26.972 -0.447,-26.845 -0.407,-27.091C-0.577,-26.876 -0.751,-26.655 -0.834,-26.55C-0.639,-27.113 -0.665,-27.491 -0.515,-27.823C-0.839,-27.73 -1.083,-27.962 -1.591,-27.33C-1.698,-27.271 -1.553,-27.566 -1.517,-27.688C-1.445,-27.74 -1.409,-27.708 -1.337,-27.799C-1.553,-27.682 -1.732,-27.915 -2.016,-27.439C-2.051,-27.739 -1.696,-27.847 -1.945,-27.874L-1.84,-28.01C-1.857,-29.02 -3.138,-27.085 -3.102,-28.326C-3.099,-28.247 -3.097,-28.21 -3.129,-28.123C-3.461,-28.834 -4.398,-28.192 -4.676,-29.133C-4.784,-29.343 -4.922,-29.017 -5.104,-28.798L-4.993,-29.239L-5.324,-28.804C-5.663,-28.501 -5.457,-29.995 -5.97,-29.385L-5.997,-29.077C-6.095,-29.171 -6.411,-28.966 -6.331,-29.312C-6.354,-29.26 -6.42,-29.005 -6.444,-29.17L-6.415,-29.405C-6.54,-29.287 -6.657,-29.167 -6.764,-29.046C-7.021,-29.224 -6.63,-29.995 -7.142,-30.028C-7.358,-29.927 -7.566,-29.305 -7.463,-29.157C-7.4,-29.151 -7.29,-29.023 -7.257,-28.787L-7.349,-28.659C-7.268,-27.968 -7.082,-27.278 -6.989,-26.776C-6.999,-26.915 -6.996,-27.058 -6.98,-27.202L-6.968,-26.866L-6.986,-26.841C-6.963,-26.521 -6.981,-26.807 -6.957,-27.004C-6.956,-26.824 -6.976,-26.706 -6.96,-26.634C-6.915,-26.849 -6.86,-27.065 -6.796,-27.279C-6.816,-27.005 -6.898,-26.748 -6.854,-26.587C-6.768,-26.886 -6.831,-27.203 -6.715,-27.391C-6.7,-27.067 -6.764,-26.815 -6.656,-27.073C-6.679,-26.895 -6.712,-26.784 -6.746,-26.708C-6.658,-26.911 -6.606,-26.788 -6.483,-27.135C-6.506,-26.734 -6.226,-27.167 -6.401,-26.53C-6.342,-26.678 -6.149,-26.998 -6.076,-27.007C-6.414,-26.279 -5.86,-26.902 -6.148,-26.095C-5.837,-26.738 -5.738,-26.28 -5.444,-26.594C-5.473,-26.544 -5.531,-26.443 -5.532,-26.482C-5.464,-26.394 -5.517,-26.185 -5.512,-26.041C-5.287,-26.587 -5.094,-26.65 -4.877,-26.951C-4.981,-26.379 -5.208,-26.343 -5.379,-25.824C-5.205,-26.267 -5.007,-26.181 -4.891,-26.562C-4.941,-26.203 -4.883,-26.374 -5.031,-25.907C-4.726,-26.576 -4.904,-25.988 -4.653,-26.371C-4.675,-25.987 -4.9,-25.728 -4.675,-25.875C-4.706,-25.643 -4.929,-25.456 -4.929,-25.456" style="fill:rgb(255,76,148);fill-rule:nonzero;"/>
                </g>
            </g>
        </g>
        <g transform="matrix(1.247911,0,0,1.704918,24.958217,220.04918)">
            <g transform="matrix(0.487568,-0.102773,-0.14041,-0.356874,314.748481,-1.034096)">
                <path d="M0,5.195L-0.169,5.091C0.154,4.907 0.076,5.045 0,5.195M-84.133,4.831C-84.221,4.886 -84.226,4.954 -84.203,5.024C-84.13,4.912 -83.954,4.927 -83.76,4.99C-83.796,4.857 -83.884,4.757 -84.133,4.831M-83.385,5.147C-83.376,5.14 -83.371,5.135 -83.363,5.127C-83.016,5.365 -83.138,5.273 -83.385,5.147M-46.34,4.948C-46.211,4.791 -46.02,4.873 -45.806,5.059C-45.965,5.095 -46.144,5.075 -46.34,4.948M-33.193,3.785C-33.028,3.682 -32.703,3.365 -32.573,3.648C-32.75,4.203 -32.904,3.941 -33.193,3.785M-24.584,3.136L-25.181,2.772C-24.52,2.101 -24.008,2.3 -24.577,1.776C-24.585,3.136 -26.801,2.012 -26.817,3.371L-27.21,3.102C-27.101,3.111 -27.087,3.03 -26.979,3.039C-27.746,2.422 -27.484,4.044 -28.447,3.892C-28.784,3.803 -29.023,3.616 -28.803,3.445L-29.531,3.813C-29.747,3.797 -29.703,3.558 -29.488,3.575L-30.613,3.732L-30.605,3.692C-30.76,3.912 -31.115,4.258 -31.289,4.405C-31.583,4.223 -31.149,4.255 -31.228,4.089L-31.845,4.445C-32.11,4.104 -31.601,3.74 -31.167,3.772C-31.792,2.439 -31.677,4.148 -32.958,3.369L-32.374,3.188C-32.773,2.424 -33.226,2.709 -33.901,2.237C-33.74,2.486 -32.54,3.429 -33.209,3.777C-33.403,3.676 -33.656,3.632 -34.017,3.91C-34.031,3.426 -34.385,3.549 -34.832,3.583L-34.813,2.943C-35.292,3.134 -35.249,3.46 -35.529,3.751C-36.069,3.695 -36.188,3.201 -36.32,2.785C-37.183,2.695 -35.714,3.572 -36.733,3.706C-37.454,3.47 -37.955,3.739 -38.813,4.133C-39.317,3.92 -38.727,3.741 -38.908,3.56L-39.352,4.076C-39.461,4.065 -39.426,3.908 -39.408,3.829C-39.784,4.032 -39.438,4.468 -40.029,4.65C-40.191,5.366 -41.242,3.625 -41.976,4.406C-42.155,4.221 -41.886,4.015 -41.939,3.767C-42.946,4.274 -42.802,4.133 -43.635,4.826L-44.333,4.394C-43.823,4.883 -44.49,5.44 -45.08,5.897C-44.9,6.132 -44.746,6.338 -44.641,6.436L-45.576,6.763C-45.687,6.657 -45.589,6.438 -45.432,6.174C-45.496,6.225 -45.557,6.277 -45.604,6.324C-45.932,6.083 -45.752,5.716 -45.509,5.363C-45.402,5.494 -45.291,5.63 -45.182,5.763C-44.946,5.379 -44.726,4.952 -44.768,4.577C-44.829,4.649 -44.945,4.711 -45.073,4.745C-45.012,4.64 -44.972,4.547 -44.999,4.482C-45.029,4.414 -45.127,4.554 -45.281,4.715L-45.478,3.998L-45.534,4.28L-46.729,3.813C-47.607,4.511 -48.389,5.57 -49.776,5.82C-49.418,5.313 -49.675,4.969 -49.635,4.351C-49.283,5.029 -48.565,4.095 -47.86,4.244C-48.229,4.169 -48.139,3.875 -48.042,3.773L-49.325,4.348C-49.28,3.845 -49.582,3.958 -49.904,3.732C-49.688,4.745 -50.87,4.354 -51.397,4.636C-51.416,4.299 -51.279,3.962 -50.655,4.073C-51.317,3.286 -51.596,5.206 -52.252,4.533C-52.098,4.532 -52.017,4.588 -51.95,4.42C-52.321,4.701 -53.188,4.423 -52.968,4.14L-52.814,4.14C-53.827,3.973 -55.911,3.986 -56.112,4.828C-56.116,4.717 -55.921,3.81 -55.851,3.641L-57.84,6.412C-57.635,5.69 -58.143,3.924 -57.274,3.552C-57.51,3.434 -57.802,3.31 -58.327,3.528C-58.169,3.645 -57.982,4.612 -58.212,4.663C-58.781,3.802 -58.616,4.195 -59.333,3.444C-59.096,3.619 -59.447,4.741 -59.837,4.674C-59.764,4.508 -59.792,3.543 -59.641,3.435L-60.693,4.481C-60.436,4.298 -60.583,3.533 -60.777,3.199C-60.692,3.426 -61.615,3.113 -61.883,3.204L-61.49,3.496C-62.574,3.241 -62.698,4.988 -63.789,4.843C-63.637,4.623 -63.346,3.444 -63.888,3.26C-64.188,3.814 -65.249,5.932 -66.266,6.298L-66.423,5.956L-67.205,6.267C-66.656,5.448 -65.193,3.727 -64.43,3.077C-64.819,2.785 -64.512,2.681 -65.128,2.663C-65.318,2.339 -64.753,2.222 -64.571,2.218L-65.981,1.909C-65.978,2.588 -67.135,2.493 -67.132,3.047C-66.594,2.877 -66.053,2.671 -65.516,2.484C-65.51,3.148 -66.589,4.337 -67.595,4.095C-67.827,3.801 -67.287,2.925 -67.288,2.7C-67.44,2.916 -68.291,3.035 -68.368,2.862L-67.903,2.55C-68.44,2.238 -68.911,3.338 -69.523,2.625C-69.753,2.556 -70.13,1.688 -70.212,2.08C-69.913,2.883 -70.082,5.253 -70.399,5.798C-70.478,5.737 -71.562,4.933 -71.788,4.527C-72.108,3.887 -71.051,3.166 -71.323,2.616C-71.357,2.798 -71.595,2.999 -71.692,3.062C-71.92,2.88 -71.527,2.507 -72.07,2.532C-72.235,3.2 -73.149,2.356 -72.387,3.077C-72.932,3.214 -72.927,2.878 -73.544,2.841C-73.399,3.299 -74.271,4.269 -74.822,4.404C-74.77,4.236 -74.861,3.999 -74.906,3.89C-75.976,3.723 -76.508,3.306 -77.506,3.17C-77.577,2.993 -78.031,2.727 -77.788,2.466C-77.947,2.565 -78.109,2.775 -78.419,2.749C-78.935,2.082 -77.722,2.754 -78.081,1.989C-78.172,2.376 -78.948,2.419 -79.419,2.603C-79.368,3.228 -78.422,2.861 -77.952,2.677C-78.06,3.514 -78.943,4.283 -80.047,4.522C-80.91,4.613 -80.332,3.931 -80.494,4.03C-82.035,3.666 -82.04,5.301 -83.254,4.517C-83.69,3.913 -83.117,3.456 -83.174,3.056C-82.467,2.95 -82.185,3.54 -81.722,3.583L-82.25,3.252C-82.009,3.105 -81.538,3.034 -81.314,3.222C-81.673,2.674 -83.94,2.786 -85.066,2.131C-85.307,2.272 -85.703,2.393 -85.563,2.636L-85.173,2.627C-84.892,3.115 -85.981,3.096 -85.533,3.38C-86.09,3.592 -86.74,3.967 -87.42,3.602L-87.455,2.974C-87.469,3.153 -87.044,3.415 -86.813,3.265C-87.157,3.482 -87.776,2.258 -88.237,2.994L-87.804,3.499C-88.367,3.715 -89.112,4.248 -89.719,3.947C-89.531,4.593 -89.56,3.904 -89.226,4.68C-89.471,3.744 -87.595,4.998 -88.074,3.975C-87.744,4.867 -87.326,4.458 -86.829,5.254C-86.815,5.051 -86.982,4.836 -86.461,5.026C-86.427,4.971 -86.358,4.907 -86.315,4.87C-86.3,4.88 -86.294,4.883 -86.281,4.891L-86.307,4.862C-86.279,4.837 -86.275,4.831 -86.316,4.852C-86.43,4.743 -86.517,4.621 -86.541,4.502C-86.2,4.09 -85.351,4.25 -85.026,4.061C-84.723,4.211 -85.195,4.268 -85.055,4.51L-84.569,4.228C-84.596,4.677 -83.833,5.085 -84.627,5.239L-83.952,5.353C-83.59,5.659 -83.053,5.835 -82.687,5.695C-82.38,5.837 -81.805,5.317 -82.135,5.626L-81.031,5.5L-81.037,5.612C-79.992,5.815 -78.776,5.177 -77.683,6.149C-77.314,6.086 -76.931,6 -76.356,6.209L-76.289,6.61C-75.819,6.542 -74.966,7.15 -74.722,6.773C-74.353,7.865 -72.532,7.241 -71.75,7.512L-71.665,7.011C-71.116,7.1 -70.571,7.015 -69.866,6.886L-69.862,6.436C-69.236,6.134 -68.379,6.919 -67.44,6.974C-67.52,7.138 -67.752,7.068 -67.91,6.947C-66.889,8.088 -65.486,6.41 -64.54,7.234C-64.273,7.091 -64.096,7.161 -63.928,7.287C-63.951,7.286 -63.973,7.293 -63.992,7.305C-63.967,7.313 -63.928,7.317 -63.889,7.319C-63.784,7.405 -63.676,7.504 -63.557,7.585C-63.654,7.467 -63.748,7.37 -63.833,7.322C-63.637,7.328 -63.337,7.296 -63.039,7.206L-62.954,7.696C-62.929,7.693 -62.911,7.691 -62.885,7.687C-62.614,7.886 -62.639,7.478 -62.762,7.105C-62.61,7.038 -62.47,6.953 -62.357,6.845C-62.186,7.638 -61.579,6.643 -61.326,7.495C-61.101,7.107 -59.848,7.305 -59.637,6.468C-59.635,6.58 -59.553,6.639 -59.709,6.633C-59.394,6.756 -59.079,6.878 -58.774,6.661L-58.677,7.282L-57.921,6.506C-57.517,6.898 -57.352,7.123 -57.806,7.573C-56.735,6.898 -56.955,7.341 -56.042,6.665L-56.107,7.058C-55.793,7.057 -55.268,6.551 -55.097,6.887C-54.436,7.673 -51.651,7.156 -49.883,7.939C-50.192,6.763 -49.065,8.497 -48.965,7.586C-48.869,7.863 -48.623,8.023 -48.922,8.258C-47.997,8.003 -47.553,8.718 -46.901,7.967C-46.803,8.247 -47.107,8.369 -47.018,8.534C-46.942,8.475 -46.72,8.299 -46.628,8.466C-46.539,8.631 -46.768,8.694 -46.917,8.812C-45.976,8.782 -45.864,7.934 -45.781,7.138C-45.314,7.523 -45.076,7.474 -44.726,6.958C-44.566,7.22 -44.294,7.499 -44.877,7.582C-44.552,7.626 -42.884,7.999 -42.844,7.36C-42.744,7.524 -42.388,7.416 -42.301,7.343C-41.569,7.393 -41.504,7.453 -40.785,7.404L-40.984,7.297C-40.698,6.534 -40.386,7.126 -39.806,7.026L-39.822,7.105C-38.491,7.644 -39.25,6.831 -37.935,7.449L-38.009,6.97C-37.896,5.937 -36.843,7.563 -36.084,7.159L-36.363,6.888C-35.953,6.53 -35.18,8.276 -34.756,8.399C-34.663,8.488 -34.898,8.545 -35.024,8.613C-33.915,9.207 -34.894,7.983 -34.08,7.826C-33.921,8.163 -34.256,8.69 -33.704,8.746C-33.421,9.01 -32.133,7.638 -31.366,8.251C-31.539,7.997 -31.71,7.744 -31.337,7.531C-30.762,7.413 -29.733,8.449 -29.238,7.603C-29.162,7.672 -29.131,7.739 -29.125,7.803C-28.689,7.572 -27.696,7.388 -27.449,6.93C-26.962,8.568 -24.733,6.006 -24.667,7.532L-23.305,7.39L-23.332,7.548C-22.453,7.604 -22.167,7.202 -21.884,6.817C-21.677,6.906 -21.814,7.059 -21.826,7.14C-20.534,7.354 -20.409,7.279 -19.397,6.441L-19.251,6.927C-18.984,6.619 -17.351,7.566 -16.146,6.897C-16.154,6.954 -16.172,7.051 -16.266,7.129C-14.912,6.465 -12.774,8.22 -12.43,6.358L-11.549,5.818C-12.756,5.804 -11.449,5.02 -11.968,4.773C-11.512,4.619 -10.704,5.188 -11.271,5.341L-11.37,5.26C-11.488,6.219 -9.854,5.437 -9.819,6.078C-7.474,5.784 -5.117,6.083 -2.914,5.795L-3.26,5.103L-2.489,5.041C-2.267,5.182 -2.145,5.572 -2.696,5.616C-2.354,5.988 -1.824,5.147 -1.83,4.987C-0.72,5.135 -2.135,5.889 -1.805,5.863L-1.365,5.748L-1.478,5.676C-1.155,5.332 -1.166,5.013 -0.505,4.96C-0.069,5.049 -0.229,5.378 -0.062,5.383C-0.056,5.434 0.003,5.451 0.192,5.37L1.168,5.3L0.7,4.781C1.087,4.441 1.611,4.687 1.073,4.1C1.471,4.555 2.384,4.522 3.253,4.408C4.118,4.271 4.937,4.047 5.162,4.169C5.692,3.653 6.28,3.562 7.017,3.49C6.816,3.402 6.603,2.779 7.242,2.753C7.233,4.113 8.486,3.134 9.159,3.999C8.596,3.445 10.921,3.545 10.05,2.769C10.593,2.789 10.169,3.258 10.623,3.502C11.783,2.8 13.431,3.333 14.938,2.854C14.928,2.676 14.62,2.464 14.899,2.141L15.879,2.842C16.166,2.697 15.961,1.792 16.634,2.279C16.527,2.15 16.366,1.955 16.559,1.859C18.145,1.972 19.653,1.516 21.17,1.098C22.685,0.664 24.22,0.322 25.923,0.754C25.434,0.516 25.701,0.421 26.012,0.335C25.789,0.303 25.917,-0.089 25.822,-0.312L27.245,0.038C27.322,-0.659 28.597,-0.322 28.579,-0.966L28.205,-0.763C28.56,-1.612 27.065,-2.201 26.92,-3.152C26.523,-2.188 25.068,-4.012 24.375,-2.605C24.116,-2.745 24.488,-2.948 24.323,-3.137C24.17,-2.68 23.891,-2.528 23.299,-2.579L23.338,-2.693C21.811,-2.245 21.063,-2.458 19.264,-2.358L19.492,-1.92C19.103,-1.908 18.993,-2.037 18.793,-2.118C18.51,-1.329 19.857,-2.288 19.629,-1.436C18.93,-2.28 16.97,-0.921 16.414,-1.927C15.835,-1.818 16.692,-1.423 16.113,-1.315L15.902,-1.575L15.831,-1.171C15.438,-1.158 15.176,-1.483 15.113,-1.726C15.21,-1.715 15.36,-1.847 15.454,-1.888C14.896,-2.132 14.094,-1.495 13.904,-1.574L14.493,-1.504C12.969,-0.916 10.977,-0.904 9.546,-0.077L9.701,0.123C8.6,0.726 8.72,0.038 7.466,0.442L7.504,0.382C7.284,0.644 6.958,0.813 6.602,0.846C6.883,0.534 5.908,0.447 6.287,0.09C5.089,0.741 5.716,0.539 5.007,1.5L4.755,1.167C4.521,1.546 4.524,1.724 3.895,1.927C4.374,1.524 3.397,1.437 3.924,0.923C2.457,0.358 2.038,2.034 1.244,0.951C0.77,2.051 2.499,1.356 2.183,1.621C2.525,1.913 1.781,2.449 1.339,2.405C0.9,2.442 0.414,1.206 -0.67,1.373C-0.561,1.363 -0.564,1.285 -0.456,1.275C-0.898,1.071 -1.205,1.734 -1.762,1.381C-1.959,2.034 -2.415,1.433 -2.391,2.229L-1.416,1.912C-1.954,2.194 -2.365,3.184 -3.359,2.866C-3.307,2.698 -3.056,2.452 -2.88,2.31C-3.183,2.116 -3.386,2.535 -3.699,2.336C-3.72,1.539 -2.507,2 -1.981,1.318C-2.317,1.027 -3.051,2.043 -2.859,1.151C-3.156,2.293 -3.946,1.16 -4.578,2.087L-4.588,1.609C-4.695,1.699 -4.909,1.954 -5.125,1.971L-4.812,1.307C-5.344,1.909 -6.014,1.014 -6.552,1.351C-5.356,1.208 -6.215,1.894 -5.667,2.175C-7.075,2.972 -6.666,1.035 -8.292,1.437C-8.076,1.347 -7.419,1.632 -7.745,1.887C-8.071,1.823 -8.508,1.686 -8.729,1.459C-9.814,1.672 -8.507,1.926 -8.942,2.265C-9.378,1.729 -9.456,2.555 -9.919,2.79L-9.974,2.31C-11.257,2.134 -10.202,3.345 -11.37,3.092L-10.96,2.377L-11.53,2.61L-11.464,2.051C-12.062,2.523 -12.272,2.439 -12.913,2.352C-12.735,2.675 -12.911,3.232 -13.466,3.305C-13.871,3.06 -13.296,2.827 -14.077,2.978C-13.926,2.659 -13.768,2.261 -13.384,2.668C-13.364,2.507 -13.238,2.347 -13.216,2.189C-13.653,1.904 -14.245,2.222 -14.529,2.257C-14.417,2.262 -14.285,2.275 -14.211,2.337C-14.57,2.603 -14.932,2.846 -15.293,3.098C-15.489,2.93 -15.359,2.775 -15.23,2.623C-15.457,2.692 -15.598,2.924 -15.935,2.991C-15.88,2.594 -15.935,2.192 -15.47,1.972L-16.52,2.487C-16.607,2.322 -17.116,2.061 -16.986,1.907C-17.605,1.721 -18.403,2.775 -19.226,2.531C-19.261,2.61 -19.339,2.688 -19.505,2.757C-20.264,2.724 -20.959,2.294 -21.814,2.896L-22.363,2.232C-23.049,2.443 -21.624,3.065 -22.769,3.416C-23.579,3.7 -23.111,2.841 -23.412,2.662C-23.799,3.034 -24.473,3.785 -25.261,3.246C-25.017,3.103 -24.815,3.199 -24.584,3.136" style="fill:rgb(255,76,148);fill-rule:nonzero;"/>
            </g>
        </g>
    </g>
</svg>
