<?xml version="1.0" encoding="UTF-8" standalone="no"?>
<!DOCTYPE svg PUBLIC "-//W3C//DTD SVG 1.1//EN" "http://www.w3.org/Graphics/SVG/1.1/DTD/svg11.dtd">
<svg width="100%" height="100%" viewBox="0 0 374 45" version="1.1" xmlns="http://www.w3.org/2000/svg" xmlns:xlink="http://www.w3.org/1999/xlink" xml:space="preserve" xmlns:serif="http://www.serif.com/" style="fill-rule:evenodd;clip-rule:evenodd;stroke-linejoin:round;stroke-miterlimit:2;">
    <g transform="matrix(1,0,0,1,0,-59)">
        <g id="ArtBoard1" transform="matrix(1.041783,0,0,0.737705,20.835655,66.377049)">
            <rect x="-20" y="-10" width="359" height="61" style="fill:none;"/>
            <g transform="matrix(0.846411,0.402225,0.225842,-0.947777,41.731229,-72.050974)">
                <g transform="matrix(0.238222,0.808845,-0.814249,0.381428,301.209828,-9.31555)">
                    <path d="M0,30.406C-0.007,30.256 0.086,30.244 0.173,30.258C0.158,30.321 0.144,30.397 0.136,30.5L0.178,30.534C0.108,30.492 0.043,30.451 0,30.406M3.387,29.845C3.333,29.932 3.281,30.047 3.232,30.172C3.086,30.143 2.96,30.056 3,29.982C3.072,30.061 3.226,29.912 3.387,29.845M3.071,30.615L3.079,30.618C3.055,30.7 3.035,30.771 3.021,30.815C3.032,30.774 3.046,30.716 3.071,30.615M1.181,40.328C1.299,39.928 0.707,40 0.422,39.833C0.398,39.305 0.875,39.714 1.192,39.623C1.13,39.284 0.698,38.914 0.782,38.695C0.875,38.702 0.92,38.668 1.015,38.75C0.687,38.311 1.277,37.804 0.859,37.274C0.915,37.26 0.963,37.26 1.005,37.265C0.721,37.244 0.449,37.173 0.26,37.102C0.306,36.916 0.028,36.659 0.395,36.697C0.351,36.805 0.488,36.858 0.58,36.943L0.487,36.705C1.037,36.687 0.581,37.02 0.95,37.132C0.9,36.713 0.616,36.147 0.848,35.906C1.346,36.001 0.809,36.624 1.354,36.382L1.036,36.763C1.904,36.666 0.902,37.012 1.816,36.96C2.126,36.431 1.761,36.239 2.097,35.719C1.872,35.503 1.685,35.631 1.459,35.414C1.254,34.436 2.889,35.189 2.448,34.376C2.181,34.112 1.591,33.834 2.061,33.525L2.552,33.863C2.805,33.337 1.89,33.268 2.47,32.828C2.643,33.01 2.486,33.323 2.582,33.265C3.148,33.053 2.374,32.89 2.483,32.604L2.982,32.725C3.134,32.121 3.011,31.339 3.201,30.669C3.327,30.761 3.429,30.93 3.636,30.841C3.743,29.948 4.394,29.15 5.024,28.524L4.757,28.053C4.792,27.988 4.996,28.011 5.04,28.119C5.328,27.894 4.792,27.988 4.701,27.774C4.751,27.593 5.033,27.657 5.104,27.819C5.005,27.146 5.06,25.98 5.769,25.653L5.833,25.816C6.205,25.476 5.267,24.936 5.833,24.727L5.864,24.838C6.481,24.003 6.691,22.819 7.647,22.455C7.167,22.013 8.378,21.707 7.654,21.214C8.334,20.93 8.385,21.154 9.059,20.6C9.206,20.434 8.753,20.035 8.814,19.752L9.212,19.988L8.989,19.416L9.56,19.539L9.598,19.263C9.52,19.334 9.304,19.334 9.199,19.251C9.24,18.803 10,18.606 10.204,18.727L10.387,17.724C10.531,17.844 10.499,18.011 10.53,18.181C10.408,17.501 10.986,18.372 10.874,17.749C10.753,17.743 10.663,17.569 10.591,17.509C10.943,17.467 11.243,17.043 11.368,16.66L11.588,16.902C12.056,16.383 12.292,15.607 12.762,14.983C12.474,15.119 12.065,14.743 12.162,14.527L12.611,14.742C12.458,14.445 12.317,14.825 12.204,14.363C12.427,14.16 12.769,14.535 12.796,14.763L12.874,14.378C13.004,14.449 13.016,14.561 13.152,14.689C12.997,14.391 13.911,14.496 13.616,14.012L13.744,14.084C14.211,13.464 14.293,13.079 14.679,12.575C14.357,12.302 14.587,12.167 14.442,11.804C14.845,11.524 15.424,11.329 15.756,10.872C15.854,10.435 15.559,10.553 15.484,10.255C15.796,10.481 16.135,10.028 16.154,10.43C16.551,9.879 16.659,9.727 17.001,8.881C16.822,8.844 16.701,8.877 16.64,8.749C16.698,8.59 16.998,8.592 17.119,8.733L17.121,8.79C17.352,7.676 19.446,7.939 19.404,6.845L19.402,6.903L19.669,6.048C19.976,5.839 19.716,6.407 20.075,6.387C20.24,5.333 21.106,5.523 21.331,4.737C22.485,5.208 22.715,3.394 23.748,3.479L23.544,3.301C23.522,2.98 23.818,3.274 23.963,3.234C23.816,3.086 23.653,3.178 23.651,2.992C24.685,1.715 26.487,1.264 27.953,0.566C28.485,0.299 27.47,-0.774 28.453,-0.658L28.543,-0.125C29.24,-1.279 30.637,-1.418 31.422,-2.432C31.417,-2.297 31.488,-2.167 31.387,-2.112C31.782,-1.921 32.199,-2.554 32.065,-2.811C32.245,-2.869 32.231,-2.598 32.403,-2.521C32.725,-2.453 32.742,-3.225 33.029,-2.973C33.077,-2.932 33.022,-2.837 32.995,-2.79C33.056,-3.024 33.689,-3.11 33.358,-3.404C33.847,-3.432 34.037,-3.96 34.467,-3.904C34.469,-4.424 35.255,-4.042 35.033,-4.664C35.303,-4.041 35.977,-4.518 36.102,-4.925C36.103,-4.698 36.416,-4.837 36.436,-4.532C36.725,-4.678 36.94,-4.918 36.743,-5.211C37.621,-4.723 37.575,-6.303 38.306,-5.492C39.042,-6.214 39.775,-6.793 40.524,-7.273C40.753,-6.635 39.657,-6.839 39.967,-6.198C40.619,-6.774 40.844,-7.494 41.672,-7.648C41.904,-7.642 41.668,-7.331 41.645,-7.197C42.31,-7.766 43.157,-7.727 43.715,-8.335C43.736,-8.276 43.686,-8.183 43.634,-8.108C43.762,-8.181 43.986,-8.135 43.861,-8.417L43.758,-8.289C43.38,-8.623 43.97,-9.366 43.912,-9.596C43.991,-8.683 44.677,-9.649 44.699,-8.466C44.768,-8.555 44.83,-8.733 44.737,-8.918C44.892,-8.911 44.977,-8.814 44.923,-8.545C45.354,-8.883 45.067,-9.125 45.515,-9.283C45.564,-9.143 45.495,-9.056 45.509,-8.874C45.634,-9.229 45.76,-9.588 46.181,-9.605C46.189,-9.513 46.273,-9.419 46.16,-9.381C46.792,-9.655 47.003,-10.508 47.812,-10.497C47.817,-9.814 48.126,-10.382 48.35,-9.866L48.678,-10.158L48.434,-10.361C48.773,-10.469 48.937,-10.959 49.287,-10.886L49.112,-10.581L49.708,-10.9L49.282,-10.978C49.529,-11.37 49.013,-11.636 49.515,-11.642C49.442,-11.557 49.856,-11.751 50.139,-11.499L50.138,-11.497C50.248,-11.722 50.36,-11.959 50.655,-11.912C50.777,-11.765 50.801,-11.308 50.881,-11.209C50.896,-11.71 51.631,-11.599 51.684,-12.14C51.65,-12.006 51.74,-11.726 51.781,-11.677L51.801,-12.083C51.996,-12.02 52.038,-11.971 52.085,-11.74C52.579,-11.83 51.713,-12.365 52.37,-12.26C52.335,-12.216 52.374,-12.169 52.3,-12.084C52.912,-12.119 53.314,-12.67 53.892,-12.657C54.216,-12.169 53.481,-12.381 53.801,-11.984C54.515,-12.322 55.145,-13.122 55.911,-13.218L55.758,-13.236C55.624,-14.027 56.414,-13.029 56.671,-13.5C56.598,-13.416 56.682,-13.041 56.681,-13.134C57.215,-13.161 57.641,-13.626 58.326,-14.094L58.291,-13.869C58.636,-13.783 59.095,-13.995 59.439,-13.999C59.477,-14.222 59.668,-14.243 59.475,-14.496C60.774,-13.665 61.182,-15.63 62.317,-14.941C62.213,-14.91 62.115,-14.701 62.199,-14.722L62.893,-15.106C62.743,-15.425 62.741,-15.282 62.513,-15.5C62.553,-15.724 62.722,-15.935 62.908,-15.985C62.631,-15.673 63.056,-15.449 63.251,-15.302C63.199,-15.397 63.218,-15.524 63.178,-15.625C63.728,-15.135 63.062,-16.316 63.703,-16.059L63.722,-15.876C63.897,-16.02 64.02,-16.3 64.249,-16.306C64.44,-15.942 64.083,-16.07 64.155,-15.747C64.45,-15.848 64.559,-16.638 64.934,-16.323C64.833,-16.181 64.649,-16.131 64.549,-15.99C64.966,-15.613 64.97,-15.738 65.21,-15.723L65.186,-15.728L65.75,-15.655L65.588,-15.744C65.706,-16.857 66.311,-16.125 66.654,-16.919C66.315,-16.165 66.664,-16.534 66.737,-16.084C66.898,-15.995 67.13,-15.907 67.104,-15.769C67.257,-16.185 67.575,-15.592 67.787,-16.195C67.837,-16.057 68.048,-16.244 68.082,-15.874C68.368,-16.062 67.947,-16.103 67.929,-16.288C68.296,-16.89 69.208,-15.977 69.745,-16.808C70.282,-17.222 70.281,-17.729 70.787,-18.099C71.029,-17.915 70.752,-17.544 70.752,-17.544C71.105,-17.406 71.325,-17.497 71.576,-17.724C71.545,-17.587 71.629,-17.495 71.753,-17.354C71.975,-17.443 71.791,-17.908 72.142,-17.766C72.125,-17.595 72.116,-17.325 72.041,-17.141C72.282,-17.333 72.491,-17.66 72.744,-17.852C72.874,-17.619 72.658,-17.436 72.595,-17.252C72.886,-17.435 73.363,-17.659 73.376,-18.073L73.142,-18.171C73.253,-18.215 73.275,-17.845 73.206,-17.755C73.002,-17.386 72.785,-17.804 72.738,-17.945L72.918,-18.081C72.527,-18.872 72.141,-17.766 71.728,-17.724L71.759,-18.371L71.458,-17.773C71.334,-17.911 71.196,-18.238 71.375,-18.374C71.017,-18.609 71.168,-18.1 70.842,-18.377C70.803,-18.423 70.808,-18.455 70.828,-18.485L70.586,-18.238C70.613,-18.379 70.44,-18.657 70.635,-18.609C70.044,-18.841 69.92,-17.962 69.621,-18.378L69.655,-18.425C68.997,-18.055 69.691,-17.963 69.287,-17.316L68.669,-18.329L68.707,-17.867C68.63,-17.865 68.479,-17.864 68.462,-18.048C68.265,-17.678 68.555,-17.866 68.467,-17.54C68.02,-17.861 67.551,-17.117 67.297,-17.806C67.256,-17.438 67.696,-17.627 67.381,-17.301C67.086,-18.036 66.983,-17.062 66.578,-17.331C66.577,-17.748 66.932,-17.617 66.524,-17.887C66.499,-17.175 65.866,-17.876 65.628,-17.68C65.75,-17.151 65.099,-17.311 64.694,-17.016C64.677,-17.2 63.771,-17.086 63.3,-17.163L63.289,-17.255C63.35,-16.7 62.892,-16.684 62.608,-16.489C62.534,-16.81 62.556,-16.951 62.688,-17.139L62.393,-17.057C62.369,-16.867 62.302,-16.753 62.126,-16.64L62.092,-17.057C61.703,-16.93 61.429,-16.373 60.85,-16.495C60.926,-16.117 61.538,-15.578 61.076,-15.181C61,-15.376 60.884,-15.712 61.001,-15.833C60.963,-15.794 60.885,-15.621 60.769,-15.681L60.887,-16.077C60.616,-16.16 60.846,-15.762 60.654,-15.742C60.577,-16.029 60.46,-15.907 60.423,-16.141C60.462,-16.182 60.617,-16.068 60.655,-16.2C60.434,-16.193 60.135,-16.292 59.991,-16.484C60.055,-16.327 60.1,-16.1 59.958,-16.021C59.573,-15.888 59.727,-16.325 59.456,-16.405C59.417,-16.18 59.108,-16.312 59.225,-15.885C59.11,-15.853 59.031,-16.046 58.953,-16.148C58.805,-15.902 58.021,-15.819 58.383,-15.433L58.443,-15.419C58.436,-15.407 58.425,-15.404 58.416,-15.391L58.417,-15.391L58.416,-15.391C57.878,-14.776 56.969,-15.22 56.366,-14.843L56.324,-14.985C55.981,-14.704 55.482,-14.62 55.298,-14.229C55.183,-14.194 54.945,-14.404 54.942,-14.587C54.676,-14.387 54.692,-14.22 54.188,-14.317C54.41,-14.658 54.015,-14.503 54.438,-14.594C54.012,-14.594 53.852,-14.791 53.558,-14.272C53.585,-14.679 53.121,-14.634 52.971,-14.467L53.326,-14.295C53.135,-14.176 52.944,-14.15 52.75,-14.122L52.696,-14.629C51.71,-14.951 51.588,-13.178 50.666,-13.946C50.566,-13.545 51.174,-13.854 51.115,-13.405C50.73,-13.35 50.124,-13.9 50.009,-13.863C49.421,-13.955 49.778,-13.014 49.197,-13.016C49.321,-12.871 49.537,-12.442 49.205,-12.152C48.821,-12.091 48.516,-12.703 48.698,-12.919C48.78,-12.963 48.84,-12.924 48.856,-12.865C48.953,-12.967 49.082,-13.091 48.875,-13.225L48.886,-13.04C48.646,-13.152 48.154,-12.957 48.175,-13.275C47.957,-13.018 48.154,-12.958 48.387,-12.942C47.837,-13.022 47.658,-12.695 47.122,-12.691C47.23,-12.625 47.37,-12.452 47.294,-12.427C46.519,-12.389 47.098,-12 46.651,-11.758C46.291,-11.916 46.529,-12.402 46.129,-12.016C45.775,-12.084 45.907,-12.438 45.974,-12.617C45.655,-12.137 45.083,-12.536 44.812,-12.505L44.992,-12.723C44.884,-12.594 44.771,-12.554 44.656,-12.513L44.909,-12.227C44.753,-12.235 44.639,-12.195 44.59,-12.335C44.532,-12.065 44.9,-11.818 44.736,-11.417C44.494,-11.521 44.259,-11.034 44.033,-11.454C44.652,-11.512 43.805,-11.876 44.256,-12.124C44.184,-12.037 44.071,-11.998 43.914,-12.007C43.875,-12.049 43.899,-12.105 43.926,-12.144C43.238,-12.34 43.864,-11.553 43.302,-11.352C43.28,-11.629 42.995,-11.776 42.923,-11.688C43.151,-11.768 43.188,-11.313 43.054,-11.045C42.624,-11.103 42.721,-10.754 42.525,-10.705L42.774,-10.695C42.796,-10.419 42.605,-10.386 42.388,-10.21C42.292,-10.395 42.562,-10.43 42.441,-10.482C42.335,-9.938 41.644,-10.691 41.374,-10.247C41.129,-10.346 41.173,-10.706 40.971,-10.759C40.667,-10.267 40.369,-10.91 40.021,-10.464C40.286,-10.184 40.275,-10.275 40.088,-9.823L40.737,-10.355L40.454,-9.681C40.679,-9.766 40.842,-10.08 40.999,-10.077C40.88,-9.715 40.871,-9.807 41.087,-9.573C40.583,-9.949 40.599,-9.04 40.111,-9.235L39.788,-10.06C39.104,-10.207 39.016,-9.25 38.242,-9.167L38.523,-9.119C38.568,-8.758 38.119,-8.892 37.954,-8.666C37.857,-8.947 37.676,-8.986 37.507,-9.114C37.606,-8.917 36.995,-8.914 37.171,-8.346L36.709,-8.567C36.091,-8.463 36.426,-7.517 35.86,-7.369C35.884,-7.734 35.556,-7.816 35.815,-8.186C35.636,-8.111 35.456,-8.083 35.539,-7.896C35.358,-8.016 35.22,-7.306 34.94,-7.486C34.921,-7.333 35.03,-7.042 34.823,-6.972C34.776,-7.016 34.761,-7.105 34.761,-7.105C34.823,-6.972 34.54,-6.781 34.853,-6.566C33.916,-7.137 33.394,-5.782 32.578,-6.247C32.245,-5.967 31.837,-5.649 31.511,-5.446C31.491,-5.535 31.443,-5.576 31.521,-5.583C30.923,-5.574 31.638,-4.681 30.965,-4.668C30.464,-4.94 31.12,-5.047 30.865,-5.114C30.318,-5.931 30.294,-4.641 29.661,-4.937L29.718,-5.036C29.28,-5.171 29.239,-4.34 28.771,-4.137C28.771,-4.137 28.748,-4.224 28.698,-4.265C28.651,-3.662 28.178,-3.185 27.844,-2.805C27.769,-3.209 27.924,-3.094 27.64,-3.373C27.484,-3.21 28.023,-2.88 27.715,-2.557C27.484,-2.659 27.12,-2.646 26.86,-2.969L27.198,-3.209C26.729,-3.548 26.754,-2.907 26.524,-2.863L26.419,-3.073C25.93,-2.654 26.248,-2.167 25.666,-1.818L25.823,-1.712C25.854,-1.02 25.382,-1.803 25.329,-1.235L24.895,-1.654C24.773,-1.398 24.529,-0.691 24.248,-0.341C24.185,-0.838 24.464,-1.331 24.577,-1.724C24.372,-1.59 23.928,-1.198 24,-0.889C24.045,-0.993 24.059,-1.184 24.191,-1.168C24.225,-0.615 24.05,-0.203 23.665,0.083C23.029,-0.881 22.495,0.626 21.664,0.162C21.263,1.034 20.229,1.126 19.516,1.853C20.376,2.278 19.315,2.07 19.976,2.709C19.844,2.907 19.768,2.956 19.713,2.926L18.823,3.004C18.518,2.924 18.848,2.703 18.692,2.568C18.268,2.869 18.269,2.431 17.851,2.489C18.127,2.68 18.042,2.952 17.745,3.068L18.335,3.087C18.158,3.935 17.35,2.962 17.169,3.82L17.13,3.451C16.983,3.834 16.147,4.426 16.427,5.2C16.305,5.174 16.063,5.062 16.13,4.899C15.429,5.468 15.349,6.866 14.56,7.074L14.438,6.875C14.375,7.042 14.56,7.368 14.254,7.373C14.192,7.304 14.131,7.175 14.07,7.224C14.07,7.342 14.077,7.813 13.834,7.891L13.768,7.585C12.976,8.047 13.367,8.988 13.038,9.642C12.531,9.219 11.937,9.612 11.639,9.809L11.573,9.741C10.863,10.469 10.94,11.425 10.593,12.319C9.66,12.342 9.19,13.708 8.338,14.246C8.519,14.198 8.748,14.558 8.708,14.73C8.474,14.833 8.744,15.479 8.263,15.111L8.317,15.054C7.729,14.852 7.606,15.314 7.407,15.601L8.036,16.087C6.576,16.228 7.093,18.307 5.977,18.198C6.033,18.491 5.891,18.724 5.949,19.012L5.59,18.785C5.188,19.257 4.97,19.487 4.689,20.198L4.5,19.913C4.269,20.276 5.306,20.988 5.141,21.34L4.529,21.135C4.186,21.789 3.313,22.184 3.502,23.111C3.425,23.057 3.272,22.953 3.304,22.834C3.131,23.137 2.308,23.853 3.144,24.128C2.635,23.883 2.743,24.786 2.799,25.253L2.449,25.015C2.788,25.553 2.916,25.625 2.853,26.113C2.757,26.191 2.509,26.06 2.668,25.971C2.314,26.215 2.906,26.4 2.516,26.713L2.344,26.449C2.154,26.782 2.297,26.815 2.493,27.134C2.546,27.419 2.094,27.743 1.726,27.643C1.917,27.784 2.118,28.099 1.932,28.261C1.789,28.233 1.739,28.122 1.715,28.067C1.206,28.544 1.796,29.129 1.248,29.374C1.117,29.329 1.042,29.329 0.989,29.347C1.194,28.883 1.374,28.515 1.387,28.562C1.033,28.41 0.811,28.765 0.448,28.255C0.585,28.677 0.951,29.437 0.628,29.737C0.586,29.741 0.545,29.745 0.484,29.736L0.46,29.681C0.389,29.752 0.39,29.843 0.42,29.938C0.31,30.032 0.24,30.092 0.19,30.205C-0.123,30.132 -0.138,30.584 -0.225,30.771C0.174,30.907 0.016,31.133 0.43,31.024C0.39,31.044 0.396,30.97 0.428,30.837C0.428,30.803 0.435,30.767 0.418,30.739L0.448,30.766C0.489,30.637 0.542,30.47 0.602,30.281C0.744,30.511 0.852,30.733 0.554,30.859C0.77,31.055 0.989,31.262 1.088,31.37C0.441,31.416 -0.048,31.809 -0.415,31.754C-0.424,32.418 -0.777,33.197 -0.15,33.826C-0.111,34.026 -0.43,33.944 -0.569,33.967C-0.612,33.844 -0.561,33.733 -0.651,33.643C-0.573,34.045 -0.914,34.664 -0.416,34.917C-0.796,35.26 -0.819,34.521 -0.93,35.129L-1.064,34.998C-2.281,35.893 -0.291,37.28 -1.755,38.235C-1.665,38.164 -1.622,38.128 -1.528,38.135C-2.406,39.48 -1.872,41.267 -2.953,42.558C-3.204,42.942 -2.868,43.061 -2.662,43.368L-3.125,43.367L-2.695,43.908C-2.435,44.594 -3.989,44.775 -3.424,45.694L-3.105,45.645C-3.221,45.915 -3.083,46.567 -3.419,46.463C-3.368,46.501 -3.12,46.607 -3.293,46.692L-3.528,46.663L-3.231,47.421C-3.482,47.935 -4.149,47.196 -4.314,47.983C-4.268,48.293 -3.756,48.915 -3.582,48.824C-3.553,48.708 -3.391,48.543 -3.154,48.566L-3.072,48.848C-2.387,48.99 -1.707,49.278 -1.128,48.709L-1.484,48.205L-1.127,48.111L-1.163,48.487C-0.815,48.32 -1.074,48.147 -1.243,47.968C-1.06,47.959 -0.925,47.915 -0.846,47.838L-1.44,47.301C-1.162,47.291 -0.934,47.579 -0.741,47.312C-1.016,47.059 -1.375,47.412 -1.526,47.041C-1.18,46.878 -0.935,46.983 -1.165,46.69C-0.982,46.684 -0.876,46.756 -0.813,46.866C-0.998,46.61 -0.808,46.268 -1.15,46.091C-0.723,45.938 -1.111,45.326 -0.465,45.467C-0.607,45.37 -0.902,44.985 -0.891,44.776C-0.183,45.296 -0.703,44.026 0.11,44.291C-0.545,43.875 0.015,43.251 -0.267,42.684C-0.218,42.724 -0.118,42.802 -0.163,42.836C-0.044,42.578 0.183,42.547 0.353,42.404C-0.212,42.239 -0.249,41.786 -0.55,41.472C0.077,41.271 0.076,41.835 0.629,41.856C0.161,41.763 0.297,41.171 -0.112,41.189C0.295,41.021 0.111,41.012 0.617,41.001C-0.084,40.779 0.558,40.738 0.175,40.417C0.622,40.143 0.867,40.496 0.755,40.041C1.022,39.909 1.181,40.328 1.181,40.328" style="fill:rgb(255,76,148);fill-rule:nonzero;"/>
                </g>
                <g transform="matrix(0.252871,0.853511,-0.676768,0.31891,319.262292,43.253075)">
                    <path d="M0,-27.641C0.075,-27.668 0.05,-27.587 0.013,-27.509C-0.012,-27.514 -0.044,-27.516 -0.092,-27.509L-0.122,-27.467C-0.078,-27.535 -0.036,-27.598 0,-27.641M-0.863,-24.766C-0.888,-24.799 -0.928,-24.826 -0.973,-24.849C-0.909,-24.98 -0.824,-25.104 -0.8,-25.081C-0.864,-25.006 -0.842,-24.895 -0.863,-24.766M-1.138,-24.917L-1.142,-24.91C-1.174,-24.918 -1.203,-24.924 -1.22,-24.928C-1.203,-24.926 -1.18,-24.923 -1.138,-24.917M-4.929,-25.456C-4.802,-25.389 -4.643,-25.923 -4.483,-26.201C-4.252,-26.269 -4.577,-25.794 -4.64,-25.512C-4.478,-25.597 -4.183,-26.019 -4.115,-25.962C-4.148,-25.877 -4.147,-25.84 -4.214,-25.745C-3.915,-26.09 -3.883,-25.61 -3.51,-26.045C-3.522,-25.996 -3.538,-25.953 -3.554,-25.914C-3.452,-26.173 -3.33,-26.427 -3.236,-26.605C-3.168,-26.582 -2.96,-26.861 -3.099,-26.524C-3.133,-26.554 -3.202,-26.424 -3.271,-26.332L-3.133,-26.439C-3.308,-25.943 -3.305,-26.325 -3.477,-25.978C-3.274,-26.067 -2.928,-26.37 -2.895,-26.188C-3.107,-25.724 -3.203,-26.155 -3.278,-25.683L-3.341,-25.936C-3.588,-25.159 -3.407,-26.034 -3.689,-25.211C-3.561,-24.978 -3.352,-25.328 -3.224,-25.094C-3.049,-25.322 -3.045,-25.474 -2.87,-25.702C-2.348,-26.003 -3.247,-24.454 -2.724,-24.947C-2.511,-25.217 -2.183,-25.772 -2.198,-25.391L-2.522,-24.912C-2.36,-24.757 -2.017,-25.578 -2.002,-25.128C-2.147,-24.949 -2.245,-25.043 -2.249,-24.968C-2.338,-24.497 -2,-25.203 -1.899,-25.148L-2.126,-24.69C-1.885,-24.648 -1.479,-24.848 -1.208,-24.795C-1.296,-24.671 -1.414,-24.555 -1.439,-24.389C-1.03,-24.446 -0.867,-23.987 -0.753,-23.567L-0.425,-23.883C-0.403,-23.864 -0.482,-23.685 -0.552,-23.628C-0.533,-23.421 -0.403,-23.864 -0.264,-23.982C-0.188,-23.972 -0.315,-23.717 -0.421,-23.627C-0.044,-23.835 0.527,-23.993 0.477,-23.473L0.37,-23.384C0.428,-23.14 1.016,-24.045 0.941,-23.608L0.873,-23.559C1.1,-23.19 1.683,-23.304 1.575,-22.582C1.964,-23.085 1.744,-22.136 2.245,-22.865C2.193,-22.376 2.054,-22.279 2.154,-21.862C2.201,-21.783 2.561,-22.257 2.698,-22.277L2.446,-21.89L2.83,-22.217L2.587,-21.714L2.733,-21.76C2.716,-21.804 2.779,-21.978 2.858,-22.086C3.1,-22.176 2.986,-21.613 2.857,-21.414L3.373,-21.541C3.262,-21.391 3.177,-21.371 3.071,-21.299C3.493,-21.585 2.828,-20.876 3.214,-21.138C3.253,-21.238 3.379,-21.359 3.435,-21.434C3.352,-21.155 3.512,-21.04 3.699,-21.055L3.496,-20.808C3.667,-20.592 4.042,-20.62 4.282,-20.446C4.28,-20.629 4.615,-21.069 4.717,-21.062L4.466,-20.641C4.686,-20.856 4.498,-20.846 4.804,-21.081C4.862,-20.971 4.546,-20.583 4.404,-20.489L4.611,-20.551C4.533,-20.427 4.463,-20.382 4.35,-20.234C4.57,-20.451 4.257,-19.7 4.625,-20.085L4.547,-19.961C4.785,-19.788 4.994,-19.849 5.202,-19.728C5.452,-20.068 5.474,-19.937 5.731,-20.171C5.797,-19.957 5.76,-19.574 5.953,-19.478C6.199,-19.558 6.2,-19.74 6.404,-19.901C6.192,-19.58 6.314,-19.526 6.091,-19.352C6.256,-19.302 6.287,-19.295 6.664,-19.357C6.762,-19.484 6.79,-19.555 6.894,-19.635C6.971,-19.643 6.847,-19.448 6.706,-19.328L6.669,-19.309C6.972,-19.412 6.863,-19.098 6.725,-18.854C6.595,-18.604 6.437,-18.418 6.836,-18.533L6.797,-18.523C6.945,-18.533 7.099,-18.536 7.257,-18.53C7.232,-18.418 6.972,-18.462 6.781,-18.305C7.449,-18.355 6.804,-17.995 7.248,-17.955C6.717,-17.758 6.745,-17.684 6.835,-17.587C6.915,-17.495 7.048,-17.37 6.684,-17.294L6.95,-17.305C7.212,-17.262 6.802,-17.254 6.737,-17.23C6.946,-17.227 6.978,-17.269 7.124,-17.241C7.276,-17.048 7.156,-16.837 6.949,-16.694C6.717,-16.462 6.401,-16.208 6.211,-15.958C6.086,-15.767 7.513,-15.468 6.823,-15.369L6.369,-15.58C6.808,-14.984 6.088,-14.708 6.436,-14.134C6.335,-14.194 6.194,-14.24 6.209,-14.281C5.837,-14.301 6.083,-13.956 6.362,-13.863C6.309,-13.808 6.104,-13.93 5.949,-13.936C5.718,-13.913 6.311,-13.567 5.955,-13.632C5.897,-13.642 5.853,-13.694 5.832,-13.719C5.978,-13.606 5.7,-13.462 6.112,-13.385C5.871,-13.289 6.188,-13.02 5.909,-12.973C6.318,-12.737 5.601,-12.774 6.211,-12.53C5.575,-12.766 5.596,-12.433 5.86,-12.224C5.679,-12.328 5.629,-12.209 5.375,-12.344C5.344,-12.227 5.425,-12.079 5.76,-11.98C4.924,-12.047 6.216,-11.327 5.196,-11.568C5.409,-11.1 5.522,-10.695 5.553,-10.329C4.927,-10.582 5.619,-10.694 4.95,-10.933C5.103,-10.543 5.577,-10.165 5.312,-9.933C5.196,-9.891 5.055,-10.081 4.957,-10.149C5.103,-9.755 4.679,-9.606 4.921,-9.211C4.863,-9.235 4.81,-9.288 4.772,-9.334C4.773,-9.274 4.632,-9.251 4.921,-9.144L4.863,-9.224C5.311,-9.143 5.649,-8.678 5.865,-8.581C5.08,-8.993 5.556,-8.405 4.576,-8.954C4.616,-8.898 4.735,-8.802 4.929,-8.734C4.853,-8.706 4.735,-8.734 4.538,-8.871C4.62,-8.626 4.95,-8.571 4.877,-8.406C4.739,-8.462 4.699,-8.516 4.543,-8.599C4.78,-8.407 5.016,-8.214 4.842,-8.12C4.762,-8.161 4.647,-8.188 4.666,-8.229C4.612,-7.971 5.219,-7.529 4.852,-7.366C4.283,-7.685 4.618,-7.354 4.092,-7.548L4.189,-7.343L4.465,-7.299C4.406,-7.177 4.74,-6.914 4.526,-6.874L4.35,-7.054L4.354,-6.779L4.604,-6.833C4.821,-6.599 5.268,-6.583 5.056,-6.474C5.016,-6.529 4.999,-6.35 4.666,-6.408L4.665,-6.409C4.806,-6.28 4.955,-6.146 4.788,-6.104C4.612,-6.147 4.221,-6.354 4.104,-6.383C4.514,-6.147 4.106,-6.039 4.539,-5.776C4.44,-5.846 4.167,-5.955 4.109,-5.969L4.441,-5.777C4.305,-5.764 4.247,-5.777 4.033,-5.873C3.898,-5.723 4.715,-5.666 4.348,-5.571C4.326,-5.599 4.27,-5.611 4.229,-5.667C3.998,-5.516 4.292,-5.174 4.042,-5.049C3.496,-5.199 3.98,-5.269 3.513,-5.378C3.498,-5.06 3.915,-4.552 3.686,-4.33L3.763,-4.358C4.49,-4.033 3.318,-4.299 3.614,-4.027C3.572,-4.081 3.219,-4.23 3.298,-4.189C3.107,-4.049 3.336,-3.736 3.463,-3.366L3.285,-3.474C3.073,-3.428 3.077,-3.221 2.945,-3.134C3.123,-3.028 3.066,-2.972 3.36,-2.909C2.129,-2.943 3.693,-1.995 2.663,-1.996C2.674,-2.036 2.527,-2.149 2.515,-2.118L2.593,-1.775C2.928,-1.683 2.804,-1.743 3.08,-1.712C3.261,-1.609 3.383,-1.478 3.359,-1.41C3.187,-1.61 2.833,-1.592 2.631,-1.6C2.734,-1.575 2.839,-1.518 2.942,-1.487C2.311,-1.541 3.594,-1.236 3.135,-1.171L2.966,-1.241C3.029,-1.136 3.234,-0.99 3.158,-0.927C2.767,-1.02 3.007,-1.065 2.696,-1.176C2.68,-1.053 3.343,-0.712 2.929,-0.735C2.839,-0.818 2.86,-0.888 2.771,-0.971C2.287,-1.007 2.396,-0.956 2.297,-0.895L2.31,-0.9L2.043,-0.771L2.181,-0.782C3.129,-0.319 2.264,-0.432 2.861,-0.033C2.298,-0.413 2.513,-0.176 2.083,-0.325C1.948,-0.312 1.79,-0.276 1.674,-0.336C1.997,-0.135 1.351,-0.262 1.824,0.025C1.682,-0.012 1.781,0.12 1.435,-0.005C1.509,0.15 1.687,0.038 1.86,0.101C2.288,0.426 1.141,0.372 1.732,0.833C1.943,1.142 2.41,1.309 2.594,1.58C2.349,1.595 2.093,1.391 2.093,1.391C1.854,1.455 1.87,1.554 2.004,1.704C1.886,1.651 1.775,1.649 1.606,1.645C1.621,1.744 2.109,1.828 1.87,1.895C1.716,1.838 1.468,1.753 1.32,1.671C1.422,1.809 1.669,1.978 1.774,2.116C1.52,2.091 1.411,1.965 1.257,1.889C1.342,2.042 1.415,2.267 1.802,2.387L1.959,2.338C1.969,2.386 1.615,2.289 1.55,2.24C1.263,2.066 1.719,2.115 1.863,2.141L1.939,2.239C2.794,2.344 1.864,1.899 1.958,1.752L2.548,1.96L2.085,1.682C2.251,1.687 2.596,1.748 2.667,1.844C2.994,1.809 2.477,1.695 2.834,1.685C2.889,1.688 2.917,1.7 2.938,1.715L2.785,1.565C2.906,1.617 3.216,1.656 3.112,1.698C3.508,1.602 2.737,1.277 3.212,1.328L3.245,1.353C3.108,1.038 2.809,1.21 2.342,0.868L3.468,1.041L3.035,0.891C3.059,0.869 3.107,0.825 3.281,0.885C3.009,0.699 3.084,0.847 2.817,0.708C3.256,0.695 2.737,0.294 3.445,0.474C3.125,0.327 3.15,0.521 2.959,0.313C3.723,0.5 2.879,0.114 3.258,0.101C3.634,0.256 3.397,0.303 3.777,0.293C3.145,0.02 3.985,0.111 3.895,-0.024C3.377,-0.195 3.749,-0.307 3.631,-0.527C3.801,-0.46 4.018,-0.744 4.254,-0.831L4.34,-0.797C3.829,-1.004 3.977,-1.129 3.912,-1.281C4.222,-1.168 4.337,-1.104 4.455,-0.995L4.49,-1.102C4.333,-1.185 4.257,-1.25 4.222,-1.34L4.601,-1.177C4.63,-1.326 4.247,-1.625 4.571,-1.716C4.214,-1.857 3.512,-1.93 3.341,-2.214C3.539,-2.151 3.875,-2.037 3.938,-1.957C3.917,-1.983 3.796,-2.076 3.892,-2.079L4.193,-1.883C4.367,-1.914 3.934,-2.026 3.989,-2.082C4.267,-1.98 4.205,-2.06 4.423,-1.97C4.443,-1.943 4.287,-1.954 4.387,-1.888C4.464,-1.946 4.662,-1.976 4.883,-1.93C4.722,-1.981 4.508,-2.066 4.492,-2.135C4.522,-2.285 4.844,-2.061 5.016,-2.091C4.836,-2.197 5.07,-2.213 4.656,-2.37C4.674,-2.41 4.871,-2.346 4.989,-2.32C4.833,-2.462 5.066,-2.683 4.594,-2.766L4.558,-2.757C4.552,-2.765 4.55,-2.768 4.544,-2.776C4.224,-3.174 4.969,-3.19 4.882,-3.497L5.021,-3.444C4.918,-3.648 5.051,-3.798 4.794,-4.016C4.812,-4.058 5.086,-4.017 5.243,-3.935C5.182,-4.085 5.032,-4.158 5.321,-4.226C5.519,-4.022 5.549,-4.181 5.454,-4.045C5.628,-4.141 5.861,-4.085 5.544,-4.386C5.877,-4.195 6.03,-4.317 5.951,-4.426L5.66,-4.427C5.638,-4.522 5.695,-4.577 5.752,-4.632L6.202,-4.412C6.881,-4.477 5.45,-5.317 6.482,-5.162C6.189,-5.368 6.191,-5.095 5.839,-5.315C5.956,-5.424 6.676,-5.297 6.694,-5.338C7.023,-5.418 6.085,-5.779 6.337,-5.901C6.163,-5.942 5.712,-6.096 5.614,-6.302C5.729,-6.412 6.374,-6.189 6.472,-6.051C6.473,-6.014 6.415,-6.019 6.359,-6.043C6.402,-5.975 6.45,-5.89 6.65,-5.871L6.492,-5.955C6.687,-5.954 6.743,-6.145 6.997,-5.994C6.88,-6.158 6.743,-6.145 6.627,-6.105C6.936,-6.181 6.742,-6.37 6.974,-6.483C6.872,-6.492 6.667,-6.543 6.68,-6.571C6.989,-6.748 6.413,-6.81 6.411,-7.016C6.703,-7.015 6.998,-6.739 6.858,-7C7.072,-7.041 7.306,-6.848 7.423,-6.751C7.169,-7.041 7.753,-6.971 7.849,-7.04L7.948,-6.902C7.889,-6.985 7.908,-7.026 7.926,-7.068L7.576,-7.151C7.653,-7.178 7.672,-7.22 7.809,-7.164C7.613,-7.303 7.243,-7.344 6.987,-7.564C7.182,-7.564 6.888,-7.84 7.336,-7.688C7.104,-7.537 7.787,-7.537 7.787,-7.33C7.748,-7.386 7.767,-7.427 7.845,-7.454C7.897,-7.442 7.933,-7.411 7.953,-7.387C8.425,-7.433 7.493,-7.677 7.586,-7.881C7.823,-7.757 8.075,-7.744 8.036,-7.799C7.997,-7.717 7.606,-7.922 7.447,-8.074C7.694,-8.132 7.362,-8.277 7.412,-8.338L7.29,-8.293C7.053,-8.418 7.111,-8.473 7.069,-8.597C7.266,-8.529 7.169,-8.46 7.267,-8.46C6.872,-8.734 7.81,-8.518 7.573,-8.779C7.768,-8.781 8.042,-8.603 8.179,-8.619C7.92,-8.907 8.588,-8.664 8.389,-8.939C8.036,-9.018 8.114,-8.978 7.835,-9.224L7.96,-8.852L7.545,-9.221C7.508,-9.138 7.686,-8.96 7.609,-8.932C7.371,-9.123 7.45,-9.082 7.157,-9.149C7.703,-9.071 6.955,-9.491 7.345,-9.494L8.171,-9.172C8.619,-9.233 7.884,-9.696 8.191,-9.881L8.016,-9.85C7.7,-10.011 8.031,-10.031 7.93,-10.167C8.204,-10.055 8.325,-10.071 8.511,-10.043C8.304,-10.115 8.603,-10.23 8.058,-10.46L8.468,-10.443C8.698,-10.602 7.768,-10.978 7.936,-11.149C8.216,-10.977 8.447,-11 8.613,-10.782C8.641,-10.85 8.714,-10.894 8.521,-10.965C8.71,-10.943 8.215,-11.293 8.502,-11.261C8.39,-11.334 8.102,-11.448 8.152,-11.517C8.211,-11.506 8.29,-11.468 8.29,-11.468C8.152,-11.517 8.146,-11.656 7.812,-11.698C8.758,-11.603 7.962,-12.308 8.772,-12.238C8.729,-12.423 8.7,-12.637 8.725,-12.782C8.806,-12.745 8.865,-12.735 8.827,-12.719C9.152,-12.824 8.059,-13.102 8.422,-13.222C8.914,-13.184 8.63,-13.026 8.825,-13.039C9.762,-12.769 8.785,-13.343 9.375,-13.316L9.418,-13.263C9.771,-13.277 9.151,-13.652 9.273,-13.816C9.273,-13.816 9.353,-13.782 9.414,-13.772C8.977,-14.045 8.891,-14.328 8.811,-14.543C9.161,-14.382 8.98,-14.406 9.363,-14.331C9.334,-14.426 8.759,-14.483 8.702,-14.671C8.917,-14.663 9.127,-14.727 9.529,-14.63L9.505,-14.473C10.042,-14.403 9.548,-14.673 9.658,-14.728L9.88,-14.655C9.87,-14.912 9.302,-15.071 9.409,-15.31L9.231,-15.329C8.703,-15.614 9.579,-15.36 9.194,-15.606L9.779,-15.499C9.664,-15.628 9.309,-15.954 9.241,-16.145C9.645,-15.946 9.812,-15.704 10.033,-15.52C10.061,-15.61 10.072,-15.84 9.801,-15.955C9.847,-15.906 9.975,-15.825 9.877,-15.811C9.457,-16.028 9.267,-16.245 9.315,-16.434C10.449,-16.207 9.68,-16.926 10.564,-17.046C10.152,-17.472 10.744,-17.91 10.576,-18.435C9.727,-18.098 10.527,-18.576 9.631,-18.36C9.551,-18.448 9.556,-18.488 9.612,-18.511C9.765,-18.654 9.918,-18.808 10.056,-18.969C10.287,-19.126 10.283,-18.922 10.478,-18.987C10.465,-19.263 10.817,-19.205 10.991,-19.461C10.688,-19.322 10.521,-19.405 10.579,-19.593C10.476,-19.474 10.367,-19.359 10.253,-19.247C9.677,-19.407 10.864,-19.83 10.259,-19.999L10.575,-20.008C10.345,-20.12 10.229,-20.704 9.503,-20.464C9.575,-20.546 9.76,-20.721 9.864,-20.685C9.683,-21.176 8.65,-21.011 8.751,-21.551L8.934,-21.684C8.826,-21.702 8.534,-21.484 8.614,-21.718C8.681,-21.783 8.792,-21.858 8.771,-21.895C8.682,-21.871 8.347,-21.758 8.346,-21.922L8.583,-22.054C8.383,-22.598 7.72,-21.946 7.413,-21.981C7.803,-22.514 7.72,-22.839 7.678,-23.001L7.736,-23.075C7.474,-23.368 6.89,-23.004 6.457,-22.995C6.691,-23.709 6.024,-23.662 5.963,-24.19C5.94,-24.061 5.666,-23.771 5.577,-23.751C5.585,-23.908 5.133,-23.5 5.484,-23.994L5.501,-23.968C5.785,-24.494 5.556,-24.459 5.455,-24.545L4.994,-23.9C5.349,-25.048 4.013,-24.046 4.426,-25.011C4.248,-24.89 4.163,-24.948 3.985,-24.827L4.221,-25.18C4.087,-25.396 4.019,-25.504 3.724,-25.574L3.938,-25.798C3.816,-25.909 3.105,-24.878 2.969,-24.936L3.272,-25.495C3.031,-25.635 3.085,-26.258 2.545,-25.918C2.598,-25.994 2.703,-26.145 2.754,-26.143C2.652,-26.227 2.546,-26.78 2.13,-26.014C2.426,-26.499 1.911,-26.212 1.652,-26.077L1.89,-26.421C1.503,-26.032 1.424,-25.909 1.196,-25.873C1.188,-25.942 1.337,-26.179 1.33,-26.058C1.323,-26.319 1.032,-25.776 1.002,-26.055L1.193,-26.251C1.086,-26.353 1.022,-26.224 0.795,-25.998C0.633,-25.902 0.616,-26.229 0.789,-26.565C0.654,-26.376 0.43,-26.15 0.412,-26.287C0.474,-26.416 0.545,-26.476 0.581,-26.506C0.515,-26.873 0.026,-26.266 0.088,-26.705C0.155,-26.827 0.18,-26.892 0.189,-26.935C0.351,-26.829 0.473,-26.732 0.445,-26.713C0.64,-27.045 0.538,-27.183 0.914,-27.58C0.657,-27.393 0.157,-26.954 0.116,-27.187C0.128,-27.223 0.14,-27.259 0.165,-27.313L0.2,-27.343C0.188,-27.393 0.143,-27.378 0.085,-27.337C0.075,-27.416 0.071,-27.473 0.033,-27.501C0.175,-27.787 -0.041,-27.738 -0.102,-27.79C-0.303,-27.419 -0.359,-27.528 -0.445,-27.178C-0.441,-27.21 -0.408,-27.215 -0.354,-27.205C-0.337,-27.21 -0.322,-27.209 -0.303,-27.226L-0.326,-27.197C-0.275,-27.183 -0.212,-27.16 -0.143,-27.127C-0.302,-26.972 -0.447,-26.845 -0.407,-27.091C-0.577,-26.876 -0.751,-26.655 -0.834,-26.55C-0.639,-27.113 -0.665,-27.491 -0.515,-27.823C-0.839,-27.73 -1.083,-27.962 -1.591,-27.33C-1.698,-27.271 -1.553,-27.566 -1.517,-27.688C-1.445,-27.74 -1.409,-27.708 -1.337,-27.799C-1.553,-27.682 -1.732,-27.915 -2.016,-27.439C-2.051,-27.739 -1.696,-27.847 -1.945,-27.874L-1.84,-28.01C-1.857,-29.02 -3.138,-27.085 -3.102,-28.326C-3.099,-28.247 -3.097,-28.21 -3.129,-28.123C-3.461,-28.834 -4.398,-28.192 -4.676,-29.133C-4.784,-29.343 -4.922,-29.017 -5.104,-28.798L-4.993,-29.239L-5.324,-28.804C-5.663,-28.501 -5.457,-29.995 -5.97,-29.385L-5.997,-29.077C-6.095,-29.171 -6.411,-28.966 -6.331,-29.312C-6.354,-29.26 -6.42,-29.005 -6.444,-29.17L-6.415,-29.405C-6.54,-29.287 -6.657,-29.167 -6.764,-29.046C-7.021,-29.224 -6.63,-29.995 -7.142,-30.028C-7.358,-29.927 -7.566,-29.305 -7.463,-29.157C-7.4,-29.151 -7.29,-29.023 -7.257,-28.787L-7.349,-28.659C-7.268,-27.968 -7.082,-27.278 -6.989,-26.776C-6.999,-26.915 -6.996,-27.058 -6.98,-27.202L-6.968,-26.866L-6.986,-26.841C-6.963,-26.521 -6.981,-26.807 -6.957,-27.004C-6.956,-26.824 -6.976,-26.706 -6.96,-26.634C-6.915,-26.849 -6.86,-27.065 -6.796,-27.279C-6.816,-27.005 -6.898,-26.748 -6.854,-26.587C-6.768,-26.886 -6.831,-27.203 -6.715,-27.391C-6.7,-27.067 -6.764,-26.815 -6.656,-27.073C-6.679,-26.895 -6.712,-26.784 -6.746,-26.708C-6.658,-26.911 -6.606,-26.788 -6.483,-27.135C-6.506,-26.734 -6.226,-27.167 -6.401,-26.53C-6.342,-26.678 -6.149,-26.998 -6.076,-27.007C-6.414,-26.279 -5.86,-26.902 -6.148,-26.095C-5.837,-26.738 -5.738,-26.28 -5.444,-26.594C-5.473,-26.544 -5.531,-26.443 -5.532,-26.482C-5.464,-26.394 -5.517,-26.185 -5.512,-26.041C-5.287,-26.587 -5.094,-26.65 -4.877,-26.951C-4.981,-26.379 -5.208,-26.343 -5.379,-25.824C-5.205,-26.267 -5.007,-26.181 -4.891,-26.562C-4.941,-26.203 -4.883,-26.374 -5.031,-25.907C-4.726,-26.576 -4.904,-25.988 -4.653,-26.371C-4.675,-25.987 -4.9,-25.728 -4.675,-25.875C-4.706,-25.643 -4.929,-25.456 -4.929,-25.456" style="fill:rgb(255,76,148);fill-rule:nonzero;"/>
                </g>
            </g>
            <g transform="matrix(0.959893,0,0,1.355556,-19.040107,-102.177778)">
                <path d="M10.792,81.792C11.153,82.958 11.139,84.056 10.75,85.083C10.528,85.639 10.236,86.25 9.875,86.917C9.514,87.583 9.111,88.257 8.667,88.937C8.222,89.618 7.764,90.271 7.292,90.896C6.819,91.521 6.389,92.083 6,92.583C6.5,92.528 7.118,92.451 7.854,92.354C8.59,92.257 9.354,92.153 10.146,92.042C10.938,91.931 11.715,91.826 12.479,91.729C13.243,91.632 13.931,91.556 14.542,91.5C14.847,91.472 15.201,91.5 15.604,91.583C16.007,91.667 16.278,91.736 16.417,91.792C16.583,91.875 16.646,92.021 16.604,92.229C16.563,92.437 16.472,92.653 16.333,92.875C16.194,93.097 16.035,93.299 15.854,93.479C15.674,93.66 15.528,93.75 15.417,93.75C14.528,93.889 13.549,94.042 12.479,94.208C11.41,94.375 10.333,94.542 9.25,94.708C8.167,94.875 7.104,95.035 6.063,95.187C5.021,95.34 4.083,95.458 3.25,95.542C2.861,95.597 2.535,95.444 2.271,95.083C2.007,94.722 1.847,94.347 1.792,93.958C1.792,93.903 1.806,93.806 1.833,93.667C1.861,93.528 2.028,93.306 2.333,93C3.5,91.694 4.646,90.257 5.771,88.687C6.896,87.118 7.778,85.556 8.417,84C8.5,83.778 8.528,83.562 8.5,83.354C8.472,83.146 8.417,83.014 8.333,82.958C8.194,82.847 8.021,82.785 7.813,82.771C7.604,82.757 7.361,82.764 7.083,82.792C6.694,82.819 6.292,82.889 5.875,83C5.458,83.111 5.049,83.236 4.646,83.375C4.243,83.514 3.875,83.66 3.542,83.812C3.208,83.965 2.917,84.097 2.667,84.208C2.333,84.375 2.056,84.444 1.833,84.417C1.611,84.389 1.424,84.326 1.271,84.229C1.118,84.132 1,84.028 0.917,83.917C0.833,83.806 0.792,83.722 0.792,83.667C0.764,83.528 0.778,83.347 0.833,83.125C0.889,82.903 0.944,82.722 1,82.583C1.25,82.278 1.646,81.958 2.188,81.625C2.729,81.292 3.354,81.007 4.063,80.771C4.771,80.535 5.521,80.361 6.313,80.25C7.104,80.139 7.903,80.139 8.708,80.25C9.236,80.389 9.674,80.597 10.021,80.875C10.368,81.153 10.625,81.458 10.792,81.792Z" style="fill:rgb(228,228,228);fill-rule:nonzero;"/>
                <path d="M21.208,97.125C21.347,98.125 20.931,98.694 19.958,98.833C19.458,98.889 19.049,98.75 18.729,98.417C18.41,98.083 18.208,97.681 18.125,97.208C18.042,96.708 18.076,96.222 18.229,95.75C18.382,95.278 18.681,95.014 19.125,94.958C19.681,94.875 20.153,95.076 20.542,95.562C20.931,96.049 21.153,96.569 21.208,97.125Z" style="fill:rgb(228,228,228);fill-rule:nonzero;"/>
                <path d="M44.792,97.875C44.764,98.181 44.674,98.465 44.521,98.729C44.368,98.993 44.139,99.111 43.833,99.083C43.361,99.056 42.951,98.875 42.604,98.542C42.257,98.208 42.083,97.931 42.083,97.708C42.111,95.292 42.035,92.826 41.854,90.312C41.674,87.799 41.389,85.292 41,82.792C41,82.681 41.028,82.556 41.083,82.417C41.139,82.306 41.208,82.174 41.292,82.021C41.375,81.868 41.514,81.722 41.708,81.583C41.903,81.5 42.118,81.514 42.354,81.625C42.59,81.736 42.819,81.903 43.042,82.125C43.264,82.347 43.458,82.597 43.625,82.875C43.792,83.153 43.917,83.417 44,83.667C44.083,84.222 44.167,84.833 44.25,85.5C44.333,86.167 44.403,86.861 44.458,87.583C45.125,87.222 45.764,86.819 46.375,86.375C46.986,85.931 47.521,85.444 47.979,84.917C48.438,84.389 48.792,83.84 49.042,83.271C49.292,82.701 49.375,82.111 49.292,81.5C49.236,81.028 49.028,80.597 48.667,80.208C48.306,79.819 47.75,79.528 47,79.333C45.278,78.944 43.736,78.924 42.375,79.271C41.014,79.618 39.708,80.194 38.458,81C38.097,81.278 37.764,81.444 37.458,81.5C37.153,81.556 36.889,81.542 36.667,81.458C36.444,81.375 36.278,81.25 36.167,81.083C36.056,80.917 36,80.75 36,80.583C36.056,79.944 36.368,79.368 36.938,78.854C37.507,78.34 38.111,77.903 38.75,77.542C39.583,77.125 40.611,76.778 41.833,76.5C43.056,76.222 44.285,76.118 45.521,76.187C46.757,76.257 47.917,76.556 49,77.083C50.083,77.611 50.917,78.458 51.5,79.625C52.028,81.014 52.146,82.264 51.854,83.375C51.563,84.486 51.042,85.5 50.292,86.417C49.542,87.333 48.653,88.174 47.625,88.937C46.597,89.701 45.625,90.403 44.708,91.042C44.764,92.264 44.799,93.458 44.813,94.625C44.826,95.792 44.819,96.875 44.792,97.875Z" style="fill:rgb(228,228,228);fill-rule:nonzero;"/>
                <path d="M58.333,78.292C58.472,81.319 58.708,84.451 59.042,87.687C59.375,90.924 59.736,94.014 60.125,96.958C60.208,98.181 59.875,98.806 59.125,98.833C58.958,98.833 58.792,98.771 58.625,98.646C58.458,98.521 58.306,98.361 58.167,98.167C58.028,97.972 57.896,97.764 57.771,97.542C57.646,97.319 57.569,97.125 57.542,96.958C57.319,95.542 57.111,94.042 56.917,92.458C56.722,90.875 56.549,89.285 56.396,87.687C56.243,86.09 56.111,84.528 56,83C55.889,81.472 55.819,80.069 55.792,78.792C55.847,78.125 55.944,77.562 56.083,77.104C56.222,76.646 56.514,76.431 56.958,76.458C57.431,76.486 57.771,76.674 57.979,77.021C58.188,77.368 58.306,77.792 58.333,78.292Z" style="fill:rgb(228,228,228);fill-rule:nonzero;"/>
                <path d="M73.958,82.375C74.069,83.153 74.16,83.979 74.229,84.854C74.299,85.729 74.354,86.611 74.396,87.5C74.438,88.389 74.458,89.25 74.458,90.083C74.458,90.917 74.444,91.667 74.417,92.333C75.306,92.944 75.84,93.486 76.021,93.958C76.201,94.431 76.222,94.847 76.083,95.208C75.917,95.708 75.618,95.965 75.188,95.979C74.757,95.993 74.264,95.847 73.708,95.542C73.319,95.819 72.875,96.118 72.375,96.437C71.875,96.757 71.347,97.062 70.792,97.354C70.236,97.646 69.681,97.903 69.125,98.125C68.569,98.347 68.056,98.5 67.583,98.583C66.694,98.722 65.896,98.556 65.188,98.083C64.479,97.611 64,96.903 63.75,95.958C63.583,95.319 63.542,94.66 63.625,93.979C63.708,93.299 63.917,92.646 64.25,92.021C64.583,91.396 65.035,90.833 65.604,90.333C66.174,89.833 66.847,89.444 67.625,89.167C67.819,89.083 68.09,89.014 68.438,88.958C68.785,88.903 69.146,88.882 69.521,88.896C69.896,88.91 70.278,88.986 70.667,89.125C71.056,89.264 71.417,89.5 71.75,89.833C71.75,89.361 71.743,88.84 71.729,88.271C71.715,87.701 71.694,87.125 71.667,86.542C71.639,85.958 71.604,85.41 71.563,84.896C71.521,84.382 71.472,83.944 71.417,83.583C71.361,83.167 71.201,82.91 70.938,82.812C70.674,82.715 70.347,82.736 69.958,82.875C69.292,83.097 68.514,83.528 67.625,84.167C66.736,84.806 65.889,85.486 65.083,86.208C64.833,86.458 64.549,86.569 64.229,86.542C63.91,86.514 63.639,86.389 63.417,86.167C63.194,85.944 63.069,85.687 63.042,85.396C63.014,85.104 63.125,84.792 63.375,84.458C63.847,83.958 64.375,83.444 64.958,82.917C65.542,82.389 66.153,81.91 66.792,81.479C67.431,81.049 68.083,80.694 68.75,80.417C69.417,80.139 70.083,79.986 70.75,79.958C71.722,79.931 72.472,80.146 73,80.604C73.528,81.062 73.847,81.653 73.958,82.375ZM69.125,91.333C68.764,91.417 68.382,91.59 67.979,91.854C67.576,92.118 67.215,92.437 66.896,92.812C66.576,93.187 66.34,93.604 66.188,94.062C66.035,94.521 66.028,94.972 66.167,95.417C66.222,95.583 66.34,95.708 66.521,95.792C66.701,95.875 66.903,95.889 67.125,95.833C67.792,95.694 68.549,95.424 69.396,95.021C70.243,94.618 70.917,94.181 71.417,93.708C71.417,93.542 71.333,93.326 71.167,93.062C71,92.799 70.806,92.535 70.583,92.271C70.361,92.007 70.118,91.778 69.854,91.583C69.59,91.389 69.347,91.306 69.125,91.333Z" style="fill:rgb(228,228,228);fill-rule:nonzero;"/>
                <path d="M91.417,84.667C91.5,86.167 91.59,87.681 91.688,89.208C91.785,90.736 91.806,92.243 91.75,93.729C91.694,95.215 91.549,96.667 91.313,98.083C91.076,99.5 90.681,100.854 90.125,102.146C89.569,103.437 88.826,104.639 87.896,105.75C86.965,106.861 85.792,107.861 84.375,108.75C84.153,108.889 83.91,108.972 83.646,109C83.382,109.028 83.125,109.021 82.875,108.979C82.625,108.937 82.403,108.868 82.208,108.771C82.014,108.674 81.889,108.542 81.833,108.375C81.75,108.125 81.792,107.847 81.958,107.542C82.125,107.236 82.403,106.917 82.792,106.583C84.014,105.667 85.042,104.694 85.875,103.667C86.708,102.639 87.375,101.528 87.875,100.333C88.375,99.139 88.701,97.84 88.854,96.437C89.007,95.035 89,93.5 88.833,91.833C88.5,92.25 88.111,92.681 87.667,93.125C87.222,93.569 86.75,93.965 86.25,94.312C85.75,94.66 85.236,94.951 84.708,95.187C84.181,95.424 83.681,95.542 83.208,95.542C82.819,95.542 82.431,95.458 82.042,95.292C81.653,95.125 81.264,94.806 80.875,94.333C80.431,93.75 80.035,93.09 79.688,92.354C79.34,91.618 79.042,90.903 78.792,90.208C78.542,89.514 78.34,88.889 78.188,88.333C78.035,87.778 77.944,87.389 77.917,87.167C77.861,86.889 77.861,86.625 77.917,86.375C77.972,86.125 78.153,85.972 78.458,85.917C78.875,85.833 79.264,85.861 79.625,86C79.986,86.139 80.236,86.361 80.375,86.667C80.486,86.972 80.639,87.444 80.833,88.083C81.028,88.722 81.264,89.354 81.542,89.979C81.819,90.604 82.118,91.153 82.438,91.625C82.757,92.097 83.097,92.333 83.458,92.333C83.875,92.333 84.368,92.125 84.938,91.708C85.507,91.292 86.056,90.75 86.583,90.083C87.111,89.417 87.563,88.674 87.938,87.854C88.313,87.035 88.5,86.236 88.5,85.458C88.5,85.292 88.528,85.097 88.583,84.875C88.639,84.653 88.722,84.437 88.833,84.229C88.944,84.021 89.076,83.84 89.229,83.687C89.382,83.535 89.542,83.444 89.708,83.417C90.153,83.361 90.549,83.479 90.896,83.771C91.243,84.062 91.417,84.361 91.417,84.667Z" style="fill:rgb(228,228,228);fill-rule:nonzero;"/>
                <path d="M117.5,82.375C117.611,83.153 117.701,83.979 117.771,84.854C117.84,85.729 117.896,86.611 117.938,87.5C117.979,88.389 118,89.25 118,90.083C118,90.917 117.986,91.667 117.958,92.333C118.847,92.944 119.382,93.486 119.563,93.958C119.743,94.431 119.764,94.847 119.625,95.208C119.458,95.708 119.16,95.965 118.729,95.979C118.299,95.993 117.806,95.847 117.25,95.542C116.861,95.819 116.417,96.118 115.917,96.437C115.417,96.757 114.889,97.062 114.333,97.354C113.778,97.646 113.222,97.903 112.667,98.125C112.111,98.347 111.597,98.5 111.125,98.583C110.236,98.722 109.438,98.556 108.729,98.083C108.021,97.611 107.542,96.903 107.292,95.958C107.125,95.319 107.083,94.66 107.167,93.979C107.25,93.299 107.458,92.646 107.792,92.021C108.125,91.396 108.576,90.833 109.146,90.333C109.715,89.833 110.389,89.444 111.167,89.167C111.361,89.083 111.632,89.014 111.979,88.958C112.326,88.903 112.688,88.882 113.063,88.896C113.438,88.91 113.819,88.986 114.208,89.125C114.597,89.264 114.958,89.5 115.292,89.833C115.292,89.361 115.285,88.84 115.271,88.271C115.257,87.701 115.236,87.125 115.208,86.542C115.181,85.958 115.146,85.41 115.104,84.896C115.063,84.382 115.014,83.944 114.958,83.583C114.903,83.167 114.743,82.91 114.479,82.812C114.215,82.715 113.889,82.736 113.5,82.875C112.833,83.097 112.056,83.528 111.167,84.167C110.278,84.806 109.431,85.486 108.625,86.208C108.375,86.458 108.09,86.569 107.771,86.542C107.451,86.514 107.181,86.389 106.958,86.167C106.736,85.944 106.611,85.687 106.583,85.396C106.556,85.104 106.667,84.792 106.917,84.458C107.389,83.958 107.917,83.444 108.5,82.917C109.083,82.389 109.694,81.91 110.333,81.479C110.972,81.049 111.625,80.694 112.292,80.417C112.958,80.139 113.625,79.986 114.292,79.958C115.264,79.931 116.014,80.146 116.542,80.604C117.069,81.062 117.389,81.653 117.5,82.375ZM112.667,91.333C112.306,91.417 111.924,91.59 111.521,91.854C111.118,92.118 110.757,92.437 110.438,92.812C110.118,93.187 109.882,93.604 109.729,94.062C109.576,94.521 109.569,94.972 109.708,95.417C109.764,95.583 109.882,95.708 110.063,95.792C110.243,95.875 110.444,95.889 110.667,95.833C111.333,95.694 112.09,95.424 112.938,95.021C113.785,94.618 114.458,94.181 114.958,93.708C114.958,93.542 114.875,93.326 114.708,93.062C114.542,92.799 114.347,92.535 114.125,92.271C113.903,92.007 113.66,91.778 113.396,91.583C113.132,91.389 112.889,91.306 112.667,91.333Z" style="fill:rgb(228,228,228);fill-rule:nonzero;"/>
                <path d="M125.542,78.292C125.681,81.319 125.917,84.451 126.25,87.687C126.583,90.924 126.944,94.014 127.333,96.958C127.417,98.181 127.083,98.806 126.333,98.833C126.167,98.833 126,98.771 125.833,98.646C125.667,98.521 125.514,98.361 125.375,98.167C125.236,97.972 125.104,97.764 124.979,97.542C124.854,97.319 124.778,97.125 124.75,96.958C124.528,95.542 124.319,94.042 124.125,92.458C123.931,90.875 123.757,89.285 123.604,87.687C123.451,86.09 123.319,84.528 123.208,83C123.097,81.472 123.028,80.069 123,78.792C123.056,78.125 123.153,77.562 123.292,77.104C123.431,76.646 123.722,76.431 124.167,76.458C124.639,76.486 124.979,76.674 125.188,77.021C125.396,77.368 125.514,77.792 125.542,78.292Z" style="fill:rgb(228,228,228);fill-rule:nonzero;"/>
                <path d="M134.25,78.292C134.389,81.319 134.625,84.451 134.958,87.687C135.292,90.924 135.653,94.014 136.042,96.958C136.125,98.181 135.792,98.806 135.042,98.833C134.875,98.833 134.708,98.771 134.542,98.646C134.375,98.521 134.222,98.361 134.083,98.167C133.944,97.972 133.813,97.764 133.688,97.542C133.563,97.319 133.486,97.125 133.458,96.958C133.236,95.542 133.028,94.042 132.833,92.458C132.639,90.875 132.465,89.285 132.313,87.687C132.16,86.09 132.028,84.528 131.917,83C131.806,81.472 131.736,80.069 131.708,78.792C131.764,78.125 131.861,77.562 132,77.104C132.139,76.646 132.431,76.431 132.875,76.458C133.347,76.486 133.688,76.674 133.896,77.021C134.104,77.368 134.222,77.792 134.25,78.292Z" style="fill:rgb(228,228,228);fill-rule:nonzero;"/>
                <path d="M160.583,86.625C161.111,86.597 161.639,86.722 162.167,87C162.694,87.278 162.958,87.708 162.958,88.292C162.903,88.764 162.646,89.062 162.188,89.187C161.729,89.312 161.361,89.375 161.083,89.375C160.528,89.375 159.931,89.389 159.292,89.417C158.653,89.444 158,89.486 157.333,89.542C157.278,90.458 157.229,91.319 157.188,92.125C157.146,92.931 157.111,93.646 157.083,94.271C157.056,94.896 157.042,95.403 157.042,95.792C157.042,96.181 157.056,96.389 157.083,96.417C157.694,96.306 158.354,96.118 159.063,95.854C159.771,95.59 160.479,95.299 161.188,94.979C161.896,94.66 162.59,94.326 163.271,93.979C163.951,93.632 164.597,93.306 165.208,93C165.486,92.861 165.743,92.819 165.979,92.875C166.215,92.931 166.361,93.056 166.417,93.25C166.472,93.556 166.431,93.931 166.292,94.375C166.153,94.819 165.903,95.222 165.542,95.583C165.125,95.917 164.576,96.299 163.896,96.729C163.215,97.16 162.486,97.569 161.708,97.958C160.931,98.347 160.146,98.687 159.354,98.979C158.563,99.271 157.861,99.444 157.25,99.5C156.333,99.583 155.639,99.333 155.167,98.75C154.694,98.167 154.431,97.431 154.375,96.542C154.319,95.653 154.313,94.625 154.354,93.458C154.396,92.292 154.444,91.056 154.5,89.75C153.972,89.806 153.465,89.854 152.979,89.896C152.493,89.937 152.028,89.986 151.583,90.042C151.222,90.042 150.826,89.958 150.396,89.792C149.965,89.625 149.75,89.306 149.75,88.833C149.75,88.667 149.819,88.444 149.958,88.167C150.097,87.889 150.403,87.681 150.875,87.542C152.014,87.347 153.278,87.181 154.667,87.042C154.75,85.736 154.847,84.472 154.958,83.25C155.069,82.028 155.167,80.917 155.25,79.917C155.278,79.583 155.375,79.292 155.542,79.042C155.708,78.792 155.889,78.667 156.083,78.667C156.556,78.639 157.007,78.757 157.438,79.021C157.868,79.285 158.083,79.583 158.083,79.917C157.972,80.861 157.868,81.931 157.771,83.125C157.674,84.319 157.583,85.542 157.5,86.792C158.056,86.736 158.59,86.701 159.104,86.687C159.618,86.674 160.111,86.653 160.583,86.625Z" style="fill:rgb(228,228,228);fill-rule:nonzero;"/>
                <path d="M171.042,79.333C171.042,80 171.035,80.75 171.021,81.583C171.007,82.417 171.007,83.278 171.021,84.167C171.035,85.056 171.049,85.972 171.063,86.917C171.076,87.861 171.097,88.764 171.125,89.625C171.403,89.069 171.736,88.521 172.125,87.979C172.514,87.437 172.951,86.958 173.438,86.542C173.924,86.125 174.438,85.792 174.979,85.542C175.521,85.292 176.111,85.167 176.75,85.167C177.444,85.167 178.063,85.389 178.604,85.833C179.146,86.278 179.618,86.868 180.021,87.604C180.424,88.34 180.764,89.16 181.042,90.062C181.319,90.965 181.549,91.882 181.729,92.812C181.91,93.743 182.042,94.632 182.125,95.479C182.208,96.326 182.278,97.056 182.333,97.667C182.333,98.111 182.222,98.472 182,98.75C181.778,99.028 181.514,99.167 181.208,99.167C180.986,99.167 180.715,99.021 180.396,98.729C180.076,98.437 179.847,98.083 179.708,97.667C179.625,97.333 179.542,96.847 179.458,96.208C179.375,95.569 179.278,94.882 179.167,94.146C179.056,93.41 178.917,92.667 178.75,91.917C178.583,91.167 178.382,90.493 178.146,89.896C177.91,89.299 177.625,88.833 177.292,88.5C176.958,88.167 176.569,88.042 176.125,88.125C175.431,88.264 174.826,88.75 174.313,89.583C173.799,90.417 173.354,91.361 172.979,92.417C172.604,93.472 172.299,94.542 172.063,95.625C171.826,96.708 171.653,97.583 171.542,98.25C171.431,98.75 171.285,99.09 171.104,99.271C170.924,99.451 170.722,99.542 170.5,99.542C170.278,99.542 170.076,99.431 169.896,99.208C169.715,98.986 169.549,98.715 169.396,98.396C169.243,98.076 169.111,97.743 169,97.396C168.889,97.049 168.819,96.75 168.792,96.5C168.653,95 168.542,93.562 168.458,92.187C168.375,90.812 168.313,89.431 168.271,88.042C168.229,86.653 168.208,85.229 168.208,83.771C168.208,82.312 168.236,80.75 168.292,79.083C168.292,77.694 168.792,77.069 169.792,77.208C170.125,77.264 170.417,77.507 170.667,77.937C170.917,78.368 171.042,78.833 171.042,79.333Z" style="fill:rgb(228,228,228);fill-rule:nonzero;"/>
                <path d="M195.417,88C194.333,88.639 193.167,89.132 191.917,89.479C190.667,89.826 189.319,90 187.875,90C187.931,90.972 188.208,91.743 188.708,92.312C189.208,92.882 189.833,93.222 190.583,93.333C191.028,93.389 191.479,93.375 191.938,93.292C192.396,93.208 192.826,93.076 193.229,92.896C193.632,92.715 194,92.514 194.333,92.292C194.667,92.069 194.958,91.847 195.208,91.625C195.458,91.403 195.722,91.257 196,91.187C196.278,91.118 196.486,91.111 196.625,91.167C197.014,91.306 197.153,91.722 197.042,92.417C196.597,93.306 195.958,94.062 195.125,94.687C194.292,95.312 193.361,95.708 192.333,95.875C191.444,96.042 190.528,96 189.583,95.75C188.639,95.5 187.792,95.014 187.042,94.292C186.403,93.653 185.917,92.903 185.583,92.042C185.25,91.181 185.042,90.292 184.958,89.375C184.875,88.514 184.951,87.694 185.188,86.917C185.424,86.139 185.792,85.451 186.292,84.854C186.792,84.257 187.417,83.764 188.167,83.375C188.917,82.986 189.792,82.764 190.792,82.708C191.986,82.625 193.069,82.847 194.042,83.375C195.014,83.903 195.694,84.639 196.083,85.583C196.306,86.111 196.368,86.569 196.271,86.958C196.174,87.347 195.889,87.694 195.417,88ZM190.625,85.167C190.347,85.222 190.049,85.319 189.729,85.458C189.41,85.597 189.118,85.771 188.854,85.979C188.59,86.187 188.354,86.424 188.146,86.687C187.938,86.951 187.819,87.25 187.792,87.583C188.264,87.583 188.785,87.542 189.354,87.458C189.924,87.375 190.479,87.271 191.021,87.146C191.563,87.021 192.063,86.875 192.521,86.708C192.979,86.542 193.361,86.361 193.667,86.167C193.444,85.639 193.035,85.312 192.438,85.187C191.84,85.062 191.236,85.056 190.625,85.167Z" style="fill:rgb(228,228,228);fill-rule:nonzero;"/>
                <path d="M214.125,84.333C214.153,84.778 214.201,85.326 214.271,85.979C214.34,86.632 214.417,87.312 214.5,88.021C214.583,88.729 214.674,89.431 214.771,90.125C214.868,90.819 214.958,91.458 215.042,92.042C215.347,91.431 215.722,90.681 216.167,89.792C216.611,88.903 217.076,88.049 217.563,87.229C218.049,86.41 218.549,85.715 219.063,85.146C219.576,84.576 220.042,84.292 220.458,84.292C220.903,84.292 221.313,84.507 221.688,84.937C222.063,85.368 222.389,85.889 222.667,86.5C222.944,87.111 223.188,87.764 223.396,88.458C223.604,89.153 223.778,89.764 223.917,90.292C224.028,89.931 224.174,89.521 224.354,89.062C224.535,88.604 224.729,88.132 224.938,87.646C225.146,87.16 225.382,86.681 225.646,86.208C225.91,85.736 226.194,85.319 226.5,84.958C226.861,84.569 227.25,84.285 227.667,84.104C228.083,83.924 228.389,83.833 228.583,83.833C228.833,83.833 229.132,83.91 229.479,84.062C229.826,84.215 230.181,84.417 230.542,84.667C230.903,84.917 231.243,85.215 231.563,85.562C231.882,85.91 232.139,86.264 232.333,86.625C232.722,87.375 233.035,88.194 233.271,89.083C233.507,89.972 233.681,90.819 233.792,91.625C233.903,92.431 233.979,93.146 234.021,93.771C234.063,94.396 234.097,94.833 234.125,95.083C234.125,95.444 234.083,95.715 234,95.896C233.917,96.076 233.764,96.222 233.542,96.333C233.236,96.472 232.972,96.521 232.75,96.479C232.528,96.437 232.347,96.347 232.208,96.208C232.069,96.069 231.958,95.91 231.875,95.729C231.792,95.549 231.736,95.389 231.708,95.25C231.625,94.611 231.535,93.958 231.438,93.292C231.34,92.625 231.236,91.979 231.125,91.354C231.014,90.729 230.882,90.146 230.729,89.604C230.576,89.062 230.417,88.583 230.25,88.167C230.194,88.056 230.104,87.91 229.979,87.729C229.854,87.549 229.715,87.375 229.563,87.208C229.41,87.042 229.264,86.903 229.125,86.792C228.986,86.681 228.889,86.611 228.833,86.583C228.556,86.583 228.264,86.84 227.958,87.354C227.653,87.868 227.361,88.486 227.083,89.208C226.806,89.931 226.549,90.687 226.313,91.479C226.076,92.271 225.903,92.944 225.792,93.5C225.792,94.222 225.653,94.757 225.375,95.104C225.097,95.451 224.806,95.625 224.5,95.625C224.194,95.625 223.868,95.507 223.521,95.271C223.174,95.035 222.944,94.764 222.833,94.458C222.667,94.014 222.486,93.514 222.292,92.958C222.097,92.403 221.896,91.833 221.688,91.25C221.479,90.667 221.271,90.097 221.063,89.542C220.854,88.986 220.653,88.486 220.458,88.042C220.069,88.569 219.688,89.153 219.313,89.792C218.938,90.431 218.576,91.083 218.229,91.75C217.882,92.417 217.549,93.076 217.229,93.729C216.91,94.382 216.611,94.958 216.333,95.458C216.139,95.764 215.931,96.035 215.708,96.271C215.486,96.507 215.222,96.625 214.917,96.625C214.694,96.625 214.458,96.521 214.208,96.312C213.958,96.104 213.722,95.847 213.5,95.542C213.278,95.236 213.076,94.889 212.896,94.5C212.715,94.111 212.583,93.722 212.5,93.333C212.278,92.139 212.09,90.826 211.938,89.396C211.785,87.965 211.639,86.569 211.5,85.208C211.472,84.736 211.535,84.299 211.688,83.896C211.84,83.493 212.139,83.222 212.583,83.083C213.056,83 213.417,83.069 213.667,83.292C213.917,83.514 214.069,83.861 214.125,84.333Z" style="fill:rgb(228,228,228);fill-rule:nonzero;"/>
                <path d="M241.083,85.458C240.917,86.208 240.75,87.035 240.583,87.937C240.417,88.84 240.299,89.708 240.229,90.542C240.16,91.375 240.16,92.125 240.229,92.792C240.299,93.458 240.472,93.931 240.75,94.208C241.222,94.292 241.764,94.09 242.375,93.604C242.986,93.118 243.583,92.5 244.167,91.75C244.75,91 245.278,90.187 245.75,89.312C246.222,88.437 246.556,87.667 246.75,87C246.861,86.667 246.958,86.319 247.042,85.958C247.125,85.597 247.167,85.222 247.167,84.833C247.167,84.611 247.313,84.396 247.604,84.187C247.896,83.979 248.139,83.861 248.333,83.833C248.472,83.806 248.632,83.833 248.813,83.917C248.993,84 249.16,84.118 249.313,84.271C249.465,84.424 249.604,84.604 249.729,84.812C249.854,85.021 249.917,85.236 249.917,85.458C249.972,86.292 250.056,87.208 250.167,88.208C250.278,89.208 250.41,90.208 250.563,91.208C250.715,92.208 250.875,93.181 251.042,94.125C251.208,95.069 251.375,95.917 251.542,96.667C251.625,96.972 251.542,97.319 251.292,97.708C251.042,98.097 250.764,98.333 250.458,98.417C250.208,98.472 249.951,98.444 249.688,98.333C249.424,98.222 249.222,98 249.083,97.667C248.944,97.278 248.813,96.799 248.688,96.229C248.563,95.66 248.451,95.062 248.354,94.437C248.257,93.812 248.167,93.215 248.083,92.646C248,92.076 247.944,91.597 247.917,91.208C247.5,91.958 247.007,92.715 246.438,93.479C245.868,94.243 245.257,94.937 244.604,95.562C243.951,96.187 243.271,96.674 242.563,97.021C241.854,97.368 241.125,97.5 240.375,97.417C239.264,97.278 238.417,96.236 237.833,94.292C237.611,93.514 237.507,92.653 237.521,91.708C237.535,90.764 237.604,89.826 237.729,88.896C237.854,87.965 238.007,87.083 238.188,86.25C238.368,85.417 238.528,84.736 238.667,84.208C238.722,83.986 238.833,83.785 239,83.604C239.167,83.424 239.361,83.361 239.583,83.417C240,83.5 240.382,83.75 240.729,84.167C241.076,84.583 241.194,85.014 241.083,85.458Z" style="fill:rgb(228,228,228);fill-rule:nonzero;"/>
                <path d="M262.375,85.333C262.319,85.028 262.264,84.736 262.208,84.458C262.153,84.181 262.014,84 261.792,83.917C261.319,83.778 260.819,83.764 260.292,83.875C259.764,83.986 259.278,84.16 258.833,84.396C258.389,84.632 258.014,84.896 257.708,85.187C257.403,85.479 257.236,85.736 257.208,85.958C257.125,86.375 257.236,86.778 257.542,87.167C257.847,87.556 258.292,87.944 258.875,88.333C259.847,88.917 260.861,89.514 261.917,90.125C262.972,90.736 263.861,91.361 264.583,92C265.306,92.639 265.799,93.34 266.063,94.104C266.326,94.868 266.264,95.736 265.875,96.708C265.569,97.458 265,98.069 264.167,98.542C263.333,99.014 262.417,99.382 261.417,99.646C260.417,99.91 259.417,100.09 258.417,100.187C257.417,100.285 256.569,100.333 255.875,100.333C255.708,100.333 255.507,100.271 255.271,100.146C255.035,100.021 254.813,99.875 254.604,99.708C254.396,99.542 254.215,99.368 254.063,99.187C253.91,99.007 253.833,98.847 253.833,98.708C253.833,98.208 254.056,97.861 254.5,97.667C254.944,97.472 255.403,97.375 255.875,97.375C256.542,97.375 257.257,97.34 258.021,97.271C258.785,97.201 259.514,97.09 260.208,96.937C260.903,96.785 261.528,96.583 262.083,96.333C262.639,96.083 263.028,95.764 263.25,95.375C263.444,95.042 263.326,94.646 262.896,94.187C262.465,93.729 261.896,93.25 261.188,92.75C260.479,92.25 259.715,91.764 258.896,91.292C258.076,90.819 257.375,90.389 256.792,90C256.208,89.611 255.708,89.146 255.292,88.604C254.875,88.062 254.611,87.389 254.5,86.583C254.472,85.861 254.625,85.167 254.958,84.5C255.292,83.833 255.729,83.243 256.271,82.729C256.813,82.215 257.431,81.806 258.125,81.5C258.819,81.194 259.514,81.042 260.208,81.042C261.403,81.097 262.389,81.424 263.167,82.021C263.944,82.618 264.403,83.5 264.542,84.667C264.542,85.056 264.479,85.375 264.354,85.625C264.229,85.875 264.014,86.028 263.708,86.083C263.319,86.139 263.007,86.09 262.771,85.937C262.535,85.785 262.403,85.583 262.375,85.333Z" style="fill:rgb(228,228,228);fill-rule:nonzero;"/>
                <path d="M275.708,80.792C275.653,81.069 275.458,81.222 275.125,81.25C274.792,81.278 274.514,81.292 274.292,81.292C273.597,81.319 272.882,81.389 272.146,81.5C271.41,81.611 270.639,81.778 269.833,82C269.5,82.111 269.139,82.069 268.75,81.875C268.361,81.681 268.125,81.292 268.042,80.708C268.042,80.486 268.125,80.306 268.292,80.167C268.458,80.028 268.653,79.903 268.875,79.792C269.236,79.625 269.667,79.479 270.167,79.354C270.667,79.229 271.174,79.139 271.688,79.083C272.201,79.028 272.694,79.007 273.167,79.021C273.639,79.035 274.028,79.083 274.333,79.167C274.778,79.306 275.132,79.514 275.396,79.792C275.66,80.069 275.764,80.403 275.708,80.792ZM274.75,94.667C274.944,95.111 275.049,95.59 275.063,96.104C275.076,96.618 274.931,96.972 274.625,97.167C274.236,97.417 273.819,97.403 273.375,97.125C272.931,96.847 272.597,96.472 272.375,96C272.069,95.417 271.833,94.701 271.667,93.854C271.5,93.007 271.375,92.167 271.292,91.333C271.208,90.5 271.16,89.722 271.146,89C271.132,88.278 271.125,87.736 271.125,87.375C271.153,86.986 271.264,86.625 271.458,86.292C271.653,85.958 271.903,85.764 272.208,85.708C272.708,85.736 273.111,85.965 273.417,86.396C273.722,86.826 273.861,87.361 273.833,88C273.833,88.5 273.847,89.056 273.875,89.667C273.903,90.278 273.958,90.889 274.042,91.5C274.125,92.111 274.222,92.701 274.333,93.271C274.444,93.84 274.583,94.306 274.75,94.667Z" style="fill:rgb(228,228,228);fill-rule:nonzero;"/>
                <path d="M288.375,87.083C288.181,87.194 287.944,87.229 287.667,87.187C287.389,87.146 287.153,86.972 286.958,86.667C286.514,86.083 285.972,85.792 285.333,85.792C284.75,85.792 284.229,85.924 283.771,86.187C283.313,86.451 282.91,86.799 282.563,87.229C282.215,87.66 281.931,88.139 281.708,88.667C281.486,89.194 281.333,89.722 281.25,90.25C281.111,91.222 281.278,92.042 281.75,92.708C282.222,93.375 282.958,93.708 283.958,93.708C284.764,93.736 285.674,93.576 286.688,93.229C287.701,92.882 288.653,92.431 289.542,91.875C289.931,91.708 290.292,91.611 290.625,91.583C290.958,91.556 291.236,91.722 291.458,92.083C291.736,92.528 291.667,92.979 291.25,93.437C290.833,93.896 290.278,94.306 289.583,94.667C288.889,95.056 288.16,95.396 287.396,95.687C286.632,95.979 285.861,96.187 285.083,96.312C284.306,96.437 283.535,96.444 282.771,96.333C282.007,96.222 281.292,95.958 280.625,95.542C279.569,94.819 278.931,93.792 278.708,92.458C278.486,91.125 278.583,89.75 279,88.333C279.167,87.806 279.403,87.271 279.708,86.729C280.014,86.187 280.382,85.694 280.813,85.25C281.243,84.806 281.722,84.424 282.25,84.104C282.778,83.785 283.361,83.569 284,83.458C285.028,83.292 286.014,83.396 286.958,83.771C287.903,84.146 288.528,84.833 288.833,85.833C288.889,86.056 288.889,86.285 288.833,86.521C288.778,86.757 288.625,86.944 288.375,87.083Z" style="fill:rgb(228,228,228);fill-rule:nonzero;"/>
            </g>
        </g>
    </g>
</svg>
