<?xml version="1.0" encoding="UTF-8" standalone="no"?>
<!DOCTYPE svg PUBLIC "-//W3C//DTD SVG 1.1//EN" "http://www.w3.org/Graphics/SVG/1.1/DTD/svg11.dtd">
<svg width="100%" height="100%" viewBox="0 0 395 45" version="1.1" xmlns="http://www.w3.org/2000/svg" xmlns:xlink="http://www.w3.org/1999/xlink" xml:space="preserve" xmlns:serif="http://www.serif.com/" style="fill-rule:evenodd;clip-rule:evenodd;stroke-linejoin:round;stroke-miterlimit:2;">
    <g transform="matrix(1,0,0,1,-7,-120)">
        <g id="ArtBoard1" transform="matrix(1.100279,0,0,0.737705,29.005571,127.377049)">
            <rect x="-20" y="-10" width="359" height="61" style="fill:none;"/>
            <clipPath id="_clip1">
                <rect x="-20" y="-10" width="359" height="61"/>
            </clipPath>
            <g clip-path="url(#_clip1)">
                <g transform="matrix(-0.84557,0,0,1,266.883238,4.066667)">
                    <g transform="matrix(0.238222,0.808845,-0.814249,0.381428,301.209828,-9.31555)">
                        <path d="M0,30.406C-0.007,30.256 0.086,30.244 0.173,30.258C0.158,30.321 0.144,30.397 0.136,30.5L0.178,30.534C0.108,30.492 0.043,30.451 0,30.406M3.387,29.845C3.333,29.932 3.281,30.047 3.232,30.172C3.086,30.143 2.96,30.056 3,29.982C3.072,30.061 3.226,29.912 3.387,29.845M3.071,30.615L3.079,30.618C3.055,30.7 3.035,30.771 3.021,30.815C3.032,30.774 3.046,30.716 3.071,30.615M1.181,40.328C1.299,39.928 0.707,40 0.422,39.833C0.398,39.305 0.875,39.714 1.192,39.623C1.13,39.284 0.698,38.914 0.782,38.695C0.875,38.702 0.92,38.668 1.015,38.75C0.687,38.311 1.277,37.804 0.859,37.274C0.915,37.26 0.963,37.26 1.005,37.265C0.721,37.244 0.449,37.173 0.26,37.102C0.306,36.916 0.028,36.659 0.395,36.697C0.351,36.805 0.488,36.858 0.58,36.943L0.487,36.705C1.037,36.687 0.581,37.02 0.95,37.132C0.9,36.713 0.616,36.147 0.848,35.906C1.346,36.001 0.809,36.624 1.354,36.382L1.036,36.763C1.904,36.666 0.902,37.012 1.816,36.96C2.126,36.431 1.761,36.239 2.097,35.719C1.872,35.503 1.685,35.631 1.459,35.414C1.254,34.436 2.889,35.189 2.448,34.376C2.181,34.112 1.591,33.834 2.061,33.525L2.552,33.863C2.805,33.337 1.89,33.268 2.47,32.828C2.643,33.01 2.486,33.323 2.582,33.265C3.148,33.053 2.374,32.89 2.483,32.604L2.982,32.725C3.134,32.121 3.011,31.339 3.201,30.669C3.327,30.761 3.429,30.93 3.636,30.841C3.743,29.948 4.394,29.15 5.024,28.524L4.757,28.053C4.792,27.988 4.996,28.011 5.04,28.119C5.328,27.894 4.792,27.988 4.701,27.774C4.751,27.593 5.033,27.657 5.104,27.819C5.005,27.146 5.06,25.98 5.769,25.653L5.833,25.816C6.205,25.476 5.267,24.936 5.833,24.727L5.864,24.838C6.481,24.003 6.691,22.819 7.647,22.455C7.167,22.013 8.378,21.707 7.654,21.214C8.334,20.93 8.385,21.154 9.059,20.6C9.206,20.434 8.753,20.035 8.814,19.752L9.212,19.988L8.989,19.416L9.56,19.539L9.598,19.263C9.52,19.334 9.304,19.334 9.199,19.251C9.24,18.803 10,18.606 10.204,18.727L10.387,17.724C10.531,17.844 10.499,18.011 10.53,18.181C10.408,17.501 10.986,18.372 10.874,17.749C10.753,17.743 10.663,17.569 10.591,17.509C10.943,17.467 11.243,17.043 11.368,16.66L11.588,16.902C12.056,16.383 12.292,15.607 12.762,14.983C12.474,15.119 12.065,14.743 12.162,14.527L12.611,14.742C12.458,14.445 12.317,14.825 12.204,14.363C12.427,14.16 12.769,14.535 12.796,14.763L12.874,14.378C13.004,14.449 13.016,14.561 13.152,14.689C12.997,14.391 13.911,14.496 13.616,14.012L13.744,14.084C14.211,13.464 14.293,13.079 14.679,12.575C14.357,12.302 14.587,12.167 14.442,11.804C14.845,11.524 15.424,11.329 15.756,10.872C15.854,10.435 15.559,10.553 15.484,10.255C15.796,10.481 16.135,10.028 16.154,10.43C16.551,9.879 16.659,9.727 17.001,8.881C16.822,8.844 16.701,8.877 16.64,8.749C16.698,8.59 16.998,8.592 17.119,8.733L17.121,8.79C17.352,7.676 19.446,7.939 19.404,6.845L19.402,6.903L19.669,6.048C19.976,5.839 19.716,6.407 20.075,6.387C20.24,5.333 21.106,5.523 21.331,4.737C22.485,5.208 22.715,3.394 23.748,3.479L23.544,3.301C23.522,2.98 23.818,3.274 23.963,3.234C23.816,3.086 23.653,3.178 23.651,2.992C24.685,1.715 26.487,1.264 27.953,0.566C28.485,0.299 27.47,-0.774 28.453,-0.658L28.543,-0.125C29.24,-1.279 30.637,-1.418 31.422,-2.432C31.417,-2.297 31.488,-2.167 31.387,-2.112C31.782,-1.921 32.199,-2.554 32.065,-2.811C32.245,-2.869 32.231,-2.598 32.403,-2.521C32.725,-2.453 32.742,-3.225 33.029,-2.973C33.077,-2.932 33.022,-2.837 32.995,-2.79C33.056,-3.024 33.689,-3.11 33.358,-3.404C33.847,-3.432 34.037,-3.96 34.467,-3.904C34.469,-4.424 35.255,-4.042 35.033,-4.664C35.303,-4.041 35.977,-4.518 36.102,-4.925C36.103,-4.698 36.416,-4.837 36.436,-4.532C36.725,-4.678 36.94,-4.918 36.743,-5.211C37.621,-4.723 37.575,-6.303 38.306,-5.492C39.042,-6.214 39.775,-6.793 40.524,-7.273C40.753,-6.635 39.657,-6.839 39.967,-6.198C40.619,-6.774 40.844,-7.494 41.672,-7.648C41.904,-7.642 41.668,-7.331 41.645,-7.197C42.31,-7.766 43.157,-7.727 43.715,-8.335C43.736,-8.276 43.686,-8.183 43.634,-8.108C43.762,-8.181 43.986,-8.135 43.861,-8.417L43.758,-8.289C43.38,-8.623 43.97,-9.366 43.912,-9.596C43.991,-8.683 44.677,-9.649 44.699,-8.466C44.768,-8.555 44.83,-8.733 44.737,-8.918C44.892,-8.911 44.977,-8.814 44.923,-8.545C45.354,-8.883 45.067,-9.125 45.515,-9.283C45.564,-9.143 45.495,-9.056 45.509,-8.874C45.634,-9.229 45.76,-9.588 46.181,-9.605C46.189,-9.513 46.273,-9.419 46.16,-9.381C46.792,-9.655 47.003,-10.508 47.812,-10.497C47.817,-9.814 48.126,-10.382 48.35,-9.866L48.678,-10.158L48.434,-10.361C48.773,-10.469 48.937,-10.959 49.287,-10.886L49.112,-10.581L49.708,-10.9L49.282,-10.978C49.529,-11.37 49.013,-11.636 49.515,-11.642C49.442,-11.557 49.856,-11.751 50.139,-11.499L50.138,-11.497C50.248,-11.722 50.36,-11.959 50.655,-11.912C50.777,-11.765 50.801,-11.308 50.881,-11.209C50.896,-11.71 51.631,-11.599 51.684,-12.14C51.65,-12.006 51.74,-11.726 51.781,-11.677L51.801,-12.083C51.996,-12.02 52.038,-11.971 52.085,-11.74C52.579,-11.83 51.713,-12.365 52.37,-12.26C52.335,-12.216 52.374,-12.169 52.3,-12.084C52.912,-12.119 53.314,-12.67 53.892,-12.657C54.216,-12.169 53.481,-12.381 53.801,-11.984C54.515,-12.322 55.145,-13.122 55.911,-13.218L55.758,-13.236C55.624,-14.027 56.414,-13.029 56.671,-13.5C56.598,-13.416 56.682,-13.041 56.681,-13.134C57.215,-13.161 57.641,-13.626 58.326,-14.094L58.291,-13.869C58.636,-13.783 59.095,-13.995 59.439,-13.999C59.477,-14.222 59.668,-14.243 59.475,-14.496C60.774,-13.665 61.182,-15.63 62.317,-14.941C62.213,-14.91 62.115,-14.701 62.199,-14.722L62.893,-15.106C62.743,-15.425 62.741,-15.282 62.513,-15.5C62.553,-15.724 62.722,-15.935 62.908,-15.985C62.631,-15.673 63.056,-15.449 63.251,-15.302C63.199,-15.397 63.218,-15.524 63.178,-15.625C63.728,-15.135 63.062,-16.316 63.703,-16.059L63.722,-15.876C63.897,-16.02 64.02,-16.3 64.249,-16.306C64.44,-15.942 64.083,-16.07 64.155,-15.747C64.45,-15.848 64.559,-16.638 64.934,-16.323C64.833,-16.181 64.649,-16.131 64.549,-15.99C64.966,-15.613 64.97,-15.738 65.21,-15.723L65.186,-15.728L65.75,-15.655L65.588,-15.744C65.706,-16.857 66.311,-16.125 66.654,-16.919C66.315,-16.165 66.664,-16.534 66.737,-16.084C66.898,-15.995 67.13,-15.907 67.104,-15.769C67.257,-16.185 67.575,-15.592 67.787,-16.195C67.837,-16.057 68.048,-16.244 68.082,-15.874C68.368,-16.062 67.947,-16.103 67.929,-16.288C68.296,-16.89 69.208,-15.977 69.745,-16.808C70.282,-17.222 70.281,-17.729 70.787,-18.099C71.029,-17.915 70.752,-17.544 70.752,-17.544C71.105,-17.406 71.325,-17.497 71.576,-17.724C71.545,-17.587 71.629,-17.495 71.753,-17.354C71.975,-17.443 71.791,-17.908 72.142,-17.766C72.125,-17.595 72.116,-17.325 72.041,-17.141C72.282,-17.333 72.491,-17.66 72.744,-17.852C72.874,-17.619 72.658,-17.436 72.595,-17.252C72.886,-17.435 73.363,-17.659 73.376,-18.073L73.142,-18.171C73.253,-18.215 73.275,-17.845 73.206,-17.755C73.002,-17.386 72.785,-17.804 72.738,-17.945L72.918,-18.081C72.527,-18.872 72.141,-17.766 71.728,-17.724L71.759,-18.371L71.458,-17.773C71.334,-17.911 71.196,-18.238 71.375,-18.374C71.017,-18.609 71.168,-18.1 70.842,-18.377C70.803,-18.423 70.808,-18.455 70.828,-18.485L70.586,-18.238C70.613,-18.379 70.44,-18.657 70.635,-18.609C70.044,-18.841 69.92,-17.962 69.621,-18.378L69.655,-18.425C68.997,-18.055 69.691,-17.963 69.287,-17.316L68.669,-18.329L68.707,-17.867C68.63,-17.865 68.479,-17.864 68.462,-18.048C68.265,-17.678 68.555,-17.866 68.467,-17.54C68.02,-17.861 67.551,-17.117 67.297,-17.806C67.256,-17.438 67.696,-17.627 67.381,-17.301C67.086,-18.036 66.983,-17.062 66.578,-17.331C66.577,-17.748 66.932,-17.617 66.524,-17.887C66.499,-17.175 65.866,-17.876 65.628,-17.68C65.75,-17.151 65.099,-17.311 64.694,-17.016C64.677,-17.2 63.771,-17.086 63.3,-17.163L63.289,-17.255C63.35,-16.7 62.892,-16.684 62.608,-16.489C62.534,-16.81 62.556,-16.951 62.688,-17.139L62.393,-17.057C62.369,-16.867 62.302,-16.753 62.126,-16.64L62.092,-17.057C61.703,-16.93 61.429,-16.373 60.85,-16.495C60.926,-16.117 61.538,-15.578 61.076,-15.181C61,-15.376 60.884,-15.712 61.001,-15.833C60.963,-15.794 60.885,-15.621 60.769,-15.681L60.887,-16.077C60.616,-16.16 60.846,-15.762 60.654,-15.742C60.577,-16.029 60.46,-15.907 60.423,-16.141C60.462,-16.182 60.617,-16.068 60.655,-16.2C60.434,-16.193 60.135,-16.292 59.991,-16.484C60.055,-16.327 60.1,-16.1 59.958,-16.021C59.573,-15.888 59.727,-16.325 59.456,-16.405C59.417,-16.18 59.108,-16.312 59.225,-15.885C59.11,-15.853 59.031,-16.046 58.953,-16.148C58.805,-15.902 58.021,-15.819 58.383,-15.433L58.443,-15.419C58.436,-15.407 58.425,-15.404 58.416,-15.391L58.417,-15.391L58.416,-15.391C57.878,-14.776 56.969,-15.22 56.366,-14.843L56.324,-14.985C55.981,-14.704 55.482,-14.62 55.298,-14.229C55.183,-14.194 54.945,-14.404 54.942,-14.587C54.676,-14.387 54.692,-14.22 54.188,-14.317C54.41,-14.658 54.015,-14.503 54.438,-14.594C54.012,-14.594 53.852,-14.791 53.558,-14.272C53.585,-14.679 53.121,-14.634 52.971,-14.467L53.326,-14.295C53.135,-14.176 52.944,-14.15 52.75,-14.122L52.696,-14.629C51.71,-14.951 51.588,-13.178 50.666,-13.946C50.566,-13.545 51.174,-13.854 51.115,-13.405C50.73,-13.35 50.124,-13.9 50.009,-13.863C49.421,-13.955 49.778,-13.014 49.197,-13.016C49.321,-12.871 49.537,-12.442 49.205,-12.152C48.821,-12.091 48.516,-12.703 48.698,-12.919C48.78,-12.963 48.84,-12.924 48.856,-12.865C48.953,-12.967 49.082,-13.091 48.875,-13.225L48.886,-13.04C48.646,-13.152 48.154,-12.957 48.175,-13.275C47.957,-13.018 48.154,-12.958 48.387,-12.942C47.837,-13.022 47.658,-12.695 47.122,-12.691C47.23,-12.625 47.37,-12.452 47.294,-12.427C46.519,-12.389 47.098,-12 46.651,-11.758C46.291,-11.916 46.529,-12.402 46.129,-12.016C45.775,-12.084 45.907,-12.438 45.974,-12.617C45.655,-12.137 45.083,-12.536 44.812,-12.505L44.992,-12.723C44.884,-12.594 44.771,-12.554 44.656,-12.513L44.909,-12.227C44.753,-12.235 44.639,-12.195 44.59,-12.335C44.532,-12.065 44.9,-11.818 44.736,-11.417C44.494,-11.521 44.259,-11.034 44.033,-11.454C44.652,-11.512 43.805,-11.876 44.256,-12.124C44.184,-12.037 44.071,-11.998 43.914,-12.007C43.875,-12.049 43.899,-12.105 43.926,-12.144C43.238,-12.34 43.864,-11.553 43.302,-11.352C43.28,-11.629 42.995,-11.776 42.923,-11.688C43.151,-11.768 43.188,-11.313 43.054,-11.045C42.624,-11.103 42.721,-10.754 42.525,-10.705L42.774,-10.695C42.796,-10.419 42.605,-10.386 42.388,-10.21C42.292,-10.395 42.562,-10.43 42.441,-10.482C42.335,-9.938 41.644,-10.691 41.374,-10.247C41.129,-10.346 41.173,-10.706 40.971,-10.759C40.667,-10.267 40.369,-10.91 40.021,-10.464C40.286,-10.184 40.275,-10.275 40.088,-9.823L40.737,-10.355L40.454,-9.681C40.679,-9.766 40.842,-10.08 40.999,-10.077C40.88,-9.715 40.871,-9.807 41.087,-9.573C40.583,-9.949 40.599,-9.04 40.111,-9.235L39.788,-10.06C39.104,-10.207 39.016,-9.25 38.242,-9.167L38.523,-9.119C38.568,-8.758 38.119,-8.892 37.954,-8.666C37.857,-8.947 37.676,-8.986 37.507,-9.114C37.606,-8.917 36.995,-8.914 37.171,-8.346L36.709,-8.567C36.091,-8.463 36.426,-7.517 35.86,-7.369C35.884,-7.734 35.556,-7.816 35.815,-8.186C35.636,-8.111 35.456,-8.083 35.539,-7.896C35.358,-8.016 35.22,-7.306 34.94,-7.486C34.921,-7.333 35.03,-7.042 34.823,-6.972C34.776,-7.016 34.761,-7.105 34.761,-7.105C34.823,-6.972 34.54,-6.781 34.853,-6.566C33.916,-7.137 33.394,-5.782 32.578,-6.247C32.245,-5.967 31.837,-5.649 31.511,-5.446C31.491,-5.535 31.443,-5.576 31.521,-5.583C30.923,-5.574 31.638,-4.681 30.965,-4.668C30.464,-4.94 31.12,-5.047 30.865,-5.114C30.318,-5.931 30.294,-4.641 29.661,-4.937L29.718,-5.036C29.28,-5.171 29.239,-4.34 28.771,-4.137C28.771,-4.137 28.748,-4.224 28.698,-4.265C28.651,-3.662 28.178,-3.185 27.844,-2.805C27.769,-3.209 27.924,-3.094 27.64,-3.373C27.484,-3.21 28.023,-2.88 27.715,-2.557C27.484,-2.659 27.12,-2.646 26.86,-2.969L27.198,-3.209C26.729,-3.548 26.754,-2.907 26.524,-2.863L26.419,-3.073C25.93,-2.654 26.248,-2.167 25.666,-1.818L25.823,-1.712C25.854,-1.02 25.382,-1.803 25.329,-1.235L24.895,-1.654C24.773,-1.398 24.529,-0.691 24.248,-0.341C24.185,-0.838 24.464,-1.331 24.577,-1.724C24.372,-1.59 23.928,-1.198 24,-0.889C24.045,-0.993 24.059,-1.184 24.191,-1.168C24.225,-0.615 24.05,-0.203 23.665,0.083C23.029,-0.881 22.495,0.626 21.664,0.162C21.263,1.034 20.229,1.126 19.516,1.853C20.376,2.278 19.315,2.07 19.976,2.709C19.844,2.907 19.768,2.956 19.713,2.926L18.823,3.004C18.518,2.924 18.848,2.703 18.692,2.568C18.268,2.869 18.269,2.431 17.851,2.489C18.127,2.68 18.042,2.952 17.745,3.068L18.335,3.087C18.158,3.935 17.35,2.962 17.169,3.82L17.13,3.451C16.983,3.834 16.147,4.426 16.427,5.2C16.305,5.174 16.063,5.062 16.13,4.899C15.429,5.468 15.349,6.866 14.56,7.074L14.438,6.875C14.375,7.042 14.56,7.368 14.254,7.373C14.192,7.304 14.131,7.175 14.07,7.224C14.07,7.342 14.077,7.813 13.834,7.891L13.768,7.585C12.976,8.047 13.367,8.988 13.038,9.642C12.531,9.219 11.937,9.612 11.639,9.809L11.573,9.741C10.863,10.469 10.94,11.425 10.593,12.319C9.66,12.342 9.19,13.708 8.338,14.246C8.519,14.198 8.748,14.558 8.708,14.73C8.474,14.833 8.744,15.479 8.263,15.111L8.317,15.054C7.729,14.852 7.606,15.314 7.407,15.601L8.036,16.087C6.576,16.228 7.093,18.307 5.977,18.198C6.033,18.491 5.891,18.724 5.949,19.012L5.59,18.785C5.188,19.257 4.97,19.487 4.689,20.198L4.5,19.913C4.269,20.276 5.306,20.988 5.141,21.34L4.529,21.135C4.186,21.789 3.313,22.184 3.502,23.111C3.425,23.057 3.272,22.953 3.304,22.834C3.131,23.137 2.308,23.853 3.144,24.128C2.635,23.883 2.743,24.786 2.799,25.253L2.449,25.015C2.788,25.553 2.916,25.625 2.853,26.113C2.757,26.191 2.509,26.06 2.668,25.971C2.314,26.215 2.906,26.4 2.516,26.713L2.344,26.449C2.154,26.782 2.297,26.815 2.493,27.134C2.546,27.419 2.094,27.743 1.726,27.643C1.917,27.784 2.118,28.099 1.932,28.261C1.789,28.233 1.739,28.122 1.715,28.067C1.206,28.544 1.796,29.129 1.248,29.374C1.117,29.329 1.042,29.329 0.989,29.347C1.194,28.883 1.374,28.515 1.387,28.562C1.033,28.41 0.811,28.765 0.448,28.255C0.585,28.677 0.951,29.437 0.628,29.737C0.586,29.741 0.545,29.745 0.484,29.736L0.46,29.681C0.389,29.752 0.39,29.843 0.42,29.938C0.31,30.032 0.24,30.092 0.19,30.205C-0.123,30.132 -0.138,30.584 -0.225,30.771C0.174,30.907 0.016,31.133 0.43,31.024C0.39,31.044 0.396,30.97 0.428,30.837C0.428,30.803 0.435,30.767 0.418,30.739L0.448,30.766C0.489,30.637 0.542,30.47 0.602,30.281C0.744,30.511 0.852,30.733 0.554,30.859C0.77,31.055 0.989,31.262 1.088,31.37C0.441,31.416 -0.048,31.809 -0.415,31.754C-0.424,32.418 -0.777,33.197 -0.15,33.826C-0.111,34.026 -0.43,33.944 -0.569,33.967C-0.612,33.844 -0.561,33.733 -0.651,33.643C-0.573,34.045 -0.914,34.664 -0.416,34.917C-0.796,35.26 -0.819,34.521 -0.93,35.129L-1.064,34.998C-2.281,35.893 -0.291,37.28 -1.755,38.235C-1.665,38.164 -1.622,38.128 -1.528,38.135C-2.406,39.48 -1.872,41.267 -2.953,42.558C-3.204,42.942 -2.868,43.061 -2.662,43.368L-3.125,43.367L-2.695,43.908C-2.435,44.594 -3.989,44.775 -3.424,45.694L-3.105,45.645C-3.221,45.915 -3.083,46.567 -3.419,46.463C-3.368,46.501 -3.12,46.607 -3.293,46.692L-3.528,46.663L-3.231,47.421C-3.482,47.935 -4.149,47.196 -4.314,47.983C-4.268,48.293 -3.756,48.915 -3.582,48.824C-3.553,48.708 -3.391,48.543 -3.154,48.566L-3.072,48.848C-2.387,48.99 -1.707,49.278 -1.128,48.709L-1.484,48.205L-1.127,48.111L-1.163,48.487C-0.815,48.32 -1.074,48.147 -1.243,47.968C-1.06,47.959 -0.925,47.915 -0.846,47.838L-1.44,47.301C-1.162,47.291 -0.934,47.579 -0.741,47.312C-1.016,47.059 -1.375,47.412 -1.526,47.041C-1.18,46.878 -0.935,46.983 -1.165,46.69C-0.982,46.684 -0.876,46.756 -0.813,46.866C-0.998,46.61 -0.808,46.268 -1.15,46.091C-0.723,45.938 -1.111,45.326 -0.465,45.467C-0.607,45.37 -0.902,44.985 -0.891,44.776C-0.183,45.296 -0.703,44.026 0.11,44.291C-0.545,43.875 0.015,43.251 -0.267,42.684C-0.218,42.724 -0.118,42.802 -0.163,42.836C-0.044,42.578 0.183,42.547 0.353,42.404C-0.212,42.239 -0.249,41.786 -0.55,41.472C0.077,41.271 0.076,41.835 0.629,41.856C0.161,41.763 0.297,41.171 -0.112,41.189C0.295,41.021 0.111,41.012 0.617,41.001C-0.084,40.779 0.558,40.738 0.175,40.417C0.622,40.143 0.867,40.496 0.755,40.041C1.022,39.909 1.181,40.328 1.181,40.328" style="fill:rgb(255,76,148);fill-rule:nonzero;"/>
                    </g>
                    <g transform="matrix(0.252871,0.853511,-0.676768,0.31891,319.262292,43.253075)">
                        <path d="M0,-27.641C0.075,-27.668 0.05,-27.587 0.013,-27.509C-0.012,-27.514 -0.044,-27.516 -0.092,-27.509L-0.122,-27.467C-0.078,-27.535 -0.036,-27.598 0,-27.641M-0.863,-24.766C-0.888,-24.799 -0.928,-24.826 -0.973,-24.849C-0.909,-24.98 -0.824,-25.104 -0.8,-25.081C-0.864,-25.006 -0.842,-24.895 -0.863,-24.766M-1.138,-24.917L-1.142,-24.91C-1.174,-24.918 -1.203,-24.924 -1.22,-24.928C-1.203,-24.926 -1.18,-24.923 -1.138,-24.917M-4.929,-25.456C-4.802,-25.389 -4.643,-25.923 -4.483,-26.201C-4.252,-26.269 -4.577,-25.794 -4.64,-25.512C-4.478,-25.597 -4.183,-26.019 -4.115,-25.962C-4.148,-25.877 -4.147,-25.84 -4.214,-25.745C-3.915,-26.09 -3.883,-25.61 -3.51,-26.045C-3.522,-25.996 -3.538,-25.953 -3.554,-25.914C-3.452,-26.173 -3.33,-26.427 -3.236,-26.605C-3.168,-26.582 -2.96,-26.861 -3.099,-26.524C-3.133,-26.554 -3.202,-26.424 -3.271,-26.332L-3.133,-26.439C-3.308,-25.943 -3.305,-26.325 -3.477,-25.978C-3.274,-26.067 -2.928,-26.37 -2.895,-26.188C-3.107,-25.724 -3.203,-26.155 -3.278,-25.683L-3.341,-25.936C-3.588,-25.159 -3.407,-26.034 -3.689,-25.211C-3.561,-24.978 -3.352,-25.328 -3.224,-25.094C-3.049,-25.322 -3.045,-25.474 -2.87,-25.702C-2.348,-26.003 -3.247,-24.454 -2.724,-24.947C-2.511,-25.217 -2.183,-25.772 -2.198,-25.391L-2.522,-24.912C-2.36,-24.757 -2.017,-25.578 -2.002,-25.128C-2.147,-24.949 -2.245,-25.043 -2.249,-24.968C-2.338,-24.497 -2,-25.203 -1.899,-25.148L-2.126,-24.69C-1.885,-24.648 -1.479,-24.848 -1.208,-24.795C-1.296,-24.671 -1.414,-24.555 -1.439,-24.389C-1.03,-24.446 -0.867,-23.987 -0.753,-23.567L-0.425,-23.883C-0.403,-23.864 -0.482,-23.685 -0.552,-23.628C-0.533,-23.421 -0.403,-23.864 -0.264,-23.982C-0.188,-23.972 -0.315,-23.717 -0.421,-23.627C-0.044,-23.835 0.527,-23.993 0.477,-23.473L0.37,-23.384C0.428,-23.14 1.016,-24.045 0.941,-23.608L0.873,-23.559C1.1,-23.19 1.683,-23.304 1.575,-22.582C1.964,-23.085 1.744,-22.136 2.245,-22.865C2.193,-22.376 2.054,-22.279 2.154,-21.862C2.201,-21.783 2.561,-22.257 2.698,-22.277L2.446,-21.89L2.83,-22.217L2.587,-21.714L2.733,-21.76C2.716,-21.804 2.779,-21.978 2.858,-22.086C3.1,-22.176 2.986,-21.613 2.857,-21.414L3.373,-21.541C3.262,-21.391 3.177,-21.371 3.071,-21.299C3.493,-21.585 2.828,-20.876 3.214,-21.138C3.253,-21.238 3.379,-21.359 3.435,-21.434C3.352,-21.155 3.512,-21.04 3.699,-21.055L3.496,-20.808C3.667,-20.592 4.042,-20.62 4.282,-20.446C4.28,-20.629 4.615,-21.069 4.717,-21.062L4.466,-20.641C4.686,-20.856 4.498,-20.846 4.804,-21.081C4.862,-20.971 4.546,-20.583 4.404,-20.489L4.611,-20.551C4.533,-20.427 4.463,-20.382 4.35,-20.234C4.57,-20.451 4.257,-19.7 4.625,-20.085L4.547,-19.961C4.785,-19.788 4.994,-19.849 5.202,-19.728C5.452,-20.068 5.474,-19.937 5.731,-20.171C5.797,-19.957 5.76,-19.574 5.953,-19.478C6.199,-19.558 6.2,-19.74 6.404,-19.901C6.192,-19.58 6.314,-19.526 6.091,-19.352C6.256,-19.302 6.287,-19.295 6.664,-19.357C6.762,-19.484 6.79,-19.555 6.894,-19.635C6.971,-19.643 6.847,-19.448 6.706,-19.328L6.669,-19.309C6.972,-19.412 6.863,-19.098 6.725,-18.854C6.595,-18.604 6.437,-18.418 6.836,-18.533L6.797,-18.523C6.945,-18.533 7.099,-18.536 7.257,-18.53C7.232,-18.418 6.972,-18.462 6.781,-18.305C7.449,-18.355 6.804,-17.995 7.248,-17.955C6.717,-17.758 6.745,-17.684 6.835,-17.587C6.915,-17.495 7.048,-17.37 6.684,-17.294L6.95,-17.305C7.212,-17.262 6.802,-17.254 6.737,-17.23C6.946,-17.227 6.978,-17.269 7.124,-17.241C7.276,-17.048 7.156,-16.837 6.949,-16.694C6.717,-16.462 6.401,-16.208 6.211,-15.958C6.086,-15.767 7.513,-15.468 6.823,-15.369L6.369,-15.58C6.808,-14.984 6.088,-14.708 6.436,-14.134C6.335,-14.194 6.194,-14.24 6.209,-14.281C5.837,-14.301 6.083,-13.956 6.362,-13.863C6.309,-13.808 6.104,-13.93 5.949,-13.936C5.718,-13.913 6.311,-13.567 5.955,-13.632C5.897,-13.642 5.853,-13.694 5.832,-13.719C5.978,-13.606 5.7,-13.462 6.112,-13.385C5.871,-13.289 6.188,-13.02 5.909,-12.973C6.318,-12.737 5.601,-12.774 6.211,-12.53C5.575,-12.766 5.596,-12.433 5.86,-12.224C5.679,-12.328 5.629,-12.209 5.375,-12.344C5.344,-12.227 5.425,-12.079 5.76,-11.98C4.924,-12.047 6.216,-11.327 5.196,-11.568C5.409,-11.1 5.522,-10.695 5.553,-10.329C4.927,-10.582 5.619,-10.694 4.95,-10.933C5.103,-10.543 5.577,-10.165 5.312,-9.933C5.196,-9.891 5.055,-10.081 4.957,-10.149C5.103,-9.755 4.679,-9.606 4.921,-9.211C4.863,-9.235 4.81,-9.288 4.772,-9.334C4.773,-9.274 4.632,-9.251 4.921,-9.144L4.863,-9.224C5.311,-9.143 5.649,-8.678 5.865,-8.581C5.08,-8.993 5.556,-8.405 4.576,-8.954C4.616,-8.898 4.735,-8.802 4.929,-8.734C4.853,-8.706 4.735,-8.734 4.538,-8.871C4.62,-8.626 4.95,-8.571 4.877,-8.406C4.739,-8.462 4.699,-8.516 4.543,-8.599C4.78,-8.407 5.016,-8.214 4.842,-8.12C4.762,-8.161 4.647,-8.188 4.666,-8.229C4.612,-7.971 5.219,-7.529 4.852,-7.366C4.283,-7.685 4.618,-7.354 4.092,-7.548L4.189,-7.343L4.465,-7.299C4.406,-7.177 4.74,-6.914 4.526,-6.874L4.35,-7.054L4.354,-6.779L4.604,-6.833C4.821,-6.599 5.268,-6.583 5.056,-6.474C5.016,-6.529 4.999,-6.35 4.666,-6.408L4.665,-6.409C4.806,-6.28 4.955,-6.146 4.788,-6.104C4.612,-6.147 4.221,-6.354 4.104,-6.383C4.514,-6.147 4.106,-6.039 4.539,-5.776C4.44,-5.846 4.167,-5.955 4.109,-5.969L4.441,-5.777C4.305,-5.764 4.247,-5.777 4.033,-5.873C3.898,-5.723 4.715,-5.666 4.348,-5.571C4.326,-5.599 4.27,-5.611 4.229,-5.667C3.998,-5.516 4.292,-5.174 4.042,-5.049C3.496,-5.199 3.98,-5.269 3.513,-5.378C3.498,-5.06 3.915,-4.552 3.686,-4.33L3.763,-4.358C4.49,-4.033 3.318,-4.299 3.614,-4.027C3.572,-4.081 3.219,-4.23 3.298,-4.189C3.107,-4.049 3.336,-3.736 3.463,-3.366L3.285,-3.474C3.073,-3.428 3.077,-3.221 2.945,-3.134C3.123,-3.028 3.066,-2.972 3.36,-2.909C2.129,-2.943 3.693,-1.995 2.663,-1.996C2.674,-2.036 2.527,-2.149 2.515,-2.118L2.593,-1.775C2.928,-1.683 2.804,-1.743 3.08,-1.712C3.261,-1.609 3.383,-1.478 3.359,-1.41C3.187,-1.61 2.833,-1.592 2.631,-1.6C2.734,-1.575 2.839,-1.518 2.942,-1.487C2.311,-1.541 3.594,-1.236 3.135,-1.171L2.966,-1.241C3.029,-1.136 3.234,-0.99 3.158,-0.927C2.767,-1.02 3.007,-1.065 2.696,-1.176C2.68,-1.053 3.343,-0.712 2.929,-0.735C2.839,-0.818 2.86,-0.888 2.771,-0.971C2.287,-1.007 2.396,-0.956 2.297,-0.895L2.31,-0.9L2.043,-0.771L2.181,-0.782C3.129,-0.319 2.264,-0.432 2.861,-0.033C2.298,-0.413 2.513,-0.176 2.083,-0.325C1.948,-0.312 1.79,-0.276 1.674,-0.336C1.997,-0.135 1.351,-0.262 1.824,0.025C1.682,-0.012 1.781,0.12 1.435,-0.005C1.509,0.15 1.687,0.038 1.86,0.101C2.288,0.426 1.141,0.372 1.732,0.833C1.943,1.142 2.41,1.309 2.594,1.58C2.349,1.595 2.093,1.391 2.093,1.391C1.854,1.455 1.87,1.554 2.004,1.704C1.886,1.651 1.775,1.649 1.606,1.645C1.621,1.744 2.109,1.828 1.87,1.895C1.716,1.838 1.468,1.753 1.32,1.671C1.422,1.809 1.669,1.978 1.774,2.116C1.52,2.091 1.411,1.965 1.257,1.889C1.342,2.042 1.415,2.267 1.802,2.387L1.959,2.338C1.969,2.386 1.615,2.289 1.55,2.24C1.263,2.066 1.719,2.115 1.863,2.141L1.939,2.239C2.794,2.344 1.864,1.899 1.958,1.752L2.548,1.96L2.085,1.682C2.251,1.687 2.596,1.748 2.667,1.844C2.994,1.809 2.477,1.695 2.834,1.685C2.889,1.688 2.917,1.7 2.938,1.715L2.785,1.565C2.906,1.617 3.216,1.656 3.112,1.698C3.508,1.602 2.737,1.277 3.212,1.328L3.245,1.353C3.108,1.038 2.809,1.21 2.342,0.868L3.468,1.041L3.035,0.891C3.059,0.869 3.107,0.825 3.281,0.885C3.009,0.699 3.084,0.847 2.817,0.708C3.256,0.695 2.737,0.294 3.445,0.474C3.125,0.327 3.15,0.521 2.959,0.313C3.723,0.5 2.879,0.114 3.258,0.101C3.634,0.256 3.397,0.303 3.777,0.293C3.145,0.02 3.985,0.111 3.895,-0.024C3.377,-0.195 3.749,-0.307 3.631,-0.527C3.801,-0.46 4.018,-0.744 4.254,-0.831L4.34,-0.797C3.829,-1.004 3.977,-1.129 3.912,-1.281C4.222,-1.168 4.337,-1.104 4.455,-0.995L4.49,-1.102C4.333,-1.185 4.257,-1.25 4.222,-1.34L4.601,-1.177C4.63,-1.326 4.247,-1.625 4.571,-1.716C4.214,-1.857 3.512,-1.93 3.341,-2.214C3.539,-2.151 3.875,-2.037 3.938,-1.957C3.917,-1.983 3.796,-2.076 3.892,-2.079L4.193,-1.883C4.367,-1.914 3.934,-2.026 3.989,-2.082C4.267,-1.98 4.205,-2.06 4.423,-1.97C4.443,-1.943 4.287,-1.954 4.387,-1.888C4.464,-1.946 4.662,-1.976 4.883,-1.93C4.722,-1.981 4.508,-2.066 4.492,-2.135C4.522,-2.285 4.844,-2.061 5.016,-2.091C4.836,-2.197 5.07,-2.213 4.656,-2.37C4.674,-2.41 4.871,-2.346 4.989,-2.32C4.833,-2.462 5.066,-2.683 4.594,-2.766L4.558,-2.757C4.552,-2.765 4.55,-2.768 4.544,-2.776C4.224,-3.174 4.969,-3.19 4.882,-3.497L5.021,-3.444C4.918,-3.648 5.051,-3.798 4.794,-4.016C4.812,-4.058 5.086,-4.017 5.243,-3.935C5.182,-4.085 5.032,-4.158 5.321,-4.226C5.519,-4.022 5.549,-4.181 5.454,-4.045C5.628,-4.141 5.861,-4.085 5.544,-4.386C5.877,-4.195 6.03,-4.317 5.951,-4.426L5.66,-4.427C5.638,-4.522 5.695,-4.577 5.752,-4.632L6.202,-4.412C6.881,-4.477 5.45,-5.317 6.482,-5.162C6.189,-5.368 6.191,-5.095 5.839,-5.315C5.956,-5.424 6.676,-5.297 6.694,-5.338C7.023,-5.418 6.085,-5.779 6.337,-5.901C6.163,-5.942 5.712,-6.096 5.614,-6.302C5.729,-6.412 6.374,-6.189 6.472,-6.051C6.473,-6.014 6.415,-6.019 6.359,-6.043C6.402,-5.975 6.45,-5.89 6.65,-5.871L6.492,-5.955C6.687,-5.954 6.743,-6.145 6.997,-5.994C6.88,-6.158 6.743,-6.145 6.627,-6.105C6.936,-6.181 6.742,-6.37 6.974,-6.483C6.872,-6.492 6.667,-6.543 6.68,-6.571C6.989,-6.748 6.413,-6.81 6.411,-7.016C6.703,-7.015 6.998,-6.739 6.858,-7C7.072,-7.041 7.306,-6.848 7.423,-6.751C7.169,-7.041 7.753,-6.971 7.849,-7.04L7.948,-6.902C7.889,-6.985 7.908,-7.026 7.926,-7.068L7.576,-7.151C7.653,-7.178 7.672,-7.22 7.809,-7.164C7.613,-7.303 7.243,-7.344 6.987,-7.564C7.182,-7.564 6.888,-7.84 7.336,-7.688C7.104,-7.537 7.787,-7.537 7.787,-7.33C7.748,-7.386 7.767,-7.427 7.845,-7.454C7.897,-7.442 7.933,-7.411 7.953,-7.387C8.425,-7.433 7.493,-7.677 7.586,-7.881C7.823,-7.757 8.075,-7.744 8.036,-7.799C7.997,-7.717 7.606,-7.922 7.447,-8.074C7.694,-8.132 7.362,-8.277 7.412,-8.338L7.29,-8.293C7.053,-8.418 7.111,-8.473 7.069,-8.597C7.266,-8.529 7.169,-8.46 7.267,-8.46C6.872,-8.734 7.81,-8.518 7.573,-8.779C7.768,-8.781 8.042,-8.603 8.179,-8.619C7.92,-8.907 8.588,-8.664 8.389,-8.939C8.036,-9.018 8.114,-8.978 7.835,-9.224L7.96,-8.852L7.545,-9.221C7.508,-9.138 7.686,-8.96 7.609,-8.932C7.371,-9.123 7.45,-9.082 7.157,-9.149C7.703,-9.071 6.955,-9.491 7.345,-9.494L8.171,-9.172C8.619,-9.233 7.884,-9.696 8.191,-9.881L8.016,-9.85C7.7,-10.011 8.031,-10.031 7.93,-10.167C8.204,-10.055 8.325,-10.071 8.511,-10.043C8.304,-10.115 8.603,-10.23 8.058,-10.46L8.468,-10.443C8.698,-10.602 7.768,-10.978 7.936,-11.149C8.216,-10.977 8.447,-11 8.613,-10.782C8.641,-10.85 8.714,-10.894 8.521,-10.965C8.71,-10.943 8.215,-11.293 8.502,-11.261C8.39,-11.334 8.102,-11.448 8.152,-11.517C8.211,-11.506 8.29,-11.468 8.29,-11.468C8.152,-11.517 8.146,-11.656 7.812,-11.698C8.758,-11.603 7.962,-12.308 8.772,-12.238C8.729,-12.423 8.7,-12.637 8.725,-12.782C8.806,-12.745 8.865,-12.735 8.827,-12.719C9.152,-12.824 8.059,-13.102 8.422,-13.222C8.914,-13.184 8.63,-13.026 8.825,-13.039C9.762,-12.769 8.785,-13.343 9.375,-13.316L9.418,-13.263C9.771,-13.277 9.151,-13.652 9.273,-13.816C9.273,-13.816 9.353,-13.782 9.414,-13.772C8.977,-14.045 8.891,-14.328 8.811,-14.543C9.161,-14.382 8.98,-14.406 9.363,-14.331C9.334,-14.426 8.759,-14.483 8.702,-14.671C8.917,-14.663 9.127,-14.727 9.529,-14.63L9.505,-14.473C10.042,-14.403 9.548,-14.673 9.658,-14.728L9.88,-14.655C9.87,-14.912 9.302,-15.071 9.409,-15.31L9.231,-15.329C8.703,-15.614 9.579,-15.36 9.194,-15.606L9.779,-15.499C9.664,-15.628 9.309,-15.954 9.241,-16.145C9.645,-15.946 9.812,-15.704 10.033,-15.52C10.061,-15.61 10.072,-15.84 9.801,-15.955C9.847,-15.906 9.975,-15.825 9.877,-15.811C9.457,-16.028 9.267,-16.245 9.315,-16.434C10.449,-16.207 9.68,-16.926 10.564,-17.046C10.152,-17.472 10.744,-17.91 10.576,-18.435C9.727,-18.098 10.527,-18.576 9.631,-18.36C9.551,-18.448 9.556,-18.488 9.612,-18.511C9.765,-18.654 9.918,-18.808 10.056,-18.969C10.287,-19.126 10.283,-18.922 10.478,-18.987C10.465,-19.263 10.817,-19.205 10.991,-19.461C10.688,-19.322 10.521,-19.405 10.579,-19.593C10.476,-19.474 10.367,-19.359 10.253,-19.247C9.677,-19.407 10.864,-19.83 10.259,-19.999L10.575,-20.008C10.345,-20.12 10.229,-20.704 9.503,-20.464C9.575,-20.546 9.76,-20.721 9.864,-20.685C9.683,-21.176 8.65,-21.011 8.751,-21.551L8.934,-21.684C8.826,-21.702 8.534,-21.484 8.614,-21.718C8.681,-21.783 8.792,-21.858 8.771,-21.895C8.682,-21.871 8.347,-21.758 8.346,-21.922L8.583,-22.054C8.383,-22.598 7.72,-21.946 7.413,-21.981C7.803,-22.514 7.72,-22.839 7.678,-23.001L7.736,-23.075C7.474,-23.368 6.89,-23.004 6.457,-22.995C6.691,-23.709 6.024,-23.662 5.963,-24.19C5.94,-24.061 5.666,-23.771 5.577,-23.751C5.585,-23.908 5.133,-23.5 5.484,-23.994L5.501,-23.968C5.785,-24.494 5.556,-24.459 5.455,-24.545L4.994,-23.9C5.349,-25.048 4.013,-24.046 4.426,-25.011C4.248,-24.89 4.163,-24.948 3.985,-24.827L4.221,-25.18C4.087,-25.396 4.019,-25.504 3.724,-25.574L3.938,-25.798C3.816,-25.909 3.105,-24.878 2.969,-24.936L3.272,-25.495C3.031,-25.635 3.085,-26.258 2.545,-25.918C2.598,-25.994 2.703,-26.145 2.754,-26.143C2.652,-26.227 2.546,-26.78 2.13,-26.014C2.426,-26.499 1.911,-26.212 1.652,-26.077L1.89,-26.421C1.503,-26.032 1.424,-25.909 1.196,-25.873C1.188,-25.942 1.337,-26.179 1.33,-26.058C1.323,-26.319 1.032,-25.776 1.002,-26.055L1.193,-26.251C1.086,-26.353 1.022,-26.224 0.795,-25.998C0.633,-25.902 0.616,-26.229 0.789,-26.565C0.654,-26.376 0.43,-26.15 0.412,-26.287C0.474,-26.416 0.545,-26.476 0.581,-26.506C0.515,-26.873 0.026,-26.266 0.088,-26.705C0.155,-26.827 0.18,-26.892 0.189,-26.935C0.351,-26.829 0.473,-26.732 0.445,-26.713C0.64,-27.045 0.538,-27.183 0.914,-27.58C0.657,-27.393 0.157,-26.954 0.116,-27.187C0.128,-27.223 0.14,-27.259 0.165,-27.313L0.2,-27.343C0.188,-27.393 0.143,-27.378 0.085,-27.337C0.075,-27.416 0.071,-27.473 0.033,-27.501C0.175,-27.787 -0.041,-27.738 -0.102,-27.79C-0.303,-27.419 -0.359,-27.528 -0.445,-27.178C-0.441,-27.21 -0.408,-27.215 -0.354,-27.205C-0.337,-27.21 -0.322,-27.209 -0.303,-27.226L-0.326,-27.197C-0.275,-27.183 -0.212,-27.16 -0.143,-27.127C-0.302,-26.972 -0.447,-26.845 -0.407,-27.091C-0.577,-26.876 -0.751,-26.655 -0.834,-26.55C-0.639,-27.113 -0.665,-27.491 -0.515,-27.823C-0.839,-27.73 -1.083,-27.962 -1.591,-27.33C-1.698,-27.271 -1.553,-27.566 -1.517,-27.688C-1.445,-27.74 -1.409,-27.708 -1.337,-27.799C-1.553,-27.682 -1.732,-27.915 -2.016,-27.439C-2.051,-27.739 -1.696,-27.847 -1.945,-27.874L-1.84,-28.01C-1.857,-29.02 -3.138,-27.085 -3.102,-28.326C-3.099,-28.247 -3.097,-28.21 -3.129,-28.123C-3.461,-28.834 -4.398,-28.192 -4.676,-29.133C-4.784,-29.343 -4.922,-29.017 -5.104,-28.798L-4.993,-29.239L-5.324,-28.804C-5.663,-28.501 -5.457,-29.995 -5.97,-29.385L-5.997,-29.077C-6.095,-29.171 -6.411,-28.966 -6.331,-29.312C-6.354,-29.26 -6.42,-29.005 -6.444,-29.17L-6.415,-29.405C-6.54,-29.287 -6.657,-29.167 -6.764,-29.046C-7.021,-29.224 -6.63,-29.995 -7.142,-30.028C-7.358,-29.927 -7.566,-29.305 -7.463,-29.157C-7.4,-29.151 -7.29,-29.023 -7.257,-28.787L-7.349,-28.659C-7.268,-27.968 -7.082,-27.278 -6.989,-26.776C-6.999,-26.915 -6.996,-27.058 -6.98,-27.202L-6.968,-26.866L-6.986,-26.841C-6.963,-26.521 -6.981,-26.807 -6.957,-27.004C-6.956,-26.824 -6.976,-26.706 -6.96,-26.634C-6.915,-26.849 -6.86,-27.065 -6.796,-27.279C-6.816,-27.005 -6.898,-26.748 -6.854,-26.587C-6.768,-26.886 -6.831,-27.203 -6.715,-27.391C-6.7,-27.067 -6.764,-26.815 -6.656,-27.073C-6.679,-26.895 -6.712,-26.784 -6.746,-26.708C-6.658,-26.911 -6.606,-26.788 -6.483,-27.135C-6.506,-26.734 -6.226,-27.167 -6.401,-26.53C-6.342,-26.678 -6.149,-26.998 -6.076,-27.007C-6.414,-26.279 -5.86,-26.902 -6.148,-26.095C-5.837,-26.738 -5.738,-26.28 -5.444,-26.594C-5.473,-26.544 -5.531,-26.443 -5.532,-26.482C-5.464,-26.394 -5.517,-26.185 -5.512,-26.041C-5.287,-26.587 -5.094,-26.65 -4.877,-26.951C-4.981,-26.379 -5.208,-26.343 -5.379,-25.824C-5.205,-26.267 -5.007,-26.181 -4.891,-26.562C-4.941,-26.203 -4.883,-26.374 -5.031,-25.907C-4.726,-26.576 -4.904,-25.988 -4.653,-26.371C-4.675,-25.987 -4.9,-25.728 -4.675,-25.875C-4.706,-25.643 -4.929,-25.456 -4.929,-25.456" style="fill:rgb(255,76,148);fill-rule:nonzero;"/>
                    </g>
                </g>
                <g transform="matrix(0.908861,0,0,1.355556,54.526582,-108.955556)">
                    <path d="M11.083,91.417C10.806,91.972 10.417,92.562 9.917,93.187C9.417,93.812 8.84,94.424 8.188,95.021C7.535,95.618 6.84,96.174 6.104,96.687C5.368,97.201 4.639,97.625 3.917,97.958C3.694,98.069 3.431,98.132 3.125,98.146C2.819,98.16 2.569,98.097 2.375,97.958C1.986,97.653 1.799,97.25 1.813,96.75C1.826,96.25 2.056,95.861 2.5,95.583C3.306,95.194 4.118,94.722 4.938,94.167C5.757,93.611 6.479,93.035 7.104,92.437C7.729,91.84 8.229,91.243 8.604,90.646C8.979,90.049 9.139,89.5 9.083,89C9,88.472 8.778,88.056 8.417,87.75C8.056,87.444 7.604,87.25 7.063,87.167C6.521,87.083 5.903,87.09 5.208,87.187C4.514,87.285 3.819,87.458 3.125,87.708C2.903,87.764 2.694,87.785 2.5,87.771C2.306,87.757 2.139,87.667 2,87.5C1.778,87.194 1.618,86.861 1.521,86.5C1.424,86.139 1.5,85.833 1.75,85.583C2.222,85.278 2.736,84.944 3.292,84.583C3.847,84.222 4.361,83.833 4.833,83.417C5.306,83 5.688,82.549 5.979,82.062C6.271,81.576 6.375,81.056 6.292,80.5C6.264,80.278 6.132,80.097 5.896,79.958C5.66,79.819 5.375,79.715 5.042,79.646C4.708,79.576 4.361,79.562 4,79.604C3.639,79.646 3.306,79.722 3,79.833C2.833,79.972 2.653,80.069 2.458,80.125C2.264,80.181 2.069,80.208 1.875,80.208C1.681,80.208 1.514,80.174 1.375,80.104C1.236,80.035 1.139,79.944 1.083,79.833C1,79.694 0.951,79.493 0.938,79.229C0.924,78.965 0.986,78.75 1.125,78.583C1.431,78.139 2.014,77.785 2.875,77.521C3.736,77.257 4.764,77.194 5.958,77.333C6.903,77.5 7.611,77.889 8.083,78.5C8.556,79.111 8.792,79.833 8.792,80.667C8.792,81.306 8.632,81.993 8.313,82.729C7.993,83.465 7.514,84.167 6.875,84.833C7.653,84.75 8.347,84.847 8.958,85.125C9.569,85.403 10.069,85.792 10.458,86.292C11.014,86.986 11.361,87.806 11.5,88.75C11.639,89.694 11.5,90.583 11.083,91.417Z" style="fill:rgb(228,228,228);fill-rule:nonzero;"/>
                    <path d="M17.458,97.125C17.597,98.125 17.181,98.694 16.208,98.833C15.708,98.889 15.299,98.75 14.979,98.417C14.66,98.083 14.458,97.681 14.375,97.208C14.292,96.708 14.326,96.222 14.479,95.75C14.632,95.278 14.931,95.014 15.375,94.958C15.931,94.875 16.403,95.076 16.792,95.562C17.181,96.049 17.403,96.569 17.458,97.125Z" style="fill:rgb(228,228,228);fill-rule:nonzero;"/>
                    <path d="M48.833,89C48.667,89.778 48.368,90.521 47.938,91.229C47.507,91.937 47.014,92.597 46.458,93.208C45.903,93.819 45.299,94.347 44.646,94.792C43.993,95.236 43.333,95.583 42.667,95.833C41.444,96.278 40.229,96.424 39.021,96.271C37.813,96.118 36.736,95.569 35.792,94.625C35.153,93.847 34.701,92.972 34.438,92C34.174,91.028 34.049,90.035 34.063,89.021C34.076,88.007 34.215,87.028 34.479,86.083C34.743,85.139 35.083,84.292 35.5,83.542C36,82.653 36.597,81.917 37.292,81.333C37.986,80.75 38.75,80.403 39.583,80.292C39.806,80.236 39.986,80.292 40.125,80.458C40.264,80.625 40.333,80.819 40.333,81.042C40.611,80.764 41.042,80.556 41.625,80.417C42.208,80.278 42.861,80.264 43.583,80.375C44.917,80.542 45.972,80.944 46.75,81.583C47.528,82.222 48.104,82.965 48.479,83.812C48.854,84.66 49.049,85.549 49.063,86.479C49.076,87.41 49,88.25 48.833,89ZM39.75,83.25C39.194,83.5 38.729,83.868 38.354,84.354C37.979,84.84 37.674,85.389 37.438,86C37.201,86.611 37.049,87.271 36.979,87.979C36.91,88.687 36.903,89.375 36.958,90.042C37.042,91.014 37.333,91.812 37.833,92.437C38.333,93.062 39.111,93.375 40.167,93.375C40.778,93.375 41.382,93.257 41.979,93.021C42.576,92.785 43.125,92.472 43.625,92.083C44.125,91.694 44.583,91.229 45,90.687C45.417,90.146 45.75,89.583 46,89C46.139,88.694 46.25,88.312 46.333,87.854C46.417,87.396 46.444,86.924 46.417,86.437C46.389,85.951 46.278,85.486 46.083,85.042C45.889,84.597 45.583,84.222 45.167,83.917C44.583,83.5 43.889,83.25 43.083,83.167C42.278,83.083 41.431,83.264 40.542,83.708C40.375,83.819 40.188,83.84 39.979,83.771C39.771,83.701 39.694,83.528 39.75,83.25Z" style="fill:rgb(228,228,228);fill-rule:nonzero;"/>
                    <path d="M64.917,83.417C64.417,83.694 63.896,83.986 63.354,84.292C62.813,84.597 62.271,84.951 61.729,85.354C61.188,85.757 60.674,86.229 60.188,86.771C59.701,87.312 59.264,87.958 58.875,88.708C58.319,89.764 57.944,90.84 57.75,91.937C57.556,93.035 57.431,94.111 57.375,95.167C57.375,95.667 57.257,96.174 57.021,96.687C56.785,97.201 56.458,97.458 56.042,97.458C55.514,97.458 55.09,97.187 54.771,96.646C54.451,96.104 54.236,95.583 54.125,95.083C53.653,93.111 53.264,91.16 52.958,89.229C52.653,87.299 52.389,85.375 52.167,83.458C52.167,83.069 52.285,82.819 52.521,82.708C52.757,82.597 53.028,82.556 53.333,82.583C53.667,82.611 53.986,82.694 54.292,82.833C54.597,82.972 54.778,83.194 54.833,83.5C54.944,84.528 55.083,85.604 55.25,86.729C55.417,87.854 55.583,88.819 55.75,89.625C55.861,88.681 56.167,87.764 56.667,86.875C57.167,85.986 57.785,85.181 58.521,84.458C59.257,83.736 60.09,83.125 61.021,82.625C61.951,82.125 62.903,81.792 63.875,81.625C64.292,81.569 64.639,81.569 64.917,81.625C65.194,81.681 65.389,81.778 65.5,81.917C65.611,82.056 65.632,82.278 65.563,82.583C65.493,82.889 65.278,83.167 64.917,83.417Z" style="fill:rgb(228,228,228);fill-rule:nonzero;"/>
                    <path d="M87.708,82.542C87.819,82.681 87.882,82.854 87.896,83.062C87.91,83.271 87.875,83.444 87.792,83.583C87.653,83.889 87.417,84 87.083,83.917C86.5,83.778 85.889,83.722 85.25,83.75C84.611,83.778 83.972,84.028 83.333,84.5C82.694,84.972 82.194,85.66 81.833,86.562C81.472,87.465 81.292,88.403 81.292,89.375C81.292,90.319 81.521,91.132 81.979,91.812C82.438,92.493 83.028,92.986 83.75,93.292C84.194,93.486 84.694,93.597 85.25,93.625C85.806,93.653 86.368,93.632 86.938,93.562C87.507,93.493 88.069,93.382 88.625,93.229C89.181,93.076 89.708,92.903 90.208,92.708C90.375,92.653 90.535,92.667 90.688,92.75C90.84,92.833 90.944,92.944 91,93.083C91.139,93.444 91.069,93.806 90.792,94.167C90.458,94.528 90.014,94.847 89.458,95.125C88.903,95.403 88.292,95.625 87.625,95.792C86.958,95.958 86.278,96.049 85.583,96.062C84.889,96.076 84.236,96 83.625,95.833C82.764,95.611 82.035,95.285 81.438,94.854C80.84,94.424 80.347,93.924 79.958,93.354C79.569,92.785 79.278,92.174 79.083,91.521C78.889,90.868 78.778,90.194 78.75,89.5C78.694,87.833 79.021,86.333 79.729,85C80.438,83.667 81.431,82.681 82.708,82.042C83.653,81.569 84.604,81.382 85.563,81.479C86.521,81.576 87.236,81.931 87.708,82.542Z" style="fill:rgb(228,228,228);fill-rule:nonzero;"/>
                    <path d="M96.333,79.333C96.333,80 96.326,80.75 96.313,81.583C96.299,82.417 96.299,83.278 96.313,84.167C96.326,85.056 96.34,85.972 96.354,86.917C96.368,87.861 96.389,88.764 96.417,89.625C96.694,89.069 97.028,88.521 97.417,87.979C97.806,87.437 98.243,86.958 98.729,86.542C99.215,86.125 99.729,85.792 100.271,85.542C100.813,85.292 101.403,85.167 102.042,85.167C102.736,85.167 103.354,85.389 103.896,85.833C104.438,86.278 104.91,86.868 105.313,87.604C105.715,88.34 106.056,89.16 106.333,90.062C106.611,90.965 106.84,91.882 107.021,92.812C107.201,93.743 107.333,94.632 107.417,95.479C107.5,96.326 107.569,97.056 107.625,97.667C107.625,98.111 107.514,98.472 107.292,98.75C107.069,99.028 106.806,99.167 106.5,99.167C106.278,99.167 106.007,99.021 105.688,98.729C105.368,98.437 105.139,98.083 105,97.667C104.917,97.333 104.833,96.847 104.75,96.208C104.667,95.569 104.569,94.882 104.458,94.146C104.347,93.41 104.208,92.667 104.042,91.917C103.875,91.167 103.674,90.493 103.438,89.896C103.201,89.299 102.917,88.833 102.583,88.5C102.25,88.167 101.861,88.042 101.417,88.125C100.722,88.264 100.118,88.75 99.604,89.583C99.09,90.417 98.646,91.361 98.271,92.417C97.896,93.472 97.59,94.542 97.354,95.625C97.118,96.708 96.944,97.583 96.833,98.25C96.722,98.75 96.576,99.09 96.396,99.271C96.215,99.451 96.014,99.542 95.792,99.542C95.569,99.542 95.368,99.431 95.188,99.208C95.007,98.986 94.84,98.715 94.688,98.396C94.535,98.076 94.403,97.743 94.292,97.396C94.181,97.049 94.111,96.75 94.083,96.5C93.944,95 93.833,93.562 93.75,92.187C93.667,90.812 93.604,89.431 93.563,88.042C93.521,86.653 93.5,85.229 93.5,83.771C93.5,82.312 93.528,80.75 93.583,79.083C93.583,77.694 94.083,77.069 95.083,77.208C95.417,77.264 95.708,77.507 95.958,77.937C96.208,78.368 96.333,78.833 96.333,79.333Z" style="fill:rgb(228,228,228);fill-rule:nonzero;"/>
                    <path d="M120.708,88C119.625,88.639 118.458,89.132 117.208,89.479C115.958,89.826 114.611,90 113.167,90C113.222,90.972 113.5,91.743 114,92.312C114.5,92.882 115.125,93.222 115.875,93.333C116.319,93.389 116.771,93.375 117.229,93.292C117.688,93.208 118.118,93.076 118.521,92.896C118.924,92.715 119.292,92.514 119.625,92.292C119.958,92.069 120.25,91.847 120.5,91.625C120.75,91.403 121.014,91.257 121.292,91.187C121.569,91.118 121.778,91.111 121.917,91.167C122.306,91.306 122.444,91.722 122.333,92.417C121.889,93.306 121.25,94.062 120.417,94.687C119.583,95.312 118.653,95.708 117.625,95.875C116.736,96.042 115.819,96 114.875,95.75C113.931,95.5 113.083,95.014 112.333,94.292C111.694,93.653 111.208,92.903 110.875,92.042C110.542,91.181 110.333,90.292 110.25,89.375C110.167,88.514 110.243,87.694 110.479,86.917C110.715,86.139 111.083,85.451 111.583,84.854C112.083,84.257 112.708,83.764 113.458,83.375C114.208,82.986 115.083,82.764 116.083,82.708C117.278,82.625 118.361,82.847 119.333,83.375C120.306,83.903 120.986,84.639 121.375,85.583C121.597,86.111 121.66,86.569 121.563,86.958C121.465,87.347 121.181,87.694 120.708,88ZM115.917,85.167C115.639,85.222 115.34,85.319 115.021,85.458C114.701,85.597 114.41,85.771 114.146,85.979C113.882,86.187 113.646,86.424 113.438,86.687C113.229,86.951 113.111,87.25 113.083,87.583C113.556,87.583 114.076,87.542 114.646,87.458C115.215,87.375 115.771,87.271 116.313,87.146C116.854,87.021 117.354,86.875 117.813,86.708C118.271,86.542 118.653,86.361 118.958,86.167C118.736,85.639 118.326,85.312 117.729,85.187C117.132,85.062 116.528,85.056 115.917,85.167Z" style="fill:rgb(228,228,228);fill-rule:nonzero;"/>
                    <path d="M134.833,87.083C134.639,87.194 134.403,87.229 134.125,87.187C133.847,87.146 133.611,86.972 133.417,86.667C132.972,86.083 132.431,85.792 131.792,85.792C131.208,85.792 130.688,85.924 130.229,86.187C129.771,86.451 129.368,86.799 129.021,87.229C128.674,87.66 128.389,88.139 128.167,88.667C127.944,89.194 127.792,89.722 127.708,90.25C127.569,91.222 127.736,92.042 128.208,92.708C128.681,93.375 129.417,93.708 130.417,93.708C131.222,93.736 132.132,93.576 133.146,93.229C134.16,92.882 135.111,92.431 136,91.875C136.389,91.708 136.75,91.611 137.083,91.583C137.417,91.556 137.694,91.722 137.917,92.083C138.194,92.528 138.125,92.979 137.708,93.437C137.292,93.896 136.736,94.306 136.042,94.667C135.347,95.056 134.618,95.396 133.854,95.687C133.09,95.979 132.319,96.187 131.542,96.312C130.764,96.437 129.993,96.444 129.229,96.333C128.465,96.222 127.75,95.958 127.083,95.542C126.028,94.819 125.389,93.792 125.167,92.458C124.944,91.125 125.042,89.75 125.458,88.333C125.625,87.806 125.861,87.271 126.167,86.729C126.472,86.187 126.84,85.694 127.271,85.25C127.701,84.806 128.181,84.424 128.708,84.104C129.236,83.785 129.819,83.569 130.458,83.458C131.486,83.292 132.472,83.396 133.417,83.771C134.361,84.146 134.986,84.833 135.292,85.833C135.347,86.056 135.347,86.285 135.292,86.521C135.236,86.757 135.083,86.944 134.833,87.083Z" style="fill:rgb(228,228,228);fill-rule:nonzero;"/>
                    <path d="M151.792,84.167C151.903,84.139 152.069,84.118 152.292,84.104C152.514,84.09 152.729,84.104 152.938,84.146C153.146,84.187 153.326,84.257 153.479,84.354C153.632,84.451 153.722,84.569 153.75,84.708C153.806,85.042 153.757,85.34 153.604,85.604C153.451,85.868 153.181,86.097 152.792,86.292C151.736,86.792 150.639,87.354 149.5,87.979C148.361,88.604 147.389,89.167 146.583,89.667C147.083,90 147.66,90.375 148.313,90.792C148.965,91.208 149.639,91.646 150.333,92.104C151.028,92.562 151.722,93.049 152.417,93.562C153.111,94.076 153.764,94.583 154.375,95.083C154.931,95.556 155.028,95.986 154.667,96.375C154.5,96.569 154.229,96.708 153.854,96.792C153.479,96.875 153.125,96.833 152.792,96.667C152.181,96.361 151.514,95.993 150.792,95.562C150.069,95.132 149.333,94.687 148.583,94.229C147.833,93.771 147.104,93.312 146.396,92.854C145.688,92.396 145.042,91.972 144.458,91.583C144.569,92.556 144.674,93.528 144.771,94.5C144.868,95.472 144.958,96.444 145.042,97.417C145.208,97.944 145.194,98.375 145,98.708C144.806,99.042 144.486,99.194 144.042,99.167C143.569,99.083 143.222,98.896 143,98.604C142.778,98.312 142.611,97.931 142.5,97.458C142.333,96.319 142.146,94.972 141.938,93.417C141.729,91.861 141.514,90.25 141.292,88.583C141.069,86.917 140.854,85.292 140.646,83.708C140.438,82.125 140.25,80.722 140.083,79.5C140.028,79.111 139.993,78.687 139.979,78.229C139.965,77.771 140.111,77.472 140.417,77.333C140.833,77.167 141.264,77.257 141.708,77.604C142.153,77.951 142.486,78.472 142.708,79.167C142.931,80.444 143.153,81.833 143.375,83.333C143.597,84.833 143.819,86.417 144.042,88.083C144.597,87.75 145.243,87.382 145.979,86.979C146.715,86.576 147.451,86.187 148.188,85.812C148.924,85.437 149.611,85.097 150.25,84.792C150.889,84.486 151.403,84.278 151.792,84.167Z" style="fill:rgb(228,228,228);fill-rule:nonzero;"/>
                    <path d="M178.375,86.625C178.903,86.597 179.431,86.722 179.958,87C180.486,87.278 180.75,87.708 180.75,88.292C180.694,88.764 180.438,89.062 179.979,89.187C179.521,89.312 179.153,89.375 178.875,89.375C178.319,89.375 177.722,89.389 177.083,89.417C176.444,89.444 175.792,89.486 175.125,89.542C175.069,90.458 175.021,91.319 174.979,92.125C174.938,92.931 174.903,93.646 174.875,94.271C174.847,94.896 174.833,95.403 174.833,95.792C174.833,96.181 174.847,96.389 174.875,96.417C175.486,96.306 176.146,96.118 176.854,95.854C177.563,95.59 178.271,95.299 178.979,94.979C179.688,94.66 180.382,94.326 181.063,93.979C181.743,93.632 182.389,93.306 183,93C183.278,92.861 183.535,92.819 183.771,92.875C184.007,92.931 184.153,93.056 184.208,93.25C184.264,93.556 184.222,93.931 184.083,94.375C183.944,94.819 183.694,95.222 183.333,95.583C182.917,95.917 182.368,96.299 181.688,96.729C181.007,97.16 180.278,97.569 179.5,97.958C178.722,98.347 177.938,98.687 177.146,98.979C176.354,99.271 175.653,99.444 175.042,99.5C174.125,99.583 173.431,99.333 172.958,98.75C172.486,98.167 172.222,97.431 172.167,96.542C172.111,95.653 172.104,94.625 172.146,93.458C172.188,92.292 172.236,91.056 172.292,89.75C171.764,89.806 171.257,89.854 170.771,89.896C170.285,89.937 169.819,89.986 169.375,90.042C169.014,90.042 168.618,89.958 168.188,89.792C167.757,89.625 167.542,89.306 167.542,88.833C167.542,88.667 167.611,88.444 167.75,88.167C167.889,87.889 168.194,87.681 168.667,87.542C169.806,87.347 171.069,87.181 172.458,87.042C172.542,85.736 172.639,84.472 172.75,83.25C172.861,82.028 172.958,80.917 173.042,79.917C173.069,79.583 173.167,79.292 173.333,79.042C173.5,78.792 173.681,78.667 173.875,78.667C174.347,78.639 174.799,78.757 175.229,79.021C175.66,79.285 175.875,79.583 175.875,79.917C175.764,80.861 175.66,81.931 175.563,83.125C175.465,84.319 175.375,85.542 175.292,86.792C175.847,86.736 176.382,86.701 176.896,86.687C177.41,86.674 177.903,86.653 178.375,86.625Z" style="fill:rgb(228,228,228);fill-rule:nonzero;"/>
                    <path d="M188.833,79.333C188.833,80 188.826,80.75 188.813,81.583C188.799,82.417 188.799,83.278 188.813,84.167C188.826,85.056 188.84,85.972 188.854,86.917C188.868,87.861 188.889,88.764 188.917,89.625C189.194,89.069 189.528,88.521 189.917,87.979C190.306,87.437 190.743,86.958 191.229,86.542C191.715,86.125 192.229,85.792 192.771,85.542C193.313,85.292 193.903,85.167 194.542,85.167C195.236,85.167 195.854,85.389 196.396,85.833C196.938,86.278 197.41,86.868 197.813,87.604C198.215,88.34 198.556,89.16 198.833,90.062C199.111,90.965 199.34,91.882 199.521,92.812C199.701,93.743 199.833,94.632 199.917,95.479C200,96.326 200.069,97.056 200.125,97.667C200.125,98.111 200.014,98.472 199.792,98.75C199.569,99.028 199.306,99.167 199,99.167C198.778,99.167 198.507,99.021 198.188,98.729C197.868,98.437 197.639,98.083 197.5,97.667C197.417,97.333 197.333,96.847 197.25,96.208C197.167,95.569 197.069,94.882 196.958,94.146C196.847,93.41 196.708,92.667 196.542,91.917C196.375,91.167 196.174,90.493 195.938,89.896C195.701,89.299 195.417,88.833 195.083,88.5C194.75,88.167 194.361,88.042 193.917,88.125C193.222,88.264 192.618,88.75 192.104,89.583C191.59,90.417 191.146,91.361 190.771,92.417C190.396,93.472 190.09,94.542 189.854,95.625C189.618,96.708 189.444,97.583 189.333,98.25C189.222,98.75 189.076,99.09 188.896,99.271C188.715,99.451 188.514,99.542 188.292,99.542C188.069,99.542 187.868,99.431 187.688,99.208C187.507,98.986 187.34,98.715 187.188,98.396C187.035,98.076 186.903,97.743 186.792,97.396C186.681,97.049 186.611,96.75 186.583,96.5C186.444,95 186.333,93.562 186.25,92.187C186.167,90.812 186.104,89.431 186.063,88.042C186.021,86.653 186,85.229 186,83.771C186,82.312 186.028,80.75 186.083,79.083C186.083,77.694 186.583,77.069 187.583,77.208C187.917,77.264 188.208,77.507 188.458,77.937C188.708,78.368 188.833,78.833 188.833,79.333Z" style="fill:rgb(228,228,228);fill-rule:nonzero;"/>
                    <path d="M213.208,88C212.125,88.639 210.958,89.132 209.708,89.479C208.458,89.826 207.111,90 205.667,90C205.722,90.972 206,91.743 206.5,92.312C207,92.882 207.625,93.222 208.375,93.333C208.819,93.389 209.271,93.375 209.729,93.292C210.188,93.208 210.618,93.076 211.021,92.896C211.424,92.715 211.792,92.514 212.125,92.292C212.458,92.069 212.75,91.847 213,91.625C213.25,91.403 213.514,91.257 213.792,91.187C214.069,91.118 214.278,91.111 214.417,91.167C214.806,91.306 214.944,91.722 214.833,92.417C214.389,93.306 213.75,94.062 212.917,94.687C212.083,95.312 211.153,95.708 210.125,95.875C209.236,96.042 208.319,96 207.375,95.75C206.431,95.5 205.583,95.014 204.833,94.292C204.194,93.653 203.708,92.903 203.375,92.042C203.042,91.181 202.833,90.292 202.75,89.375C202.667,88.514 202.743,87.694 202.979,86.917C203.215,86.139 203.583,85.451 204.083,84.854C204.583,84.257 205.208,83.764 205.958,83.375C206.708,82.986 207.583,82.764 208.583,82.708C209.778,82.625 210.861,82.847 211.833,83.375C212.806,83.903 213.486,84.639 213.875,85.583C214.097,86.111 214.16,86.569 214.063,86.958C213.965,87.347 213.681,87.694 213.208,88ZM208.417,85.167C208.139,85.222 207.84,85.319 207.521,85.458C207.201,85.597 206.91,85.771 206.646,85.979C206.382,86.187 206.146,86.424 205.938,86.687C205.729,86.951 205.611,87.25 205.583,87.583C206.056,87.583 206.576,87.542 207.146,87.458C207.715,87.375 208.271,87.271 208.813,87.146C209.354,87.021 209.854,86.875 210.313,86.708C210.771,86.542 211.153,86.361 211.458,86.167C211.236,85.639 210.826,85.312 210.229,85.187C209.632,85.062 209.028,85.056 208.417,85.167Z" style="fill:rgb(228,228,228);fill-rule:nonzero;"/>
                    <path d="M239.5,88C238.417,88.639 237.25,89.132 236,89.479C234.75,89.826 233.403,90 231.958,90C232.014,90.972 232.292,91.743 232.792,92.312C233.292,92.882 233.917,93.222 234.667,93.333C235.111,93.389 235.563,93.375 236.021,93.292C236.479,93.208 236.91,93.076 237.313,92.896C237.715,92.715 238.083,92.514 238.417,92.292C238.75,92.069 239.042,91.847 239.292,91.625C239.542,91.403 239.806,91.257 240.083,91.187C240.361,91.118 240.569,91.111 240.708,91.167C241.097,91.306 241.236,91.722 241.125,92.417C240.681,93.306 240.042,94.062 239.208,94.687C238.375,95.312 237.444,95.708 236.417,95.875C235.528,96.042 234.611,96 233.667,95.75C232.722,95.5 231.875,95.014 231.125,94.292C230.486,93.653 230,92.903 229.667,92.042C229.333,91.181 229.125,90.292 229.042,89.375C228.958,88.514 229.035,87.694 229.271,86.917C229.507,86.139 229.875,85.451 230.375,84.854C230.875,84.257 231.5,83.764 232.25,83.375C233,82.986 233.875,82.764 234.875,82.708C236.069,82.625 237.153,82.847 238.125,83.375C239.097,83.903 239.778,84.639 240.167,85.583C240.389,86.111 240.451,86.569 240.354,86.958C240.257,87.347 239.972,87.694 239.5,88ZM234.708,85.167C234.431,85.222 234.132,85.319 233.813,85.458C233.493,85.597 233.201,85.771 232.938,85.979C232.674,86.187 232.438,86.424 232.229,86.687C232.021,86.951 231.903,87.25 231.875,87.583C232.347,87.583 232.868,87.542 233.438,87.458C234.007,87.375 234.563,87.271 235.104,87.146C235.646,87.021 236.146,86.875 236.604,86.708C237.063,86.542 237.444,86.361 237.75,86.167C237.528,85.639 237.118,85.312 236.521,85.187C235.924,85.062 235.319,85.056 234.708,85.167Z" style="fill:rgb(228,228,228);fill-rule:nonzero;"/>
                    <path d="M258.083,82.667C257.639,83.417 257.194,84.153 256.75,84.875C256.306,85.597 255.826,86.424 255.313,87.354C254.799,88.285 254.208,89.361 253.542,90.583C252.875,91.806 252.097,93.292 251.208,95.042C250.986,95.458 250.764,95.792 250.542,96.042C250.319,96.292 250.056,96.417 249.75,96.417C249.333,96.417 249.007,96.299 248.771,96.062C248.535,95.826 248.333,95.569 248.167,95.292C247.25,93.764 246.347,92.069 245.458,90.208C244.569,88.347 243.847,86.528 243.292,84.75C243.236,84.611 243.243,84.451 243.313,84.271C243.382,84.09 243.486,83.972 243.625,83.917C243.903,83.778 244.264,83.764 244.708,83.875C245.042,84.014 245.375,84.264 245.708,84.625C246.042,84.986 246.306,85.361 246.5,85.75C246.667,86.139 246.861,86.583 247.083,87.083C247.306,87.583 247.549,88.118 247.813,88.687C248.076,89.257 248.347,89.819 248.625,90.375C248.903,90.931 249.181,91.431 249.458,91.875C249.931,91.042 250.438,90.146 250.979,89.187C251.521,88.229 252.069,87.257 252.625,86.271C253.181,85.285 253.743,84.333 254.313,83.417C254.882,82.5 255.444,81.681 256,80.958C256.139,80.764 256.333,80.653 256.583,80.625C256.833,80.597 257.111,80.694 257.417,80.917C258.111,81.444 258.333,82.028 258.083,82.667Z" style="fill:rgb(228,228,228);fill-rule:nonzero;"/>
                    <path d="M270.958,88C269.875,88.639 268.708,89.132 267.458,89.479C266.208,89.826 264.861,90 263.417,90C263.472,90.972 263.75,91.743 264.25,92.312C264.75,92.882 265.375,93.222 266.125,93.333C266.569,93.389 267.021,93.375 267.479,93.292C267.938,93.208 268.368,93.076 268.771,92.896C269.174,92.715 269.542,92.514 269.875,92.292C270.208,92.069 270.5,91.847 270.75,91.625C271,91.403 271.264,91.257 271.542,91.187C271.819,91.118 272.028,91.111 272.167,91.167C272.556,91.306 272.694,91.722 272.583,92.417C272.139,93.306 271.5,94.062 270.667,94.687C269.833,95.312 268.903,95.708 267.875,95.875C266.986,96.042 266.069,96 265.125,95.75C264.181,95.5 263.333,95.014 262.583,94.292C261.944,93.653 261.458,92.903 261.125,92.042C260.792,91.181 260.583,90.292 260.5,89.375C260.417,88.514 260.493,87.694 260.729,86.917C260.965,86.139 261.333,85.451 261.833,84.854C262.333,84.257 262.958,83.764 263.708,83.375C264.458,82.986 265.333,82.764 266.333,82.708C267.528,82.625 268.611,82.847 269.583,83.375C270.556,83.903 271.236,84.639 271.625,85.583C271.847,86.111 271.91,86.569 271.813,86.958C271.715,87.347 271.431,87.694 270.958,88ZM266.167,85.167C265.889,85.222 265.59,85.319 265.271,85.458C264.951,85.597 264.66,85.771 264.396,85.979C264.132,86.187 263.896,86.424 263.688,86.687C263.479,86.951 263.361,87.25 263.333,87.583C263.806,87.583 264.326,87.542 264.896,87.458C265.465,87.375 266.021,87.271 266.563,87.146C267.104,87.021 267.604,86.875 268.063,86.708C268.521,86.542 268.903,86.361 269.208,86.167C268.986,85.639 268.576,85.312 267.979,85.187C267.382,85.062 266.778,85.056 266.167,85.167Z" style="fill:rgb(228,228,228);fill-rule:nonzero;"/>
                    <path d="M278.167,84.042C278.25,84.458 278.34,84.924 278.438,85.437C278.535,85.951 278.639,86.479 278.75,87.021C278.861,87.562 278.958,88.111 279.042,88.667C279.125,89.222 279.194,89.75 279.25,90.25C279.583,89.528 279.944,88.764 280.333,87.958C280.722,87.153 281.146,86.41 281.604,85.729C282.063,85.049 282.549,84.486 283.063,84.042C283.576,83.597 284.139,83.375 284.75,83.375C285.667,83.375 286.438,83.708 287.063,84.375C287.688,85.042 288.215,85.868 288.646,86.854C289.076,87.84 289.417,88.875 289.667,89.958C289.917,91.042 290.125,92 290.292,92.833C290.458,93.583 290.125,94.139 289.292,94.5C288.903,94.694 288.611,94.722 288.417,94.583C288.222,94.444 288.111,94.306 288.083,94.167C287.944,93.833 287.771,93.25 287.563,92.417C287.354,91.583 287.118,90.736 286.854,89.875C286.59,89.014 286.292,88.264 285.958,87.625C285.625,86.986 285.25,86.694 284.833,86.75C284.333,86.778 283.889,87.153 283.5,87.875C283.167,88.458 282.826,89.104 282.479,89.812C282.132,90.521 281.792,91.243 281.458,91.979C281.125,92.715 280.799,93.451 280.479,94.187C280.16,94.924 279.861,95.597 279.583,96.208C279.389,96.403 279.146,96.535 278.854,96.604C278.563,96.674 278.264,96.653 277.958,96.542C277.681,96.458 277.458,96.319 277.292,96.125C277.125,95.931 277.042,95.736 277.042,95.542C276.792,93.375 276.535,91.403 276.271,89.625C276.007,87.847 275.667,86.028 275.25,84.167C275.056,83.528 275.021,83.021 275.146,82.646C275.271,82.271 275.681,82.125 276.375,82.208C277.347,82.375 277.944,82.986 278.167,84.042Z" style="fill:rgb(228,228,228);fill-rule:nonzero;"/>
                    <path d="M302.625,86.625C303.153,86.597 303.681,86.722 304.208,87C304.736,87.278 305,87.708 305,88.292C304.944,88.764 304.688,89.062 304.229,89.187C303.771,89.312 303.403,89.375 303.125,89.375C302.569,89.375 301.972,89.389 301.333,89.417C300.694,89.444 300.042,89.486 299.375,89.542C299.319,90.458 299.271,91.319 299.229,92.125C299.188,92.931 299.153,93.646 299.125,94.271C299.097,94.896 299.083,95.403 299.083,95.792C299.083,96.181 299.097,96.389 299.125,96.417C299.736,96.306 300.396,96.118 301.104,95.854C301.813,95.59 302.521,95.299 303.229,94.979C303.938,94.66 304.632,94.326 305.313,93.979C305.993,93.632 306.639,93.306 307.25,93C307.528,92.861 307.785,92.819 308.021,92.875C308.257,92.931 308.403,93.056 308.458,93.25C308.514,93.556 308.472,93.931 308.333,94.375C308.194,94.819 307.944,95.222 307.583,95.583C307.167,95.917 306.618,96.299 305.938,96.729C305.257,97.16 304.528,97.569 303.75,97.958C302.972,98.347 302.188,98.687 301.396,98.979C300.604,99.271 299.903,99.444 299.292,99.5C298.375,99.583 297.681,99.333 297.208,98.75C296.736,98.167 296.472,97.431 296.417,96.542C296.361,95.653 296.354,94.625 296.396,93.458C296.438,92.292 296.486,91.056 296.542,89.75C296.014,89.806 295.507,89.854 295.021,89.896C294.535,89.937 294.069,89.986 293.625,90.042C293.264,90.042 292.868,89.958 292.438,89.792C292.007,89.625 291.792,89.306 291.792,88.833C291.792,88.667 291.861,88.444 292,88.167C292.139,87.889 292.444,87.681 292.917,87.542C294.056,87.347 295.319,87.181 296.708,87.042C296.792,85.736 296.889,84.472 297,83.25C297.111,82.028 297.208,80.917 297.292,79.917C297.319,79.583 297.417,79.292 297.583,79.042C297.75,78.792 297.931,78.667 298.125,78.667C298.597,78.639 299.049,78.757 299.479,79.021C299.91,79.285 300.125,79.583 300.125,79.917C300.014,80.861 299.91,81.931 299.813,83.125C299.715,84.319 299.625,85.542 299.542,86.792C300.097,86.736 300.632,86.701 301.146,86.687C301.66,86.674 302.153,86.653 302.625,86.625Z" style="fill:rgb(228,228,228);fill-rule:nonzero;"/>
                </g>
            </g>
        </g>
    </g>
</svg>
