<?xml version="1.0" encoding="UTF-8" standalone="no"?>
<!DOCTYPE svg PUBLIC "-//W3C//DTD SVG 1.1//EN" "http://www.w3.org/Graphics/SVG/1.1/DTD/svg11.dtd">
<svg width="100%" height="100%" viewBox="0 0 1580 253" version="1.1" xmlns="http://www.w3.org/2000/svg" xmlns:xlink="http://www.w3.org/1999/xlink" xml:space="preserve" xmlns:serif="http://www.serif.com/" style="fill-rule:evenodd;clip-rule:evenodd;stroke-linejoin:round;stroke-miterlimit:2;">
    <g transform="matrix(1,0,0,1,0,-327.279528)">
        <g id="ArtBoard1" transform="matrix(0.935465,0,0,0.748521,-391.959739,-374.084378)">
            <rect x="419" y="937" width="1689" height="338" style="fill:none;"/>
            <clipPath id="_clip1">
                <rect x="419" y="937" width="1689" height="338"/>
            </clipPath>
            <g clip-path="url(#_clip1)">
                <g transform="matrix(1.068987,0,-0.276732,1.335968,234.089739,-8.865613)">
                    <g transform="matrix(1.01,0,0,1,-3.96,0)">
                        <g transform="matrix(266.666667,0,0,266.666667,396,902.2)">
                            <path d="M0.059,-0L0.059,-0.712L0.199,-0.712L0.259,-0.562L0.259,-0L0.059,-0ZM0.549,-0L0.136,-0.519L0.199,-0.712L0.612,-0.193L0.549,-0ZM0.549,-0L0.499,-0.158L0.499,-0.712L0.699,-0.712L0.699,-0L0.549,-0Z" style="fill:rgb(246,246,246);fill-rule:nonzero;"/>
                        </g>
                        <g transform="matrix(266.666667,0,0,266.666667,586.666667,902.2)">
                            <path d="M0.303,0.012C0.246,0.012 0.195,0.001 0.152,-0.021C0.109,-0.042 0.075,-0.072 0.051,-0.112C0.026,-0.15 0.014,-0.195 0.014,-0.246C0.014,-0.296 0.026,-0.34 0.05,-0.379C0.073,-0.418 0.106,-0.448 0.147,-0.471C0.188,-0.493 0.235,-0.504 0.287,-0.504C0.338,-0.504 0.384,-0.494 0.423,-0.473C0.462,-0.452 0.493,-0.422 0.515,-0.385C0.538,-0.348 0.549,-0.305 0.549,-0.257C0.549,-0.247 0.549,-0.237 0.547,-0.226C0.546,-0.214 0.544,-0.202 0.541,-0.187L0.097,-0.184L0.097,-0.304L0.468,-0.307L0.377,-0.254C0.377,-0.281 0.374,-0.302 0.367,-0.32C0.361,-0.337 0.352,-0.349 0.339,-0.358C0.326,-0.367 0.31,-0.371 0.291,-0.371C0.271,-0.371 0.254,-0.366 0.239,-0.356C0.224,-0.346 0.213,-0.332 0.206,-0.313C0.198,-0.294 0.194,-0.272 0.194,-0.245C0.194,-0.218 0.198,-0.195 0.207,-0.176C0.215,-0.158 0.227,-0.144 0.243,-0.135C0.259,-0.126 0.279,-0.121 0.303,-0.121C0.326,-0.121 0.347,-0.125 0.364,-0.133C0.382,-0.14 0.398,-0.152 0.413,-0.169L0.511,-0.072C0.486,-0.044 0.457,-0.023 0.422,-0.009C0.387,0.005 0.348,0.012 0.303,0.012Z" style="fill:rgb(246,246,246);fill-rule:nonzero;"/>
                        </g>
                        <g transform="matrix(266.666667,0,0,266.666667,721.631683,902.2)">
                            <path d="M0.344,-0L0.249,-0.174L0.203,-0.199L0.007,-0.492L0.231,-0.492L0.327,-0.316L0.372,-0.293L0.566,-0L0.344,-0ZM-0.003,-0L0.201,-0.296L0.311,-0.179L0.203,-0L-0.003,-0ZM0.36,-0.199L0.25,-0.316L0.35,-0.492L0.556,-0.492L0.36,-0.199Z" style="fill:rgb(246,246,246);fill-rule:nonzero;"/>
                        </g>
                        <g transform="matrix(266.666667,0,0,266.666667,858.450165,902.2)">
                            <path d="M0.112,-0L0.112,-0.694L0.308,-0.694L0.308,-0L0.112,-0ZM0.007,-0.332L0.007,-0.492L0.413,-0.492L0.413,-0.332L0.007,-0.332Z" style="fill:rgb(246,246,246);fill-rule:nonzero;"/>
                        </g>
                        <g transform="matrix(266.666667,0,0,266.666667,958.983498,902.2)">
                            <path d="M0.358,0.012C0.295,0.012 0.241,-0.001 0.194,-0.026C0.147,-0.052 0.111,-0.088 0.085,-0.133C0.059,-0.178 0.046,-0.23 0.046,-0.289L0.046,-0.712L0.246,-0.712L0.246,-0.271C0.246,-0.248 0.251,-0.229 0.261,-0.213C0.271,-0.197 0.285,-0.185 0.301,-0.176C0.319,-0.168 0.337,-0.164 0.358,-0.164C0.379,-0.164 0.398,-0.168 0.415,-0.176C0.431,-0.185 0.444,-0.197 0.453,-0.212C0.462,-0.228 0.467,-0.247 0.467,-0.27L0.467,-0.712L0.668,-0.712L0.668,-0.288C0.668,-0.229 0.655,-0.177 0.63,-0.133C0.604,-0.088 0.568,-0.052 0.521,-0.026C0.475,-0.001 0.421,0.012 0.358,0.012Z" style="fill:rgb(246,246,246);fill-rule:nonzero;"/>
                        </g>
                        <g transform="matrix(266.666667,0,0,266.666667,1137.916832,902.2)">
                            <path d="M0.35,0.01C0.321,0.01 0.293,0.005 0.267,-0.005C0.241,-0.014 0.219,-0.028 0.201,-0.045C0.183,-0.062 0.171,-0.082 0.166,-0.105L0.166,-0.377C0.171,-0.4 0.183,-0.421 0.201,-0.44C0.219,-0.459 0.241,-0.474 0.267,-0.485C0.293,-0.496 0.321,-0.502 0.35,-0.502C0.399,-0.502 0.441,-0.491 0.478,-0.47C0.514,-0.448 0.542,-0.418 0.562,-0.379C0.583,-0.34 0.593,-0.296 0.593,-0.246C0.593,-0.196 0.583,-0.152 0.562,-0.114C0.542,-0.075 0.514,-0.045 0.478,-0.023C0.441,-0.001 0.399,0.01 0.35,0.01ZM0.047,0.21L0.047,-0.492L0.243,-0.492L0.243,-0.371L0.211,-0.252L0.238,-0.132L0.238,0.21L0.047,0.21ZM0.313,-0.162C0.329,-0.162 0.344,-0.166 0.356,-0.173C0.369,-0.18 0.379,-0.19 0.386,-0.203C0.393,-0.216 0.396,-0.23 0.396,-0.246C0.396,-0.263 0.393,-0.277 0.386,-0.289C0.379,-0.302 0.369,-0.312 0.356,-0.319C0.344,-0.326 0.33,-0.33 0.314,-0.33C0.298,-0.33 0.284,-0.326 0.272,-0.319C0.259,-0.312 0.25,-0.302 0.243,-0.29C0.236,-0.277 0.232,-0.263 0.232,-0.246C0.232,-0.23 0.235,-0.216 0.242,-0.203C0.249,-0.19 0.258,-0.18 0.271,-0.173C0.283,-0.166 0.297,-0.162 0.313,-0.162Z" style="fill:rgb(246,246,246);fill-rule:nonzero;"/>
                        </g>
                        <g transform="matrix(266.666667,0,0,266.666667,1289.116832,902.2)">
                            <path d="M0.059,-0L0.059,-0.712L0.259,-0.712L0.259,-0L0.059,-0ZM0.222,-0L0.222,-0.17L0.555,-0.17L0.555,-0L0.222,-0Z" style="fill:rgb(246,246,246);fill-rule:nonzero;"/>
                        </g>
                        <g transform="matrix(266.666667,0,0,266.666667,1430.183498,902.2)">
                            <path d="M0.046,-0L0.046,-0.492L0.242,-0.492L0.242,-0L0.046,-0ZM0.144,-0.538C0.115,-0.538 0.092,-0.548 0.072,-0.568C0.053,-0.587 0.044,-0.611 0.044,-0.64C0.044,-0.669 0.053,-0.693 0.072,-0.713C0.092,-0.732 0.115,-0.742 0.144,-0.742C0.173,-0.742 0.197,-0.732 0.216,-0.713C0.235,-0.693 0.244,-0.669 0.244,-0.64C0.244,-0.611 0.235,-0.587 0.216,-0.568C0.197,-0.548 0.173,-0.538 0.144,-0.538Z" style="fill:rgb(246,246,246);fill-rule:nonzero;"/>
                        </g>
                        <g transform="matrix(266.666667,0,0,266.666667,1495.516832,902.2)">
                            <path d="M0.19,-0L-0.003,-0.492L0.205,-0.492L0.318,-0.073L0.247,-0.073L0.359,-0.492L0.566,-0.492L0.373,-0L0.19,-0Z" style="fill:rgb(246,246,246);fill-rule:nonzero;"/>
                        </g>
                        <g transform="matrix(266.666667,0,0,266.666667,1631.543234,902.2)">
                            <path d="M0.303,0.012C0.246,0.012 0.195,0.001 0.152,-0.021C0.109,-0.042 0.075,-0.072 0.051,-0.112C0.026,-0.15 0.014,-0.195 0.014,-0.246C0.014,-0.296 0.026,-0.34 0.05,-0.379C0.073,-0.418 0.106,-0.448 0.147,-0.471C0.188,-0.493 0.235,-0.504 0.287,-0.504C0.338,-0.504 0.384,-0.494 0.423,-0.473C0.462,-0.452 0.493,-0.422 0.515,-0.385C0.538,-0.348 0.549,-0.305 0.549,-0.257C0.549,-0.247 0.549,-0.237 0.547,-0.226C0.546,-0.214 0.544,-0.202 0.541,-0.187L0.097,-0.184L0.097,-0.304L0.468,-0.307L0.377,-0.254C0.377,-0.281 0.374,-0.302 0.367,-0.32C0.361,-0.337 0.352,-0.349 0.339,-0.358C0.326,-0.367 0.31,-0.371 0.291,-0.371C0.271,-0.371 0.254,-0.366 0.239,-0.356C0.224,-0.346 0.213,-0.332 0.206,-0.313C0.198,-0.294 0.194,-0.272 0.194,-0.245C0.194,-0.218 0.198,-0.195 0.207,-0.176C0.215,-0.158 0.227,-0.144 0.243,-0.135C0.259,-0.126 0.279,-0.121 0.303,-0.121C0.326,-0.121 0.347,-0.125 0.364,-0.133C0.382,-0.14 0.398,-0.152 0.413,-0.169L0.511,-0.072C0.486,-0.044 0.457,-0.023 0.422,-0.009C0.387,0.005 0.348,0.012 0.303,0.012Z" style="fill:rgb(246,246,246);fill-rule:nonzero;"/>
                        </g>
                        <g transform="matrix(266.666667,0,0,266.666667,1781.143234,902.2)">
                        </g>
                    </g>
                </g>
                <g transform="matrix(1.424857,0,0,1.780717,2017.181164,1069.836165)">
                    <g transform="matrix(1,0,0,1,-64.583333,-64.583333)">
                        <g transform="matrix(4.166667,0,0,4.166667,0,0)">
                            <path d="M14.56,30.72C14.267,28.987 13.493,27.12 12.24,25.12C10.987,23.093 9.2,21.213 6.88,19.48C4.587,17.747 2.293,16.64 0,16.16L0,14.48C2.267,13.947 4.44,12.96 6.52,11.52C8.627,10.053 10.387,8.293 11.8,6.24C13.24,4.133 14.16,2.053 14.56,0L16.24,0C16.48,1.333 16.96,2.707 17.68,4.12C18.4,5.507 19.32,6.84 20.44,8.12C21.587,9.373 22.867,10.507 24.28,11.52C26.387,13.013 28.533,14 30.72,14.48L30.72,16.16C29.253,16.453 27.733,17.053 26.16,17.96C24.613,18.867 23.173,19.947 21.84,21.2C20.507,22.427 19.413,23.72 18.56,25.08C17.307,27.08 16.533,28.96 16.24,30.72L14.56,30.72Z" style="fill:rgb(246,246,246);fill-rule:nonzero;"/>
                        </g>
                    </g>
                </g>
            </g>
        </g>
    </g>
</svg>
